<?xml version="1.0" encoding="UTF-8"?>
<svg id="Layer_2" data-name="Layer 2" xmlns="http://www.w3.org/2000/svg" viewBox="0 0 22.78 26.5">
  <defs>
    <style>
      .cls-1 {
        fill: #203d74;
      }
    </style>
  </defs>
  <g id="LANDING">
    <g id="curs_ONLINE_field">
      <g id="g3045">
        <g id="g3047">
          <g id="g3049">
            <g id="g3055">
              <g id="path3057">
                <path class="cls-1" d="M11.39,10.01c-.09,0-.19-.02-.28-.05L.47,5.7c-.29-.11-.47-.39-.47-.7s.19-.58,.47-.7L11.11,.05c.18-.07,.38-.07,.56,0l10.64,4.26c.29,.11,.47,.39,.47,.7s-.19,.58-.47,.7l-10.64,4.26c-.09,.04-.18,.05-.28,.05ZM2.77,5.01l8.62,3.45,8.62-3.45L11.39,1.56,2.77,5.01Z"/>
              </g>
            </g>
            <g id="g3059">
              <g id="path3061">
                <path class="cls-1" d="M22.03,13.2c-.41,0-.75-.34-.75-.75V5.01c0-.41,.34-.75,.75-.75s.75,.34,.75,.75v7.45c0,.41-.34,.75-.75,.75Z"/>
              </g>
            </g>
          </g>
        </g>
        <g id="g3063">
          <g id="path3065">
            <path class="cls-1" d="M17.77,14.27H5c-.41,0-.75-.34-.75-.75V6.71c0-.41,.34-.75,.75-.75s.75,.34,.75,.75v6.06h11.27V6.71c0-.41,.34-.75,.75-.75s.75,.34,.75,.75v6.81c0,.41-.34,.75-.75,.75Z"/>
          </g>
        </g>
        <g id="g3067">
          <g id="g3069">
            <g id="path3075">
              <path class="cls-1" d="M22.03,22.24H.75c-.41,0-.75-.34-.75-.75v-4.26c0-.41,.34-.75,.75-.75H22.03c.41,0,.75,.34,.75,.75v4.26c0,.41-.34,.75-.75,.75ZM1.5,20.74H21.28v-2.76H1.5v2.76Z"/>
            </g>
            <g id="g3077">
              <g id="path3079">
                <path class="cls-1" d="M14.58,26.5c-2.17,0-3.94-1.77-3.94-3.94v-5.32c0-.41,.34-.75,.75-.75s.75,.34,.75,.75v5.32c0,1.35,1.09,2.44,2.44,2.44,.41,0,.75,.34,.75,.75s-.34,.75-.75,.75Z"/>
              </g>
            </g>
            <g id="g3081">
              <g id="path3083">
                <path class="cls-1" d="M8.2,26.5c-.41,0-.75-.34-.75-.75s.34-.75,.75-.75c1.35,0,2.44-1.1,2.44-2.44,0-.41,.34-.75,.75-.75s.75,.34,.75,.75c0,2.17-1.77,3.94-3.94,3.94Z"/>
              </g>
            </g>
          </g>
        </g>
      </g>
    </g>
  </g>
</svg>