<?xml version="1.0" encoding="UTF-8"?>
<svg id="Layer_2" data-name="Layer 2" xmlns="http://www.w3.org/2000/svg" viewBox="0 0 12.4 22.6">
  <defs>
    <style>
      .cls-1 {
        fill: #5273b7;
      }
    </style>
  </defs>
  <g id="MENU-CAUTA">
    <g id="social_media_buttons" data-name="social media_buttons">
      <path id="facebook_icon" data-name="facebook icon" class="cls-1" d="M12.4,4c0,.4-.2,.6-.6,.6h-2.2c-.4,0-.8,.1-1,.5-.1,.2-.2,.4-.2,.6v2.5h3.2c.5,0,.6,.2,.6,.6v3.4c0,.4-.2,.6-.6,.6h-3.3v9.2c0,.3-.1,.5-.3,.6H3.9c-.3-.1-.4-.3-.4-.6V12.8H.6c-.4,0-.6-.2-.6-.6v-3.5c0-.4,.2-.6,.6-.6H3.5v-3c.1-1.3,.4-2.5,1.3-3.5C5.5,.8,6.5,.3,7.5,.1c.3-.1,.5-.1,.8-.1h3.6c.4,.3,.5,.5,.5,.8V4Z"/>
    </g>
  </g>
</svg>