<!-- Generated by IcoMoon.io -->
<svg version="1.1" xmlns="http://www.w3.org/2000/svg" width="32" height="32" viewBox="0 0 32 32">
<title>info</title>
<path d="M14.507 7.253c0 4.006-3.247 7.253-7.253 7.253s-7.253-3.247-7.253-7.253c0-4.006 3.247-7.253 7.253-7.253s7.253 3.247 7.253 7.253z"></path>
<path d="M32 7.253c0 4.006-3.247 7.253-7.253 7.253s-7.253-3.247-7.253-7.253c0-4.006 3.247-7.253 7.253-7.253s7.253 3.247 7.253 7.253z"></path>
<path d="M14.507 24.747c0 4.006-3.247 7.253-7.253 7.253s-7.253-3.247-7.253-7.253c0-4.006 3.247-7.253 7.253-7.253s7.253 3.247 7.253 7.253z"></path>
<path d="M32 24.747c0 4.006-3.247 7.253-7.253 7.253s-7.253-3.247-7.253-7.253c0-4.006 3.247-7.253 7.253-7.253s7.253 3.247 7.253 7.253z"></path>
</svg>
