<?xml version="1.0" encoding="UTF-8"?>
<svg id="Layer_2" data-name="Layer 2" xmlns="http://www.w3.org/2000/svg" viewBox="0 0 27.06 28">
  <defs>
    <style>
      .cls-1 {
        fill: #203d74;
      }
    </style>
  </defs>
  <g id="LANDING">
    <g id="hotel_icon">
      <path class="cls-1" d="M8.29,16.52c-.45,0-.82,.37-.82,.82v2.46h-2.37v-2.46c0-.45-.37-.82-.82-.82s-.82,.37-.82,.82v6.56c0,.45,.37,.82,.82,.82s.82-.37,.82-.82v-2.46h2.37v2.46c0,.45,.37,.82,.82,.82s.82-.37,.82-.82v-6.56c0-.45-.37-.82-.82-.82Z"/>
      <path class="cls-1" d="M27.05,22.09h0s-.61-3.35-.61-3.35c-.05-.25-.21-.47-.44-.59l-1.5-.75-.3-.98c-.08-.26-.28-.46-.54-.54l-.91-.28-.28-.91c-.08-.26-.28-.46-.54-.54l-.91-.28-.28-.91c-.04-.13-.11-.24-.2-.34l-1.49-1.49,.24-.24c.57-.57,.88-1.32,.88-2.13s-.31-1.56-.88-2.13l-3.66-3.66c-.57-.57-1.32-.88-2.13-.88-.37,0-.74,.07-1.08,.2C11.33,.9,9.62,0,7.72,0,4.43,0,1.76,2.67,1.76,5.95c0,.44,.05,.87,.14,1.29-1.08,.16-1.9,1.1-1.9,2.22V25.76c0,1.24,1.01,2.24,2.24,2.24H10.34c1.24,0,2.24-1.01,2.24-2.24v-9.61c.07,0,.13,0,.2,0,.8,0,1.56-.31,2.13-.88l.24-.24,7.17,7.17c.12,.12,.27,.2,.43,.23l3.35,.61s.1,.01,.15,.01c.22,0,.42-.09,.58-.24,.19-.19,.27-.46,.23-.73ZM7.72,1.64c1.36,0,2.58,.64,3.37,1.63l-3.95,3.95H3.59c-.13-.41-.19-.83-.19-1.27C3.4,3.57,5.34,1.64,7.72,1.64Zm3.22,24.12h0c0,.33-.27,.6-.6,.6H2.24c-.33,0-.6-.27-.6-.6V9.46c0-.33,.27-.6,.6-.6h.78s.02,0,.02,0h3.13c-.08,.4-.09,.81,0,1.21-.31,.05-.58,.26-.67,.58-.13,.44,.13,.89,.56,1.02,.39,.11,.79,.18,1.2,.22l3.39,3.39c.09,.09,.19,.17,.29,.25v10.23Zm12.35-4.89l-7.5-7.5c-.24-.24-.6-.31-.91-.17-.05,.02-.11,.05-.19,.08-.11,.04-.21,.1-.29,.19l-.66,.66c-.26,.26-.6,.4-.97,.4s-.71-.14-.97-.4l-3.59-3.59s-.01-.01-.02-.02l-.05-.05c-.48-.48-.53-1.22-.15-1.75,.1-.07,.17-.16,.23-.26l3.64-3.64c.1,.37,.16,.75,.16,1.15,0,.69-.16,1.35-.47,1.96-.15,.3-.1,.64,.09,.88,.02,.03,.04,.05,.07,.08,.15,.15,.36,.24,.58,.24s.43-.09,.58-.24c.09-.09,.16-.21,.2-.33,.39-.8,.59-1.69,.59-2.58,0-.77-.15-1.51-.42-2.18,.08-.01,.16-.02,.24-.02,.37,0,.71,.14,.97,.4l3.66,3.66c.26,.26,.4,.6,.4,.97s-.14,.71-.4,.97l-.66,.66c-.08,.08-.15,.18-.19,.29-.03,.07-.05,.13-.08,.19-.13,.31-.07,.67,.17,.91l1.86,1.86,.35,1.13c.08,.26,.28,.46,.54,.54l.91,.28,.28,.91c.08,.26,.28,.46,.54,.54l.91,.28,.28,.91c.07,.21,.22,.39,.42,.49l1.45,.72,.32,1.78-1.93-.35Z"/>
    </g>
  </g>
</svg>