<?xml version="1.0" encoding="UTF-8"?>
<svg id="Layer_2" data-name="Layer 2" xmlns="http://www.w3.org/2000/svg" viewBox="0 0 26.5 26.5">
  <defs>
    <style>
      .cls-1 {
        fill: #203d74;
      }
    </style>
  </defs>
  <g id="LANDING">
    <g id="curs_ONLINE_field">
      <g id="online_icon">
        <path class="cls-1" d="M4.78,26.5h-1.91c-1.58,0-2.87-1.29-2.87-2.87v-6.36c0-.41,.34-.75,.75-.75s.75,.34,.75,.75v6.36c0,.75,.61,1.37,1.37,1.37h1.91c.41,0,.75,.34,.75,.75s-.34,.75-.75,.75Z"/>
        <path class="cls-1" d="M9.01,26.5c-.41,0-.75-.34-.75-.75v-8.47c0-.41,.34-.75,.75-.75s.75,.34,.75,.75v8.47c0,.41-.34,.75-.75,.75Z"/>
        <path class="cls-1" d="M15.37,26.5c-.31,0-.59-.19-.7-.49l-3.18-8.47c-.15-.39,.05-.82,.44-.97,.39-.15,.82,.05,.97,.44l2.48,6.6,2.48-6.6c.14-.39,.58-.58,.97-.44,.39,.15,.58,.58,.44,.97l-3.18,8.47c-.11,.29-.39,.49-.7,.49Z"/>
        <path class="cls-1" d="M25.75,26.5h-1.91c-1.58,0-2.87-1.29-2.87-2.87v-4.24c0-1.58,1.29-2.87,2.87-2.87h1.91c.41,0,.75,.34,.75,.75s-.34,.75-.75,.75h-1.91c-.75,0-1.37,.61-1.37,1.37v4.24c0,.75,.61,1.37,1.37,1.37h1.91c.41,0,.75,.34,.75,.75s-.34,.75-.75,.75Z"/>
        <path class="cls-1" d="M25.75,22.26h-4.03c-.41,0-.75-.34-.75-.75s.34-.75,.75-.75h4.03c.41,0,.75,.34,.75,.75s-.34,.75-.75,.75Z"/>
        <path class="cls-1" d="M13.04,13.79H2.87c-1.58,0-2.87-1.29-2.87-2.87V2.87C0,1.29,1.29,0,2.87,0H13.04c1.58,0,2.87,1.29,2.87,2.87V10.92c0,1.58-1.29,2.87-2.87,2.87ZM2.87,1.5c-.75,0-1.37,.61-1.37,1.37V10.92c0,.75,.61,1.37,1.37,1.37H13.04c.75,0,1.37-.61,1.37-1.37V2.87c0-.75-.61-1.37-1.37-1.37H2.87Z"/>
        <path class="cls-1" d="M23.63,12.09c-.5,0-1-.13-1.43-.38l-3.18-1.84c-.36-.21-.48-.67-.27-1.02,.21-.36,.66-.48,1.02-.27l3.18,1.84c.21,.12,.44,.18,.68,.18,.75,0,1.37-.61,1.37-1.37V4.99c0-.75-.61-1.37-1.37-1.37-.24,0-.48,.06-.68,.18l-3.18,1.84c-.36,.21-.82,.08-1.02-.27-.21-.36-.08-.82,.27-1.02l3.18-1.84c.43-.25,.93-.38,1.43-.38,1.58,0,2.87,1.29,2.87,2.87v4.24c0,1.58-1.29,2.87-2.87,2.87Z"/>
        <path class="cls-1" d="M4.98,5.74c-.19,0-.39-.08-.52-.22-.15-.14-.23-.33-.23-.53s.08-.39,.23-.53c.2-.21,.53-.28,.81-.16,.09,.04,.18,.09,.24,.16,.14,.14,.23,.33,.23,.53s-.09,.39-.23,.53c-.06,.07-.15,.13-.24,.16-.09,.04-.19,.06-.29,.06Z"/>
      </g>
    </g>
  </g>
</svg>