<?xml version="1.0" encoding="UTF-8"?>
<svg id="Layer_2" data-name="Layer 2" xmlns="http://www.w3.org/2000/svg" viewBox="0 0 100 34.64">
  <defs>
    <style>
      .cls-1 {
        fill: #fff;
      }
    </style>
  </defs>
  <g id="MAG-MENU">
    <g id="logo_up">
      <g id="APSAP_logo">
        <g id="apsap_logo">
          <g>
            <g>
              <path class="cls-1" d="M15.93,32.83l-.54-1.57H7.15l-.54,1.57c-.3,.86-1.1,1.44-2.01,1.44H0L7.87,13.36h6.8l7.87,20.91h-4.59c-.91,0-1.72-.58-2.01-1.44Zm-4.65-14.14l-2.66,7.87h5.3l-2.63-7.87Z"/>
              <path class="cls-1" d="M22.54,34.27V13.36h10.47c4.7,0,7.27,3.17,7.27,6.96s-2.57,6.93-7.27,6.93h-5.08v4.89c0,1.18-.95,2.13-2.13,2.13h-3.26Zm12.26-13.95c0-1.44-1.16-2.26-2.6-2.26h-4.26v4.48h4.26c1.44,0,2.6-.81,2.6-2.23Z"/>
              <path class="cls-1" d="M39.59,31.32l1.57-2.31c.65-.96,1.94-1.2,2.92-.59,1.37,.86,3.09,1.46,5.07,1.46,1.82,0,2.95-.63,2.95-1.66,0-2.76-11.82-.47-11.82-8.53,0-3.51,2.95-6.65,8.31-6.65,3.35,0,6.27,1,8.5,2.92l-1.75,2.4c-.63,.87-1.8,1.11-2.75,.6-1.44-.77-3.06-1.15-4.56-1.15s-2.26,.53-2.26,1.44c0,2.57,11.82,.63,11.82,8.4,0,4.2-3.1,6.99-8.72,6.99-4.23,0-7.18-1.35-9.28-3.32Z"/>
              <path class="cls-1" d="M71.49,32.83l-.54-1.57h-8.24l-.54,1.57c-.3,.86-1.1,1.44-2.01,1.44h-4.59l7.87-20.91h6.8l7.87,20.91h-4.59c-.91,0-1.72-.58-2.01-1.44Zm-4.65-14.14l-2.66,7.87h5.3l-2.63-7.87Z"/>
              <path class="cls-1" d="M78.06,34.27V13.36h10.47c4.7,0,7.27,3.17,7.27,6.96s-2.57,6.93-7.27,6.93h-5.08v4.89c0,1.18-.95,2.13-2.13,2.13h-3.26Zm12.26-13.95c0-1.44-1.16-2.26-2.6-2.26h-4.26v4.48h4.26c1.44,0,2.6-.81,2.6-2.23Z"/>
            </g>
            <g>
              <path class="cls-1" d="M.68,3.13C.68,1.27,2.04,0,3.78,0c1.07,0,1.81,.51,2.29,1.2l-.63,.35c-.34-.52-.98-.88-1.67-.88C2.46,.67,1.46,1.68,1.46,3.13s1.01,2.45,2.33,2.45c.69,0,1.32-.37,1.67-.88l.63,.34c-.51,.7-1.23,1.2-2.3,1.2-1.74,0-3.11-1.27-3.11-3.13Z"/>
              <path class="cls-1" d="M7.04,6.14V.1h3.96V.77h-3.21v1.95h3.14v.67h-3.14v2.08h3.21v.67h-3.96Z"/>
              <path class="cls-1" d="M16.47,6.14L12.95,1.32V6.14h-.75V.1h.77l3.48,4.72V.1h.75V6.14h-.72Z"/>
              <path class="cls-1" d="M20.1,6.14V.77h-1.91V.1h4.58V.77h-1.92V6.14h-.75Z"/>
              <path class="cls-1" d="M27.27,6.14l-1.53-2.4h-1.21v2.4h-.75V.1h2.43c1.11,0,1.9,.71,1.9,1.82s-.75,1.68-1.58,1.76l1.63,2.46h-.89Zm.05-4.22c0-.69-.5-1.15-1.21-1.15h-1.59V3.08h1.59c.72,0,1.21-.48,1.21-1.16Z"/>
              <path class="cls-1" d="M29.29,3.8V.1h.76V3.78c0,1.11,.59,1.8,1.7,1.8s1.71-.7,1.71-1.8V.1h.76V3.79c0,1.5-.83,2.46-2.47,2.46s-2.46-.97-2.46-2.45Z"/>
              <path class="cls-1" d="M35.54,6.14V.1h.75V5.47h2.81v.67h-3.56Z"/>
              <path class="cls-1" d="M42.45,6.14V.1h2.07c1.88,0,3.1,1.31,3.1,3.03s-1.21,3.02-3.1,3.02h-2.07Zm4.38-3.02c0-1.3-.82-2.36-2.32-2.36h-1.31V5.47h1.31c1.47,0,2.32-1.05,2.32-2.35Z"/>
              <path class="cls-1" d="M48.79,6.14V.1h3.96V.77h-3.21v1.95h3.14v.67h-3.14v2.08h3.21v.67h-3.96Z"/>
              <path class="cls-1" d="M56.29,6.14V.1h3.96V.77h-3.21v1.95h3.14v.67h-3.14v2.75h-.75Z"/>
              <path class="cls-1" d="M61.03,3.13c0-1.78,1.21-3.13,3-3.13s3.01,1.34,3.01,3.13-1.22,3.13-3.01,3.13-3-1.34-3-3.13Zm5.23,0c0-1.41-.88-2.45-2.23-2.45s-2.22,1.04-2.22,2.45,.86,2.45,2.22,2.45,2.23-1.05,2.23-2.45Z"/>
              <path class="cls-1" d="M71.7,6.14l-1.53-2.4h-1.21v2.4h-.75V.1h2.43c1.11,0,1.9,.71,1.9,1.82s-.75,1.68-1.58,1.76l1.63,2.46h-.89Zm.05-4.22c0-.69-.5-1.15-1.21-1.15h-1.59V3.08h1.59c.72,0,1.21-.48,1.21-1.16Z"/>
              <path class="cls-1" d="M78.88,6.14V1.06l-2.05,5.08h-.31l-2.06-5.08V6.14h-.75V.1h1.08l1.88,4.66L78.56,.1h1.08V6.14h-.75Z"/>
              <path class="cls-1" d="M85.36,6.14l-.53-1.35h-3.01l-.53,1.35h-.86L82.86,.1h.93l2.43,6.04h-.86Zm-2.04-5.27l-1.28,3.26h2.56l-1.29-3.26Z"/>
              <path class="cls-1" d="M90.5,6.14l-1.53-2.4h-1.21v2.4h-.75V.1h2.43c1.11,0,1.9,.71,1.9,1.82s-.75,1.68-1.58,1.76l1.63,2.46h-.89Zm.05-4.22c0-.69-.5-1.15-1.21-1.15h-1.59V3.08h1.59c.72,0,1.21-.48,1.21-1.16Z"/>
              <path class="cls-1" d="M92.52,6.14V.1h3.96V.77h-3.21v1.95h3.14v.67h-3.14v2.08h3.21v.67h-3.96Z"/>
            </g>
          </g>
          <path class="cls-1" d="M100,12.09c0,1.21-.93,2.18-2.12,2.18s-2.14-.97-2.14-2.18,.94-2.17,2.15-2.17,2.11,.97,2.11,2.17Zm-3.91,.02c0,1.05,.77,1.87,1.79,1.87,.99,.01,1.77-.82,1.77-1.89s-.77-1.88-1.77-1.88-1.78,.83-1.78,1.9Zm2.65-.82c-.09-.05-.35-.16-.68-.16-.66,0-.99,.42-.99,.99s.34,.99,.99,.99c.28,0,.55-.08,.71-.18l.08,.27c-.25,.16-.57,.22-.87,.22-.82,0-1.29-.56-1.29-1.27,0-.8,.63-1.31,1.34-1.31,.37,0,.68,.11,.77,.19l-.08,.27Z"/>
        </g>
      </g>
    </g>
  </g>
</svg>