<?xml version="1.0" encoding="UTF-8"?>
<svg id="Layer_2" data-name="Layer 2" xmlns="http://www.w3.org/2000/svg" viewBox="0 0 15 15">
  <defs>
    <style>
      .cls-1 {
        fill: #5273b7;
      }
    </style>
  </defs>
  <g id="MENU-OFERTA">
    <g id="cauta_field">
      <g id="cauta_icon">
        <path class="cls-1" d="M6.04,12.07c1.34,0,2.64-.45,3.7-1.27l3.99,3.99c.3,.29,.77,.28,1.06-.02,.28-.29,.28-.75,0-1.04l-3.99-3.99c2.04-2.63,1.57-6.42-1.06-8.47C7.11-.78,3.31-.3,1.27,2.33S-.3,8.76,2.33,10.8c1.06,.82,2.36,1.27,3.71,1.27h0ZM2.83,2.83c1.77-1.77,4.64-1.77,6.41,0,1.77,1.77,1.77,4.64,0,6.41-1.77,1.77-4.64,1.77-6.41,0h0c-1.77-1.76-1.78-4.62-.02-6.39,0,0,.02-.02,.02-.02h0Z"/>
      </g>
    </g>
  </g>
</svg>