<?xml version="1.0" encoding="UTF-8"?>
<svg id="Layer_2" data-name="Layer 2" xmlns="http://www.w3.org/2000/svg" viewBox="0 0 18.5 31">
  <defs>
    <style>
      .cls-1 {
        fill: #fff;
      }

      .cls-2 {
        fill: #273266;
      }
    </style>
  </defs>
  <g id="LANDING">
    <g>
      <path class="cls-2" d="M15.5,30.5c-.67,0-1.3-.26-1.77-.74L1.23,17.18c-.47-.47-.73-1.1-.73-1.77,0-.66,.27-1.3,.74-1.76L13.74,1.23c.47-.47,1.1-.73,1.76-.73s1.3,.26,1.77,.74c.47,.47,.73,1.1,.73,1.77s-.26,1.29-.74,1.77L6.54,15.43l10.74,10.81c.47,.47,.73,1.1,.73,1.77s-.26,1.29-.74,1.77c-.47,.47-1.1,.73-1.76,.73Z"/>
      <path class="cls-1" d="M15.5,1c.51,0,1.03,.2,1.42,.59,.78,.78,.77,2.05,0,2.83L5.83,15.42l11.09,11.17c.78,.78,.77,2.05,0,2.83-.39,.39-.9,.58-1.41,.58s-1.03-.2-1.42-.59L1.58,16.82c-.37-.38-.58-.89-.58-1.42,0-.53,.21-1.04,.59-1.41L14.09,1.58c.39-.39,.9-.58,1.41-.58m0-1h0c-.8,0-1.55,.31-2.11,.87L.89,13.29C.32,13.85,0,14.6,0,15.4c0,.8,.31,1.56,.87,2.12l12.5,12.59c.57,.57,1.32,.89,2.13,.89s1.55-.31,2.11-.87c.57-.56,.88-1.32,.89-2.12,0-.8-.31-1.56-.87-2.12L7.24,15.43,17.61,5.13c.57-.56,.88-1.32,.89-2.12,0-.8-.31-1.56-.87-2.12-.57-.57-1.32-.89-2.13-.89h0Z"/>
    </g>
  </g>
</svg>