<?xml version="1.0" encoding="UTF-8"?>
<svg id="Layer_2" data-name="Layer 2" xmlns="http://www.w3.org/2000/svg" viewBox="0 0 18.5 31">
  <defs>
    <style>
      .cls-1 {
        fill: #fff;
      }

      .cls-2 {
        fill: #273266;
      }
    </style>
  </defs>
  <g id="LANDING">
    <g id="nav">
      <g>
        <path class="cls-2" d="M3,30.5c-.67,0-1.29-.26-1.76-.73-.47-.47-.74-1.1-.74-1.76s.26-1.3,.73-1.77L11.96,15.43,1.24,4.77c-.47-.47-.74-1.1-.74-1.77s.26-1.3,.73-1.77c.47-.48,1.1-.74,1.77-.74s1.29,.26,1.76,.73l12.5,12.41c.47,.46,.74,1.11,.74,1.76,0,.67-.26,1.3-.73,1.77L4.77,29.76c-.47,.48-1.1,.74-1.77,.74Z"/>
        <path class="cls-1" d="M3,1c.51,0,1.02,.19,1.41,.58l12.5,12.41c.38,.37,.59,.88,.59,1.41,0,.53-.21,1.04-.58,1.42L4.42,29.41c-.39,.39-.9,.59-1.42,.59s-1.02-.19-1.41-.58c-.78-.78-.79-2.04,0-2.83L12.67,15.42,1.59,4.42c-.78-.78-.79-2.04,0-2.83,.39-.39,.9-.59,1.42-.59m0-1C2.19,0,1.44,.31,.87,.89,.31,1.45,0,2.21,0,3.01c0,.8,.32,1.55,.89,2.12L11.26,15.43,.87,25.89C.31,26.45,0,27.21,0,28.01c0,.8,.32,1.55,.89,2.12,.57,.56,1.32,.87,2.11,.87s1.56-.31,2.13-.89l12.5-12.59c.56-.57,.87-1.32,.87-2.12,0-.8-.32-1.55-.89-2.12L5.11,.87c-.57-.56-1.32-.87-2.11-.87h0Z"/>
      </g>
    </g>
  </g>
</svg>