<?xml version="1.0" encoding="UTF-8"?>
<svg id="Layer_2" data-name="Layer 2" xmlns="http://www.w3.org/2000/svg" xmlns:xlink="http://www.w3.org/1999/xlink" viewBox="0 0 60 60">
  <defs>
    <style>
      .cls-1 {
        fill: url(#linear-gradient);
      }

      .cls-2 {
        fill: url(#linear-gradient-2);
      }
    </style>
    <linearGradient id="linear-gradient" x1="30" y1=".6" x2="30" y2="60.6" gradientUnits="userSpaceOnUse">
      <stop offset="0" stop-color="#333232"/>
      <stop offset="1" stop-color="#f9be13"/>
    </linearGradient>
    <linearGradient id="linear-gradient-2" x1="28.58" y1=".6" x2="28.58" y2="60.6" xlink:href="#linear-gradient"/>
  </defs>
  <g id="LANDING">
    <g id="info-text_wide">
      <g id="cursanti_field">
        <g id="cursanti_icon">
          <path class="cls-1" d="M58.58,28.03c-.9-.84-2.12-1.36-3.35-1.43-1.4-.07-2.71,.43-3.69,1.43l-6.67,6.7c-.13-.23-.28-.45-.45-.65-.82-.99-2.02-1.53-3.38-1.53h-9.34c-1.76,0-3.48-.23-5.11-.69-4.24-1.19-8.29-.32-11.72,2.52-1.39,1.15-2.41,2.41-3.05,3.33l-1.67-1.65c-.22-.22-.52-.34-.83-.34h0c-.32,0-.63,.14-.85,.37L.33,44.66c-.22,.23-.34,.54-.33,.86,0,.32,.14,.62,.37,.84l13.77,13.31c.23,.22,.52,.33,.81,.33,.31,0,.61-.12,.85-.36l8.06-8.4c.22-.23,.34-.54,.34-.86,0-.32-.14-.62-.36-.84l-.7-.69,1.61-.18c.97-.11,1.96-.17,2.94-.17h14.21c2.31,0,4.27-.51,5.83-1.52,.01,0,.03-.02,.04-.03,.56-.39,1.07-.86,1.51-1.39l9.58-11.44c1.64-1.96,1.54-4.4-.26-6.08ZM14.92,57.12L2.85,45.45l6.5-6.85,11.99,11.82-6.43,6.7Zm42.12-24.56l-9.58,11.44c-.3,.36-.65,.69-1.04,.96-1.17,.75-2.7,1.13-4.54,1.13h-14.21c-1.07,0-2.15,.06-3.21,.19l-3.53,.4-7.4-7.29c.51-.77,1.46-2.02,2.83-3.16,2.85-2.36,6.08-3.05,9.6-2.06,1.83,.51,3.76,.78,5.74,.78h9.34c1.68,0,2.12,1.48,2.12,2.35,0,.64-.2,1.24-.55,1.66-.38,.46-.92,.69-1.61,.69h-8.13c-.65,0-1.18,.54-1.18,1.2s.53,1.2,1.18,1.2h8.13c1.37,0,2.58-.54,3.41-1.53,.69-.82,1.08-1.9,1.11-3.05l7.68-7.72c1.1-1.12,2.81-.84,3.77,.06,.5,.46,1.16,1.44,.06,2.76Z"/>
          <path class="cls-2" d="M7.98,25.29h11.5c.63,0,1.21-.21,1.68-.55,.47,.35,1.05,.55,1.68,.55h11.5c.63,0,1.21-.21,1.68-.55,.47,.35,1.05,.55,1.68,.55h11.5c1.58,0,2.86-1.3,2.86-2.9v-5.45c0-2.45-1.35-4.57-3.37-5.62,.98-1.2,1.57-2.73,1.57-4.41,0-3.81-3.05-6.91-6.81-6.91s-6.81,3.1-6.81,6.91c0,1.67,.59,3.21,1.57,4.41-.87,.45-1.62,1.11-2.19,1.9-.57-.79-1.31-1.45-2.19-1.9,.98-1.2,1.57-2.73,1.57-4.41,0-3.81-3.05-6.91-6.81-6.91s-6.81,3.1-6.81,6.91c0,1.67,.59,3.21,1.57,4.41-.87,.45-1.62,1.11-2.19,1.9-.57-.79-1.31-1.45-2.19-1.9,.98-1.2,1.57-2.73,1.57-4.41,0-3.81-3.05-6.91-6.81-6.91S6.92,3.1,6.92,6.91c0,1.67,.59,3.21,1.57,4.41-2.02,1.05-3.37,3.17-3.37,5.62v5.45c0,1.6,1.28,2.9,2.86,2.9ZM43.44,2.4c2.45,0,4.45,2.03,4.45,4.52s-2,4.52-4.45,4.52-4.45-2.03-4.45-4.52c0-2.49,1.99-4.52,4.45-4.52Zm-3.07,10.69c.92,.47,1.96,.74,3.07,.74s2.14-.27,3.07-.74c1.83,.32,3.18,1.93,3.18,3.86v5.45c0,.28-.22,.5-.5,.5h-11.5c-.27,0-.5-.23-.5-.5v-5.45c0-1.93,1.35-3.53,3.18-3.86ZM28.58,2.4c2.45,0,4.45,2.03,4.45,4.52s-2,4.52-4.45,4.52-4.45-2.03-4.45-4.52,1.99-4.52,4.45-4.52Zm-3.07,10.69c.92,.47,1.96,.74,3.07,.74s2.14-.27,3.07-.74c1.83,.32,3.18,1.93,3.18,3.86v5.45c0,.28-.22,.5-.5,.5h-11.5c-.27,0-.5-.23-.5-.5v-5.45c0-1.93,1.35-3.53,3.18-3.86ZM13.73,2.4c2.45,0,4.45,2.03,4.45,4.52s-2,4.52-4.45,4.52-4.45-2.03-4.45-4.52,2-4.52,4.45-4.52Zm-6.25,14.54c0-1.93,1.35-3.53,3.18-3.86,.92,.47,1.96,.74,3.07,.74s2.14-.27,3.07-.74c1.83,.32,3.18,1.93,3.18,3.86v5.45c0,.28-.22,.5-.5,.5H7.98c-.27,0-.5-.23-.5-.5v-5.45Z"/>
        </g>
      </g>
    </g>
  </g>
</svg>