<?xml version="1.0" encoding="UTF-8"?>
<svg id="Layer_2" data-name="Layer 2" xmlns="http://www.w3.org/2000/svg" viewBox="0 0 1920 1038.5">
  <defs>
    <style>
      .cls-1 {
        opacity: .08;
      }

      .cls-2 {
        fill: #7d7d7d;
      }

      .cls-3 {
        fill: #7e7e7e;
      }

      .cls-4 {
        fill: #7f7f7f;
      }

      .cls-5 {
        fill: #818181;
      }

      .cls-6 {
        fill: #989898;
      }

      .cls-7 {
        fill: #979797;
      }

      .cls-8 {
        fill: #7c7c7c;
      }

      .cls-9 {
        fill: #8b8b8b;
      }

      .cls-10 {
        fill: #9c9c9c;
      }

      .cls-11 {
        fill: #a1a1a1;
      }

      .cls-12 {
        fill: #9f9f9f;
      }

      .cls-13 {
        fill: #929292;
      }

      .cls-14 {
        fill: #848484;
      }

      .cls-15 {
        fill: #a0a0a0;
      }

      .cls-16 {
        fill: #8a8a8a;
      }

      .cls-17 {
        fill: #9d9d9d;
      }

      .cls-18 {
        fill: #9e9e9e;
      }

      .cls-19 {
        fill: #8d8d8d;
      }

      .cls-20 {
        fill: #8c8c8c;
      }

      .cls-21 {
        fill: #939393;
      }

      .cls-22 {
        fill: #858585;
      }

      .cls-23 {
        fill: #acacac;
      }

      .cls-24 {
        fill: #a9a9a9;
      }

      .cls-25 {
        fill: #a6a6a6;
      }

      .cls-26 {
        fill: #aaa;
      }

      .cls-27 {
        fill: #a7a7a7;
      }

      .cls-28 {
        fill: #a5a5a5;
      }

      .cls-29 {
        fill: #a4a4a4;
      }

      .cls-30 {
        fill: #ababab;
      }

      .cls-31 {
        fill: #a8a8a8;
      }

      .cls-32 {
        fill: #a3a3a3;
      }

      .cls-33 {
        fill: #9b9b9b;
      }

      .cls-34 {
        fill: #949494;
      }

      .cls-35 {
        fill: #a2a2a2;
      }

      .cls-36 {
        fill: #868686;
      }

      .cls-37 {
        fill: #9a9a9a;
      }

      .cls-38 {
        fill: #898989;
      }

      .cls-39 {
        fill: #888;
      }

      .cls-40 {
        fill: #878787;
      }

      .cls-41 {
        fill: gray;
      }

      .cls-42 {
        fill: #838383;
      }

      .cls-43 {
        fill: #767676;
      }

      .cls-44 {
        fill: #777;
      }

      .cls-45 {
        fill: #797979;
      }

      .cls-46 {
        fill: #787878;
      }

      .cls-47 {
        fill: #828282;
      }

      .cls-48 {
        fill: #757575;
      }

      .cls-49 {
        fill: #7b7b7b;
      }
    </style>
  </defs>
  <g id="MENU-OFERTA">
    <g id="back_01" class="cls-1">
      <g>
        <polygon class="cls-30" points="866.31 873.13 954.86 822.42 866.31 771.71 866.31 873.13"/>
        <polygon class="cls-30" points="770.05 928.26 858.61 877.54 770.05 826.83 770.05 928.26"/>
        <polygon class="cls-27" points="868.88 767.3 957.43 818.01 957.43 716.59 868.88 767.3"/>
        <polygon class="cls-12" points="965.13 822.42 1053.69 873.13 1053.69 771.71 965.13 822.42"/>
        <polygon class="cls-35" points="772.62 712.18 861.18 762.89 861.18 661.47 772.62 712.18"/>
        <polygon class="cls-32" points="866.31 762.89 954.86 712.18 866.31 661.47 866.31 762.89"/>
        <polygon class="cls-35" points="965.13 712.18 1053.69 762.89 1053.69 661.47 965.13 712.18"/>
        <polygon class="cls-30" points="676.37 767.3 764.92 818.01 764.92 716.59 676.37 767.3"/>
        <polygon class="cls-15" points="770.05 707.77 858.61 657.05 770.05 606.34 770.05 707.77"/>
        <polygon class="cls-24" points="868.88 657.05 957.43 707.77 957.43 606.34 868.88 657.05"/>
        <polygon class="cls-31" points="1058.82 762.89 1147.38 712.18 1058.82 661.47 1058.82 762.89"/>
        <polygon class="cls-28" points="1155.08 928.26 1243.64 877.54 1155.08 826.83 1155.08 928.26"/>
        <polygon class="cls-30" points="600.58 822.42 648.19 849.68 648.19 795.16 600.58 822.42"/>
        <polygon class="cls-26" points="673.8 762.89 762.35 712.18 673.8 661.47 673.8 762.89"/>
        <polygon class="cls-12" points="676.37 657.05 764.92 707.77 764.92 606.34 676.37 657.05"/>
        <polygon class="cls-10" points="772.62 601.93 861.18 652.64 861.18 551.22 772.62 601.93"/>
        <polygon class="cls-11" points="874.03 635 931.78 601.93 874.03 568.86 874.03 635"/>
        <polygon class="cls-35" points="965.13 601.93 1053.69 652.64 1053.69 551.22 965.13 601.93"/>
        <polygon class="cls-26" points="1058.82 652.64 1147.38 601.93 1058.82 551.22 1058.82 652.64"/>
        <polygon class="cls-23" points="1155.08 818.01 1243.64 767.3 1155.08 716.59 1155.08 818.01"/>
        <polygon class="cls-32" points="1157.65 932.66 1246.2 983.38 1246.2 881.95 1157.65 932.66"/>
        <polygon class="cls-33" points="673.8 652.64 762.35 601.93 673.8 551.22 673.8 652.64"/>
        <polygon class="cls-42" points="676.37 546.81 764.92 597.52 764.92 496.1 676.37 546.81"/>
        <polygon class="cls-20" points="770.05 597.52 858.61 546.81 770.05 496.1 770.05 597.52"/>
        <polygon class="cls-39" points="868.88 546.81 957.43 597.52 957.43 496.1 868.88 546.81"/>
        <polygon class="cls-13" points="962.57 597.52 1051.12 546.81 962.57 496.1 962.57 597.52"/>
        <polygon class="cls-18" points="1155.08 707.77 1243.64 657.05 1155.08 606.34 1155.08 707.77"/>
        <polygon class="cls-17" points="1157.65 712.18 1246.2 762.89 1246.2 661.47 1157.65 712.18"/>
        <polygon class="cls-6" points="481.28 873.13 569.84 822.42 481.28 771.71 481.28 873.13"/>
        <polygon class="cls-26" points="483.85 767.3 572.41 818.01 572.41 716.59 483.85 767.3"/>
        <polygon class="cls-25" points="577.54 707.77 666.1 657.05 577.54 606.34 577.54 707.77"/>
        <polygon class="cls-7" points="580.1 601.93 668.67 652.64 668.67 551.22 580.1 601.93"/>
        <polygon class="cls-40" points="673.8 542.4 762.35 491.69 673.8 440.98 673.8 542.4"/>
        <polygon class="cls-40" points="772.62 491.69 861.18 542.4 861.18 440.98 772.62 491.69"/>
        <polygon class="cls-14" points="866.31 542.4 954.86 491.69 866.31 440.98 866.31 542.4"/>
        <polygon class="cls-14" points="965.13 491.69 1053.69 542.4 1053.69 440.98 965.13 491.69"/>
        <polygon class="cls-38" points="1058.82 542.4 1147.38 491.69 1058.82 440.98 1058.82 542.4"/>
        <polygon class="cls-17" points="1155.08 597.52 1243.64 546.81 1155.08 496.1 1155.08 597.52"/>
        <polygon class="cls-17" points="1157.65 601.93 1246.2 652.64 1246.2 551.22 1157.65 601.93"/>
        <polygon class="cls-27" points="1264.49 736.1 1306.26 712.18 1264.49 688.26 1264.49 736.1"/>
        <polygon class="cls-26" points="1253.9 767.3 1342.46 818.01 1342.46 716.59 1253.9 767.3"/>
        <polygon class="cls-30" points="385.03 928.26 473.58 877.54 385.03 826.83 385.03 928.26"/>
        <polygon class="cls-25" points="483.85 657.05 572.41 707.77 572.41 606.34 483.85 657.05"/>
        <polygon class="cls-25" points="577.54 597.52 666.1 546.81 577.54 496.1 577.54 597.52"/>
        <polygon class="cls-36" points="580.1 491.69 668.67 542.4 668.67 440.98 580.1 491.69"/>
        <polygon class="cls-16" points="676.37 436.57 764.92 487.28 764.92 385.85 676.37 436.57"/>
        <polygon class="cls-22" points="770.05 487.28 858.61 436.57 770.05 385.85 770.05 487.28"/>
        <polygon class="cls-49" points="868.88 436.57 957.43 487.28 957.43 385.85 868.88 436.57"/>
        <polygon class="cls-5" points="962.57 487.28 1051.12 436.57 962.57 385.85 962.57 487.28"/>
        <polygon class="cls-40" points="1080.34 436.57 1139.54 470.47 1139.54 402.67 1080.34 436.57"/>
        <polygon class="cls-47" points="1155.08 487.28 1243.64 436.57 1155.08 385.85 1155.08 487.28"/>
        <polygon class="cls-38" points="1157.65 491.69 1246.2 542.4 1246.2 440.98 1157.65 491.69"/>
        <polygon class="cls-28" points="1251.34 652.64 1339.89 601.93 1251.34 551.22 1251.34 652.64"/>
        <polygon class="cls-32" points="1253.9 657.05 1342.46 707.77 1342.46 606.34 1253.9 657.05"/>
        <polygon class="cls-23" points="1350.16 822.42 1438.72 873.13 1438.72 771.71 1350.16 822.42"/>
        <polygon class="cls-12" points="1347.59 1038.5 1436.15 987.79 1347.59 937.07 1347.59 1038.5"/>
        <polygon class="cls-38" points="481.28 652.64 569.84 601.93 481.28 551.22 481.28 652.64"/>
        <polygon class="cls-40" points="483.85 546.81 572.41 597.52 572.41 496.1 483.85 546.81"/>
        <polygon class="cls-42" points="577.54 487.28 666.1 436.57 577.54 385.85 577.54 487.28"/>
        <polygon class="cls-43" points="866.31 432.16 954.86 381.45 866.31 330.73 866.31 432.16"/>
        <polygon class="cls-49" points="965.13 381.45 1053.69 432.16 1053.69 330.73 965.13 381.45"/>
        <polygon class="cls-49" points="1058.82 432.16 1147.38 381.45 1058.82 330.73 1058.82 432.16"/>
        <polygon class="cls-5" points="1157.65 381.45 1246.2 432.16 1246.2 330.73 1157.65 381.45"/>
        <polygon class="cls-39" points="1251.34 542.4 1339.89 491.69 1251.34 440.98 1251.34 542.4"/>
        <polygon class="cls-42" points="1253.9 546.81 1342.46 597.52 1342.46 496.1 1253.9 546.81"/>
        <polygon class="cls-31" points="1347.59 707.77 1436.15 657.05 1347.59 606.34 1347.59 707.77"/>
        <polygon class="cls-27" points="1350.16 712.18 1438.72 762.89 1438.72 661.47 1350.16 712.18"/>
        <polygon class="cls-17" points="385.03 707.77 473.58 657.05 385.03 606.34 385.03 707.77"/>
        <polygon class="cls-34" points="387.59 601.93 476.15 652.64 476.15 551.22 387.59 601.93"/>
        <polygon class="cls-3" points="481.28 542.4 569.84 491.69 481.28 440.98 481.28 542.4"/>
        <polygon class="cls-45" points="483.85 436.57 572.41 487.28 572.41 385.85 483.85 436.57"/>
        <polygon class="cls-8" points="577.54 377.04 666.1 326.32 577.54 275.61 577.54 377.04"/>
        <polygon class="cls-48" points="1061.39 326.32 1149.95 377.04 1149.95 275.61 1061.39 326.32"/>
        <polygon class="cls-42" points="1251.34 432.16 1339.89 381.45 1251.34 330.73 1251.34 432.16"/>
        <polygon class="cls-9" points="1347.59 597.52 1436.15 546.81 1347.59 496.1 1347.59 597.52"/>
        <polygon class="cls-37" points="1350.16 601.93 1438.72 652.64 1438.72 551.22 1350.16 601.93"/>
        <polygon class="cls-30" points="1443.85 762.89 1532.41 712.18 1443.85 661.47 1443.85 762.89"/>
        <polygon class="cls-32" points="1446.42 767.3 1534.97 818.01 1534.97 716.59 1446.42 767.3"/>
        <polygon class="cls-23" points="291.34 657.05 379.89 707.77 379.89 606.34 291.34 657.05"/>
        <polygon class="cls-20" points="385.03 597.52 473.58 546.81 385.03 496.1 385.03 597.52"/>
        <polygon class="cls-3" points="387.59 491.69 476.15 542.4 476.15 440.98 387.59 491.69"/>
        <polygon class="cls-44" points="483.85 326.32 572.41 377.04 572.41 275.61 483.85 326.32"/>
        <polygon class="cls-44" points="965.13 271.2 1053.69 321.91 1053.69 220.49 965.13 271.2"/>
        <polygon class="cls-8" points="1253.9 326.32 1342.46 377.04 1342.46 275.61 1253.9 326.32"/>
        <polygon class="cls-49" points="1347.59 487.28 1436.15 436.57 1347.59 385.85 1347.59 487.28"/>
        <polygon class="cls-16" points="1350.16 491.69 1438.72 542.4 1438.72 440.98 1350.16 491.69"/>
        <polygon class="cls-11" points="1443.85 652.64 1532.41 601.93 1443.85 551.22 1443.85 652.64"/>
        <polygon class="cls-24" points="1540.11 818.01 1628.66 767.3 1540.11 716.59 1540.11 818.01"/>
        <polygon class="cls-29" points="1542.67 822.42 1631.23 873.13 1631.23 771.71 1542.67 822.42"/>
        <polygon class="cls-15" points="288.77 652.64 377.33 601.93 288.77 551.22 288.77 652.64"/>
        <polygon class="cls-34" points="291.34 546.81 379.89 597.52 379.89 496.1 291.34 546.81"/>
        <polygon class="cls-48" points="385.03 487.28 473.58 436.57 385.03 385.85 385.03 487.28"/>
        <polygon class="cls-49" points="387.59 381.45 476.15 432.16 476.15 330.73 387.59 381.45"/>
        <polygon class="cls-5" points="1350.16 381.45 1438.72 432.16 1438.72 330.73 1350.16 381.45"/>
        <polygon class="cls-22" points="1443.85 542.4 1532.41 491.69 1443.85 440.98 1443.85 542.4"/>
        <polygon class="cls-21" points="1446.42 546.81 1534.97 597.52 1534.97 496.1 1446.42 546.81"/>
        <polygon class="cls-25" points="1540.11 707.77 1628.66 657.05 1540.11 606.34 1540.11 707.77"/>
        <polygon class="cls-31" points="1542.67 712.18 1631.23 762.89 1631.23 661.47 1542.67 712.18"/>
        <polygon class="cls-30" points="1636.36 873.13 1724.92 822.42 1636.36 771.71 1636.36 873.13"/>
        <polygon class="cls-28" points="98.82 767.3 187.38 818.01 187.38 716.59 98.82 767.3"/>
        <polygon class="cls-32" points="192.52 707.77 281.07 657.05 192.52 606.34 192.52 707.77"/>
        <polygon class="cls-10" points="195.08 601.93 283.64 652.64 283.64 551.22 195.08 601.93"/>
        <polygon class="cls-40" points="288.77 542.4 377.33 491.69 288.77 440.98 288.77 542.4"/>
        <polygon class="cls-48" points="291.34 436.57 379.89 487.28 379.89 385.85 291.34 436.57"/>
        <polygon class="cls-2" points="385.03 377.04 473.58 326.32 385.03 275.61 385.03 377.04"/>
        <polygon class="cls-39" points="1443.85 432.16 1532.41 381.45 1443.85 330.73 1443.85 432.16"/>
        <polygon class="cls-49" points="1446.42 436.57 1534.97 487.28 1534.97 385.85 1446.42 436.57"/>
        <polygon class="cls-20" points="1540.11 597.52 1628.66 546.81 1540.11 496.1 1540.11 597.52"/>
        <polygon class="cls-25" points="1542.67 601.93 1631.23 652.64 1631.23 551.22 1542.67 601.93"/>
        <polygon class="cls-26" points="96.26 762.89 184.81 712.18 96.26 661.47 96.26 762.89"/>
        <polygon class="cls-30" points="98.82 657.05 187.38 707.77 187.38 606.34 98.82 657.05"/>
        <polygon class="cls-16" points="192.52 597.52 281.07 546.81 192.52 496.1 192.52 597.52"/>
        <polygon class="cls-38" points="195.08 491.69 283.64 542.4 283.64 440.98 195.08 491.69"/>
        <polygon class="cls-20" points="288.77 432.16 377.33 381.45 288.77 330.73 288.77 432.16"/>
        <polygon class="cls-49" points="320.01 326.32 361.47 350.07 361.47 302.58 320.01 326.32"/>
        <polygon class="cls-34" points="1347.59 156.55 1436.15 105.84 1347.59 55.12 1347.59 156.55"/>
        <polygon class="cls-16" points="1350.16 160.96 1438.72 211.67 1438.72 110.24 1350.16 160.96"/>
        <polygon class="cls-43" points="1446.42 326.32 1534.97 377.04 1534.97 275.61 1446.42 326.32"/>
        <polygon class="cls-22" points="1540.11 535.28 1628.66 484.57 1540.11 433.85 1540.11 535.28"/>
        <polygon class="cls-14" points="1542.67 491.69 1631.23 542.4 1631.23 440.98 1542.67 491.69"/>
        <polygon class="cls-17" points="1636.36 652.64 1724.92 601.93 1636.36 551.22 1636.36 652.64"/>
        <polygon class="cls-16" points="98.82 546.81 187.38 597.52 187.38 496.1 98.82 546.81"/>
        <polygon class="cls-3" points="192.52 487.28 281.07 436.57 192.52 385.85 192.52 487.28"/>
        <polygon class="cls-2" points="195.08 381.45 283.64 432.16 283.64 330.73 195.08 381.45"/>
        <polygon class="cls-49" points="288.77 321.91 377.33 271.2 288.77 220.49 288.77 321.91"/>
        <polygon class="cls-44" points="1251.34 101.43 1339.89 50.71 1251.34 0 1251.34 101.43"/>
        <polygon class="cls-46" points="1443.85 211.67 1532.41 160.96 1443.85 110.24 1443.85 211.67"/>
        <polygon class="cls-41" points="1540.11 377.04 1628.66 326.32 1540.11 275.61 1540.11 377.04"/>
        <polygon class="cls-22" points="1542.67 381.45 1631.23 432.16 1631.23 330.73 1542.67 381.45"/>
        <polygon class="cls-41" points="1636.36 542.4 1724.92 491.69 1636.36 440.98 1636.36 542.4"/>
        <polygon class="cls-15" points="1638.93 546.81 1727.49 597.52 1727.49 496.1 1638.93 546.81"/>
        <polygon class="cls-29" points="1732.62 707.77 1821.18 657.05 1732.62 606.34 1732.62 707.77"/>
        <polygon class="cls-26" points="1828.88 873.13 1917.43 822.42 1828.88 771.71 1828.88 873.13"/>
        <polygon class="cls-31" points="0 707.77 88.56 657.05 0 606.34 0 707.77"/>
        <polygon class="cls-32" points="2.57 601.93 91.12 652.64 91.12 551.22 2.57 601.93"/>
        <polygon class="cls-16" points="96.26 542.4 184.81 491.69 96.26 440.98 96.26 542.4"/>
        <polygon class="cls-41" points="98.82 436.57 187.38 487.28 187.38 385.85 98.82 436.57"/>
        <polygon class="cls-19" points="1636.36 432.16 1724.92 381.45 1636.36 330.73 1636.36 432.16"/>
        <polygon class="cls-42" points="1638.93 436.57 1727.49 487.28 1727.49 385.85 1638.93 436.57"/>
        <polygon class="cls-34" points="1732.62 597.52 1821.18 546.81 1732.62 496.1 1732.62 597.52"/>
        <polygon class="cls-31" points="1760.08 601.93 1814.2 632.92 1814.2 570.94 1760.08 601.93"/>
        <polygon class="cls-26" points="1831.44 767.3 1920 818.01 1920 716.59 1831.44 767.3"/>
        <polygon class="cls-19" points="0 597.52 88.56 546.81 0 496.1 0 597.52"/>
        <polygon class="cls-14" points="2.57 491.69 91.12 542.4 91.12 440.98 2.57 491.69"/>
        <polygon class="cls-39" points="96.26 432.16 184.81 381.45 96.26 330.73 96.26 432.16"/>
        <polygon class="cls-41" points="98.82 326.32 187.38 377.04 187.38 275.61 98.82 326.32"/>
        <polygon class="cls-44" points="1542.67 160.96 1631.23 211.67 1631.23 110.24 1542.67 160.96"/>
        <polygon class="cls-40" points="1656.32 299.06 1704.96 271.2 1656.32 243.34 1656.32 299.06"/>
        <polygon class="cls-16" points="1638.93 326.32 1727.49 377.04 1727.49 275.61 1638.93 326.32"/>
        <polygon class="cls-8" points="1732.62 487.28 1821.18 436.57 1732.62 385.85 1732.62 487.28"/>
        <polygon class="cls-20" points="1735.18 491.69 1823.74 542.4 1823.74 440.98 1735.18 491.69"/>
        <polygon class="cls-29" points="1828.88 652.64 1917.43 601.93 1828.88 551.22 1828.88 652.64"/>
        <polygon class="cls-41" points="0 487.28 88.56 436.57 0 385.85 0 487.28"/>
        <polygon class="cls-39" points="2.57 381.45 91.12 432.16 91.12 330.73 2.57 381.45"/>
        <polygon class="cls-42" points="96.26 321.91 184.81 271.2 96.26 220.49 96.26 321.91"/>
        <polygon class="cls-9" points="1732.62 377.04 1821.18 326.32 1732.62 275.61 1732.62 377.04"/>
        <polygon class="cls-39" points="1735.18 381.45 1823.74 432.16 1823.74 330.73 1735.18 381.45"/>
        <polygon class="cls-20" points="1828.88 542.4 1917.43 491.69 1828.88 440.98 1828.88 542.4"/>
        <polygon class="cls-11" points="1831.44 546.81 1920 597.52 1920 496.1 1831.44 546.81"/>
        <polygon class="cls-5" points="0 377.04 88.56 326.32 0 275.61 0 377.04"/>
        <polygon class="cls-40" points="1841.74 408.63 1889.21 381.45 1841.74 354.26 1841.74 408.63"/>
        <polygon class="cls-36" points="1831.44 436.57 1920 487.28 1920 385.85 1831.44 436.57"/>
        <polygon class="cls-49" points="1735.18 160.96 1823.74 211.67 1823.74 110.24 1735.18 160.96"/>
        <polygon class="cls-41" points="1828.88 321.91 1917.43 271.2 1828.88 220.49 1828.88 321.91"/>
        <polygon class="cls-41" points="1831.44 326.32 1920 377.04 1920 275.61 1831.44 326.32"/>
        <polygon class="cls-4" points="2.57 50.71 91.12 101.43 91.12 0 2.57 50.71"/>
        <polygon class="cls-20" points="1828.88 211.67 1917.43 160.96 1828.88 110.24 1828.88 211.67"/>
        <polygon class="cls-45" points="1831.44 216.08 1920 266.79 1920 165.37 1831.44 216.08"/>
      </g>
    </g>
  </g>
</svg>