<?xml version="1.0" encoding="UTF-8"?>
<svg id="Layer_2" data-name="Layer 2" xmlns="http://www.w3.org/2000/svg" xmlns:xlink="http://www.w3.org/1999/xlink" viewBox="0 0 1920 928.25">
  <defs>
    <style>
      .cls-1, .cls-2 {
        fill: #fff;
      }

      .cls-3 {
        opacity: .15;
      }

      
    </style>
    <filter id="drop-shadow-1" filterUnits="userSpaceOnUse">
      <feOffset dx="7" dy="7"/>
      <feGaussianBlur result="blur" stdDeviation="5"/>
      <feFlood flood-color="#424242" flood-opacity=".5"/>
      <feComposite in2="blur" operator="in"/>
      <feComposite in="SourceGraphic"/>
    </filter>
  </defs>
  <g id="C-CAZARE">
    <g id="back_clip_wide">
      <g id="back_02" class="cls-3">
        <g>
          <g>
            <polygon class="cls-1" points="866.31 762.89 954.86 712.18 866.31 661.47 866.31 762.89"/>
            <polygon class="cls-1" points="770.05 818.01 858.61 767.3 770.05 716.58 770.05 818.01"/>
            <polygon class="cls-1" points="868.88 657.05 957.43 707.77 957.43 606.34 868.88 657.05"/>
            <polygon class="cls-1" points="965.13 712.18 1053.69 762.89 1053.69 661.47 965.13 712.18"/>
            <polygon class="cls-1" points="772.62 601.93 861.18 652.65 861.18 551.22 772.62 601.93"/>
            <polygon class="cls-1" points="866.31 652.65 954.86 601.93 866.31 551.22 866.31 652.65"/>
            <polygon class="cls-1" points="965.13 601.93 1053.69 652.65 1053.69 551.22 965.13 601.93"/>
            <polygon class="cls-1" points="676.37 657.05 764.92 707.77 764.92 606.34 676.37 657.05"/>
            <polygon class="cls-1" points="770.05 597.52 858.61 546.81 770.05 496.1 770.05 597.52"/>
            <polygon class="cls-1" points="868.88 546.81 957.43 597.52 957.43 496.1 868.88 546.81"/>
            <polygon class="cls-1" points="1058.82 652.65 1147.38 601.93 1058.82 551.22 1058.82 652.65"/>
            <polygon class="cls-1" points="1155.08 818.01 1243.64 767.3 1155.08 716.58 1155.08 818.01"/>
            <polygon class="cls-1" points="600.58 712.18 648.19 739.43 648.19 684.92 600.58 712.18"/>
            <polygon class="cls-1" points="673.8 652.65 762.35 601.93 673.8 551.22 673.8 652.65"/>
            <polygon class="cls-1" points="676.37 546.81 764.92 597.52 764.92 496.1 676.37 546.81"/>
            <polygon class="cls-1" points="772.62 491.69 861.18 542.4 861.18 440.98 772.62 491.69"/>
            <polygon class="cls-1" points="874.03 524.76 931.78 491.69 874.03 458.62 874.03 524.76"/>
            <polygon class="cls-1" points="965.13 491.69 1053.69 542.4 1053.69 440.98 965.13 491.69"/>
            <polygon class="cls-1" points="1058.82 542.4 1147.38 491.69 1058.82 440.98 1058.82 542.4"/>
            <polygon class="cls-1" points="1155.08 707.77 1243.64 657.05 1155.08 606.34 1155.08 707.77"/>
            <polygon class="cls-1" points="1157.65 822.42 1246.2 873.14 1246.2 771.71 1157.65 822.42"/>
            <polygon class="cls-1" points="673.8 542.4 762.35 491.69 673.8 440.98 673.8 542.4"/>
            <polygon class="cls-1" points="676.37 436.57 764.92 487.28 764.92 385.85 676.37 436.57"/>
            <polygon class="cls-1" points="770.05 487.28 858.61 436.57 770.05 385.85 770.05 487.28"/>
            <polygon class="cls-1" points="868.88 436.57 957.43 487.28 957.43 385.85 868.88 436.57"/>
            <polygon class="cls-1" points="962.57 487.28 1051.12 436.57 962.57 385.85 962.57 487.28"/>
            <polygon class="cls-1" points="1155.08 597.52 1243.64 546.81 1155.08 496.1 1155.08 597.52"/>
            <polygon class="cls-1" points="1157.65 601.93 1246.2 652.65 1246.2 551.22 1157.65 601.93"/>
            <polygon class="cls-1" points="481.28 762.89 569.84 712.18 481.28 661.47 481.28 762.89"/>
            <polygon class="cls-1" points="483.85 657.05 572.41 707.77 572.41 606.34 483.85 657.05"/>
            <polygon class="cls-1" points="577.54 597.52 666.1 546.81 577.54 496.1 577.54 597.52"/>
            <polygon class="cls-1" points="580.1 491.69 668.67 542.4 668.67 440.98 580.1 491.69"/>
            <polygon class="cls-1" points="673.8 432.16 762.35 381.45 673.8 330.73 673.8 432.16"/>
            <polygon class="cls-1" points="772.62 381.45 861.18 432.16 861.18 330.73 772.62 381.45"/>
            <polygon class="cls-1" points="866.31 432.16 954.86 381.45 866.31 330.73 866.31 432.16"/>
            <polygon class="cls-1" points="965.13 381.45 1053.69 432.16 1053.69 330.73 965.13 381.45"/>
            <polygon class="cls-1" points="1058.82 432.16 1147.38 381.45 1058.82 330.73 1058.82 432.16"/>
            <polygon class="cls-1" points="1155.08 487.28 1243.64 436.57 1155.08 385.85 1155.08 487.28"/>
            <polygon class="cls-1" points="1157.65 491.69 1246.2 542.4 1246.2 440.98 1157.65 491.69"/>
            <polygon class="cls-1" points="1264.49 625.85 1306.26 601.93 1264.49 578.01 1264.49 625.85"/>
            <polygon class="cls-1" points="1253.9 657.05 1342.46 707.77 1342.46 606.34 1253.9 657.05"/>
            <polygon class="cls-1" points="385.03 818.01 473.58 767.3 385.03 716.58 385.03 818.01"/>
            <polygon class="cls-1" points="483.85 546.81 572.41 597.52 572.41 496.1 483.85 546.81"/>
            <polygon class="cls-1" points="577.54 487.28 666.1 436.57 577.54 385.85 577.54 487.28"/>
            <polygon class="cls-1" points="580.1 381.45 668.67 432.16 668.67 330.73 580.1 381.45"/>
            <polygon class="cls-1" points="676.37 326.32 764.92 377.04 764.92 275.61 676.37 326.32"/>
            <polygon class="cls-1" points="770.05 377.04 858.61 326.32 770.05 275.61 770.05 377.04"/>
            <polygon class="cls-1" points="868.88 326.32 957.43 377.04 957.43 275.61 868.88 326.32"/>
            <polygon class="cls-1" points="962.57 377.04 1051.12 326.32 962.57 275.61 962.57 377.04"/>
            <polygon class="cls-1" points="1080.34 326.32 1139.54 360.22 1139.54 292.42 1080.34 326.32"/>
            <polygon class="cls-1" points="1155.08 377.04 1243.64 326.32 1155.08 275.61 1155.08 377.04"/>
            <polygon class="cls-1" points="1157.65 381.45 1246.2 432.16 1246.2 330.73 1157.65 381.45"/>
            <polygon class="cls-1" points="1251.34 542.4 1339.89 491.69 1251.34 440.98 1251.34 542.4"/>
            <polygon class="cls-1" points="1253.9 546.81 1342.46 597.52 1342.46 496.1 1253.9 546.81"/>
            <polygon class="cls-1" points="1350.16 712.18 1438.72 762.89 1438.72 661.47 1350.16 712.18"/>
            <polygon class="cls-1" points="1347.59 928.25 1436.15 877.54 1347.59 826.83 1347.59 928.25"/>
            <polygon class="cls-1" points="481.28 542.4 569.84 491.69 481.28 440.98 481.28 542.4"/>
            <polygon class="cls-1" points="483.85 436.57 572.41 487.28 572.41 385.85 483.85 436.57"/>
            <polygon class="cls-1" points="577.54 377.04 666.1 326.32 577.54 275.61 577.54 377.04"/>
            <polygon class="cls-1" points="866.31 321.91 954.86 271.2 866.31 220.49 866.31 321.91"/>
            <polygon class="cls-1" points="965.13 271.2 1053.69 321.91 1053.69 220.49 965.13 271.2"/>
            <polygon class="cls-1" points="1058.82 321.91 1147.38 271.2 1058.82 220.49 1058.82 321.91"/>
            <polygon class="cls-1" points="1157.65 271.2 1246.2 321.91 1246.2 220.49 1157.65 271.2"/>
            <polygon class="cls-1" points="1251.34 432.16 1339.89 381.45 1251.34 330.73 1251.34 432.16"/>
            <polygon class="cls-1" points="1253.9 436.57 1342.46 487.28 1342.46 385.85 1253.9 436.57"/>
            <polygon class="cls-1" points="1347.59 597.52 1436.15 546.81 1347.59 496.1 1347.59 597.52"/>
            <polygon class="cls-1" points="1350.16 601.93 1438.72 652.65 1438.72 551.22 1350.16 601.93"/>
            <polygon class="cls-1" points="385.03 597.52 473.58 546.81 385.03 496.1 385.03 597.52"/>
            <polygon class="cls-1" points="387.59 491.69 476.15 542.4 476.15 440.98 387.59 491.69"/>
            <polygon class="cls-1" points="481.28 432.16 569.84 381.45 481.28 330.73 481.28 432.16"/>
            <polygon class="cls-1" points="483.85 326.32 572.41 377.04 572.41 275.61 483.85 326.32"/>
            <polygon class="cls-1" points="577.54 266.79 666.1 216.08 577.54 165.37 577.54 266.79"/>
            <polygon class="cls-1" points="1061.39 216.08 1149.95 266.79 1149.95 165.37 1061.39 216.08"/>
            <polygon class="cls-1" points="1251.34 321.91 1339.89 271.2 1251.34 220.49 1251.34 321.91"/>
            <polygon class="cls-1" points="1347.59 487.28 1436.15 436.57 1347.59 385.85 1347.59 487.28"/>
            <polygon class="cls-1" points="1350.16 491.69 1438.72 542.4 1438.72 440.98 1350.16 491.69"/>
            <polygon class="cls-1" points="1443.85 652.65 1532.41 601.93 1443.85 551.22 1443.85 652.65"/>
            <polygon class="cls-1" points="1446.42 657.05 1534.97 707.77 1534.97 606.34 1446.42 657.05"/>
            <polygon class="cls-1" points="291.34 546.81 379.89 597.52 379.89 496.1 291.34 546.81"/>
            <polygon class="cls-1" points="385.03 487.28 473.58 436.57 385.03 385.85 385.03 487.28"/>
            <polygon class="cls-1" points="387.59 381.45 476.15 432.16 476.15 330.73 387.59 381.45"/>
            <polygon class="cls-1" points="483.85 216.08 572.41 266.79 572.41 165.37 483.85 216.08"/>
            <polygon class="cls-1" points="965.13 160.96 1053.69 211.67 1053.69 110.24 965.13 160.96"/>
            <polygon class="cls-1" points="1253.9 216.08 1342.46 266.79 1342.46 165.37 1253.9 216.08"/>
            <polygon class="cls-1" points="1347.59 377.04 1436.15 326.32 1347.59 275.61 1347.59 377.04"/>
            <polygon class="cls-1" points="1350.16 381.45 1438.72 432.16 1438.72 330.73 1350.16 381.45"/>
            <polygon class="cls-1" points="1443.85 542.4 1532.41 491.69 1443.85 440.98 1443.85 542.4"/>
            <polygon class="cls-1" points="1540.11 707.77 1628.66 657.05 1540.11 606.34 1540.11 707.77"/>
            <polygon class="cls-1" points="1542.67 712.18 1631.23 762.89 1631.23 661.47 1542.67 712.18"/>
            <polygon class="cls-1" points="288.77 542.4 377.33 491.69 288.77 440.98 288.77 542.4"/>
            <polygon class="cls-1" points="291.34 436.57 379.89 487.28 379.89 385.85 291.34 436.57"/>
            <polygon class="cls-1" points="385.03 377.04 473.58 326.32 385.03 275.61 385.03 377.04"/>
            <polygon class="cls-1" points="387.59 271.2 476.15 321.91 476.15 220.49 387.59 271.2"/>
            <polygon class="cls-1" points="1350.16 271.2 1438.72 321.91 1438.72 220.49 1350.16 271.2"/>
            <polygon class="cls-1" points="1443.85 432.16 1532.41 381.45 1443.85 330.73 1443.85 432.16"/>
            <polygon class="cls-1" points="1446.42 436.57 1534.97 487.28 1534.97 385.85 1446.42 436.57"/>
            <polygon class="cls-1" points="1540.11 597.52 1628.66 546.81 1540.11 496.1 1540.11 597.52"/>
            <polygon class="cls-1" points="1542.67 601.93 1631.23 652.65 1631.23 551.22 1542.67 601.93"/>
            <polygon class="cls-1" points="1636.36 762.89 1724.92 712.18 1636.36 661.47 1636.36 762.89"/>
            <polygon class="cls-1" points="98.82 657.05 187.38 707.77 187.38 606.34 98.82 657.05"/>
            <polygon class="cls-1" points="192.52 597.52 281.07 546.81 192.52 496.1 192.52 597.52"/>
            <polygon class="cls-1" points="195.08 491.69 283.64 542.4 283.64 440.98 195.08 491.69"/>
            <polygon class="cls-1" points="288.77 432.16 377.33 381.45 288.77 330.73 288.77 432.16"/>
            <polygon class="cls-1" points="291.34 326.32 379.89 377.04 379.89 275.61 291.34 326.32"/>
            <polygon class="cls-1" points="385.03 266.79 473.58 216.08 385.03 165.37 385.03 266.79"/>
            <polygon class="cls-1" points="1443.85 321.91 1532.41 271.2 1443.85 220.49 1443.85 321.91"/>
            <polygon class="cls-1" points="1446.42 326.32 1534.97 377.04 1534.97 275.61 1446.42 326.32"/>
            <polygon class="cls-1" points="1540.11 487.28 1628.66 436.57 1540.11 385.85 1540.11 487.28"/>
            <polygon class="cls-1" points="1542.67 491.69 1631.23 542.4 1631.23 440.98 1542.67 491.69"/>
            <polygon class="cls-1" points="96.26 652.65 184.81 601.93 96.26 551.22 96.26 652.65"/>
            <polygon class="cls-1" points="98.82 546.81 187.38 597.52 187.38 496.1 98.82 546.81"/>
            <polygon class="cls-1" points="192.52 487.28 281.07 436.57 192.52 385.85 192.52 487.28"/>
            <polygon class="cls-1" points="195.08 381.45 283.64 432.16 283.64 330.73 195.08 381.45"/>
            <polygon class="cls-1" points="288.77 321.91 377.33 271.2 288.77 220.49 288.77 321.91"/>
            <polygon class="cls-1" points="320.01 216.08 361.47 239.82 361.47 192.34 320.01 216.08"/>
            <polygon class="cls-1" points="1350.16 50.71 1438.72 101.43 1438.72 0 1350.16 50.71"/>
            <polygon class="cls-1" points="1446.42 216.08 1534.97 266.79 1534.97 165.37 1446.42 216.08"/>
            <polygon class="cls-1" points="1540.11 377.04 1628.66 326.32 1540.11 275.61 1540.11 377.04"/>
            <polygon class="cls-1" points="1542.67 381.45 1631.23 432.16 1631.23 330.73 1542.67 381.45"/>
            <polygon class="cls-1" points="1636.36 542.4 1724.92 491.69 1636.36 440.98 1636.36 542.4"/>
            <polygon class="cls-1" points="98.82 436.57 187.38 487.28 187.38 385.85 98.82 436.57"/>
            <polygon class="cls-1" points="192.52 377.04 281.07 326.32 192.52 275.61 192.52 377.04"/>
            <polygon class="cls-1" points="195.08 271.2 283.64 321.91 283.64 220.49 195.08 271.2"/>
            <polygon class="cls-1" points="288.77 211.67 377.33 160.96 288.77 110.24 288.77 211.67"/>
            <polygon class="cls-1" points="1443.85 101.43 1532.41 50.71 1443.85 0 1443.85 101.43"/>
            <polygon class="cls-1" points="1540.11 266.79 1628.66 216.08 1540.11 165.37 1540.11 266.79"/>
            <polygon class="cls-1" points="1542.67 271.2 1631.23 321.91 1631.23 220.49 1542.67 271.2"/>
            <polygon class="cls-1" points="1636.36 432.16 1724.92 381.45 1636.36 330.73 1636.36 432.16"/>
            <polygon class="cls-1" points="1638.93 436.57 1727.49 487.28 1727.49 385.85 1638.93 436.57"/>
            <polygon class="cls-1" points="1732.62 597.52 1821.18 546.81 1732.62 496.1 1732.62 597.52"/>
            <polygon class="cls-1" points="1828.88 762.89 1917.43 712.18 1828.88 661.47 1828.88 762.89"/>
            <polygon class="cls-1" points="0 557.52 88.56 546.81 0 456.1 0 557.52"/>
            <polygon class="cls-1" points="2.57 451.69 91.12 542.4 91.12 440.98 2.57 451.69"/>
            <polygon class="cls-1" points="96.26 432.16 184.81 381.45 96.26 330.73 96.26 432.16"/>
            <polygon class="cls-1" points="98.82 326.32 187.38 377.04 187.38 275.61 98.82 326.32"/>
            <polygon class="cls-1" points="1636.36 321.91 1724.92 271.2 1636.36 220.49 1636.36 321.91"/>
            <polygon class="cls-1" points="1638.93 326.32 1727.49 377.04 1727.49 275.61 1638.93 326.32"/>
            <polygon class="cls-1" points="1732.62 487.28 1821.18 436.57 1732.62 385.85 1732.62 487.28"/>
            <polygon class="cls-1" points="1760.08 491.69 1814.2 522.68 1814.2 460.7 1760.08 491.69"/>
            <polygon class="cls-1" points="1831.44 657.05 1920 707.77 1920 606.34 1831.44 657.05"/>
            <polygon class="cls-1" points="0 447.28 88.56 396.56 0 345.85 0 447.28"/>
            <polygon class="cls-1" points="2.57 381.45 91.12 432.16 91.12 330.73 2.57 381.45"/>
            <polygon class="cls-1" points="96.26 321.91 184.81 271.2 96.26 220.49 96.26 321.91"/>
            <polygon class="cls-1" points="98.82 216.08 187.38 266.79 187.38 165.37 98.82 216.08"/>
            <polygon class="cls-1" points="1542.67 50.71 1631.23 101.43 1631.23 0 1542.67 50.71"/>
            <polygon class="cls-1" points="1656.32 188.81 1704.96 160.96 1656.32 133.1 1656.32 188.81"/>
            <polygon class="cls-1" points="1638.93 216.08 1727.49 266.79 1727.49 165.37 1638.93 216.08"/>
            <polygon class="cls-1" points="1732.62 377.04 1821.18 326.32 1732.62 275.61 1732.62 377.04"/>
            <polygon class="cls-1" points="1735.18 381.45 1823.74 432.16 1823.74 330.73 1735.18 381.45"/>
            <polygon class="cls-1" points="1828.88 542.4 1917.43 491.69 1828.88 440.98 1828.88 542.4"/>
            <polygon class="cls-1" points="0 377.04 88.56 326.32 0 275.61 0 377.04"/>
            <polygon class="cls-1" points="2.57 271.2 91.12 321.91 91.12 220.49 2.57 271.2"/>
            <polygon class="cls-1" points="96.26 211.67 184.81 160.96 96.26 110.24 96.26 211.67"/>
            <polygon class="cls-1" points="1732.62 266.79 1821.18 216.08 1732.62 165.37 1732.62 266.79"/>
            <polygon class="cls-1" points="1735.18 271.2 1823.74 321.91 1823.74 220.49 1735.18 271.2"/>
            <polygon class="cls-1" points="1828.88 432.16 1917.43 381.45 1828.88 330.73 1828.88 432.16"/>
            <polygon class="cls-1" points="1831.44 436.57 1920 487.28 1920 385.85 1831.44 436.57"/>
            <polygon class="cls-1" points="0 266.79 88.56 216.08 0 165.37 0 266.79"/>
            <polygon class="cls-1" points="1841.74 298.39 1889.21 271.2 1841.74 244.02 1841.74 298.39"/>
            <polygon class="cls-1" points="1831.44 326.32 1920 377.04 1920 275.61 1831.44 326.32"/>
            <polygon class="cls-1" points="1735.18 50.71 1823.74 101.43 1823.74 0 1735.18 50.71"/>
            <polygon class="cls-1" points="1828.88 211.67 1917.43 160.96 1828.88 110.24 1828.88 211.67"/>
            <polygon class="cls-1" points="1831.44 216.08 1920 266.79 1920 165.37 1831.44 216.08"/>
            <polygon class="cls-1" points="1828.88 101.43 1917.43 50.71 1828.88 0 1828.88 101.43"/>
            <polygon class="cls-1" points="1831.44 105.84 1920 156.55 1920 55.12 1831.44 105.84"/>
          </g>
          <polygon class="cls-1" points="1061.39 436.57 1149.95 487.28 1149.95 385.85 1061.39 436.57"/>
          <polygon class="cls-1" points="793.45 165.37 835.22 141.45 793.45 117.53 793.45 165.37"/>
        </g>
        <polygon class="cls-2" points="103.32 77.91 171.35 38.96 103.32 0 103.32 77.91"/>
      </g>
    </g>
  </g>
</svg>