<?xml version="1.0" encoding="UTF-8"?>
<svg id="Layer_2" data-name="Layer 2" xmlns="http://www.w3.org/2000/svg" xmlns:xlink="http://www.w3.org/1999/xlink" viewBox="0 0 99.82 100">
  <defs>
    <style>
      .cls-1 {
        fill: url(#linear-gradient);
      }

      .cls-2 {
        fill: url(#linear-gradient-2);
      }
    </style>
    <linearGradient id="linear-gradient" x1="49.91" y1="100" x2="49.91" y2="0" gradientUnits="userSpaceOnUse">
      <stop offset="0" stop-color="#203d74"/>
      <stop offset=".01" stop-color="#1f3e75"/>
      <stop offset=".27" stop-color="#1f5492"/>
      <stop offset=".52" stop-color="#1f64a7"/>
      <stop offset=".76" stop-color="#1f6db3"/>
      <stop offset="1" stop-color="#1f71b8"/>
    </linearGradient>
    <linearGradient id="linear-gradient-2" x1="49.9" y1="99.83" x2="49.9" y2="89.27" xlink:href="#linear-gradient"/>
  </defs>
  <g id="REZERVA_SUCCES" data-name="REZERVA SUCCES">
    <g id="succes_icon">
      <g>
        <path class="cls-1" d="M69.36,87.01h30.46c0,4.08,.02,7.99-.04,11.9,0,.35-.58,.97-.91,.99-1.74,.1-3.49,.05-5.46,.05v-6.46h-30.41v-10.8h-25.98v17.16c-.85,.04-1.49,.11-2.13,.11-10.91,0-21.82-.03-32.73,.04-1.73,.01-2.28-.53-2.12-2.19,.12-1.33,.02-2.68,.02-4.26H30.43v-17.33c1.13-.06,2.05-.1,3.14-.16,.04-.61,.12-1.2,.12-1.78,0-12.13-.01-24.26,.03-36.39,0-1.22-.33-2-1.39-2.64-1.85-1.12-3.63-2.36-5.42-3.59-1.98-1.36-2.98-3.26-2.98-5.68,.01-6.37-.03-12.74,.01-19.11,.02-3.6,2.34-6.28,5.89-6.57,2.56-.21,5.18-.28,7.7,.05,1.64,.22,3.16,1.27,5.15,2.13,4.54-2.87,9.64-3.05,14.86,.3,3.69-3.9,8.48-2.62,12.95-2.36,3.18,.18,5.37,2.91,5.4,6.12,.07,6.57,.04,13.15,.02,19.72,0,2.17-.97,3.91-2.71,5.21-.22,.16-.45,.3-.67,.46-2.1,1.47-4.97,2.53-6.07,4.54-1.06,1.94-.3,4.89-.3,7.39-.01,10.03,0,20.06,0,30.09,0,.66,.06,1.33,.09,2.09,1.04,.06,1.96,.1,3.09,.17v10.81Zm-9.64-10.97c0-1.07,0-1.94,0-2.81,0-12.74,.04-25.47-.06-38.21-.01-1.72,.49-2.71,1.91-3.58,2.64-1.64,6.2-2.92,7.48-5.34,1.32-2.51,.4-6.21,.42-9.38,.02-3.3,0-6.6,0-9.95h-6.55c0,4.21,.02,8.27-.02,12.32,0,.64-.01,1.61-.39,1.86-3.46,2.25-6.2,5.51-11.15,5.37-4.74-.13-8.83-.79-12.45-4.04-1.31-1.18-2.09-2.15-2.01-3.99,.15-3.83,.05-7.67,.05-11.5h-6.56c0,6.27-.03,12.36,.05,18.45,0,.58,.56,1.33,1.08,1.7,2.32,1.65,4.66,3.26,7.09,4.73,1.2,.73,1.57,1.57,1.57,2.93-.05,13.08-.03,26.15-.03,39.23,0,.72,0,1.44,0,2.15h6.64v-21.37h6.41v21.43h6.52Zm-3.27-62.75c.01-3.65-2.9-6.54-6.58-6.51-3.59,.03-6.45,2.86-6.47,6.41-.02,3.64,2.89,6.5,6.58,6.49,3.6-.02,6.46-2.84,6.47-6.39Z"/>
        <path class="cls-2" d="M53.01,99.83h-6.22v-10.55h6.22v10.55Z"/>
      </g>
    </g>
  </g>
</svg>