<svg aria-hidden="true" style="position: absolute; width: 0; height: 0; overflow: hidden;" version="1.1" xmlns="http://www.w3.org/2000/svg" xmlns:xlink="http://www.w3.org/1999/xlink">
<defs>
<symbol id="icon-logo" viewBox="0 0 89 32">
<path d="M14.716 30.328l-0.499-1.45h-7.612l-0.499 1.45c-0.277 0.794-1.016 1.33-1.857 1.33h-4.249l7.27-19.316h6.282l7.27 19.316h-4.24c-0.841 0-1.589-0.536-1.857-1.33zM10.42 17.266l-2.457 7.27h4.896l-2.43-7.27z"></path>
<path d="M20.822 31.658v-19.316h9.672c4.342 0 6.716 2.928 6.716 6.43s-2.374 6.402-6.716 6.402h-4.693v4.517c0 1.090-0.878 1.968-1.968 1.968h-3.012zM32.148 18.771c0-1.33-1.072-2.088-2.402-2.088h-3.935v4.139h3.935c1.33 0 2.402-0.748 2.402-2.060z"></path>
<path d="M36.573 28.933l1.45-2.134c0.6-0.887 1.792-1.109 2.697-0.545 1.266 0.794 2.855 1.349 4.684 1.349 1.681 0 2.725-0.582 2.725-1.534 0-2.55-10.919-0.434-10.919-7.88 0-3.242 2.725-6.143 7.677-6.143 3.095 0 5.792 0.924 7.852 2.697l-1.617 2.217c-0.582 0.804-1.663 1.025-2.54 0.554-1.33-0.711-2.827-1.062-4.212-1.062s-2.088 0.49-2.088 1.33c0 2.374 10.919 0.582 10.919 7.76 0 3.88-2.864 6.457-8.055 6.457-3.908 0-6.633-1.247-8.573-3.067z"></path>
<path d="M66.042 30.328l-0.499-1.45h-7.612l-0.499 1.45c-0.277 0.794-1.016 1.33-1.857 1.33h-4.24l7.27-19.316h6.282l7.27 19.316h-4.24c-0.841 0-1.589-0.536-1.857-1.33zM61.746 17.266l-2.457 7.27h4.896l-2.43-7.27z"></path>
<path d="M72.111 31.658v-19.316h9.672c4.342 0 6.716 2.928 6.716 6.43s-2.374 6.402-6.716 6.402h-4.693v4.517c0 1.090-0.878 1.968-1.968 1.968h-3.012zM83.436 18.771c0-1.33-1.072-2.088-2.402-2.088h-3.935v4.139h3.935c1.33 0 2.402-0.748 2.402-2.060z"></path>
<path d="M0.628 2.891c0-1.718 1.256-2.891 2.864-2.891 0.988 0 1.672 0.471 2.115 1.109l-0.582 0.323c-0.314-0.48-0.905-0.813-1.543-0.813-1.21 0-2.134 0.933-2.134 2.273s0.933 2.263 2.152 2.263c0.637 0 1.219-0.342 1.543-0.813l0.582 0.314c-0.471 0.647-1.136 1.109-2.125 1.109-1.607 0-2.873-1.173-2.873-2.891z"></path>
<path d="M6.503 5.672v-5.58h3.658v0.619h-2.965v1.801h2.901v0.619h-2.901v1.921h2.965v0.619h-3.658z"></path>
<path d="M15.215 5.672l-3.252-4.453v4.453h-0.693v-5.58h0.711l3.215 4.36v-4.36h0.693v5.58h-0.665z"></path>
<path d="M18.568 5.672v-4.961h-1.764v-0.619h4.231v0.619h-1.774v4.961h-0.693z"></path>
<path d="M25.192 5.672l-1.413-2.217h-1.118v2.217h-0.693v-5.58h2.245c1.025 0 1.755 0.656 1.755 1.681s-0.693 1.552-1.46 1.626l1.506 2.273h-0.822zM25.238 1.774c0-0.637-0.462-1.062-1.118-1.062h-1.469v2.134h1.469c0.665 0 1.118-0.443 1.118-1.072z"></path>
<path d="M27.058 3.51v-3.418h0.702v3.4c0 1.025 0.545 1.663 1.57 1.663s1.58-0.647 1.58-1.663v-3.4h0.702v3.409c0 1.386-0.767 2.273-2.282 2.273s-2.273-0.896-2.273-2.263z"></path>
<path d="M32.831 5.672v-5.58h0.693v4.961h2.596v0.619h-3.289z"></path>
<path d="M39.215 5.672v-5.58h1.912c1.737 0 2.864 1.21 2.864 2.799s-1.118 2.79-2.864 2.79h-1.912zM43.261 2.882c0-1.201-0.758-2.18-2.143-2.18h-1.21v4.351h1.21c1.358 0 2.143-0.97 2.143-2.171z"></path>
<path d="M45.072 5.672v-5.58h3.658v0.619h-2.965v1.801h2.901v0.619h-2.901v1.921h2.965v0.619h-3.658z"></path>
<path d="M52 5.672v-5.58h3.658v0.619h-2.965v1.801h2.901v0.619h-2.901v2.54h-0.693z"></path>
<path d="M56.379 2.891c0-1.644 1.118-2.891 2.771-2.891s2.781 1.238 2.781 2.891-1.127 2.891-2.781 2.891-2.771-1.238-2.771-2.891zM61.21 2.891c0-1.303-0.813-2.263-2.060-2.263s-2.051 0.961-2.051 2.263 0.794 2.263 2.051 2.263 2.060-0.97 2.060-2.263z"></path>
<path d="M66.236 5.672l-1.413-2.217h-1.118v2.217h-0.693v-5.58h2.245c1.025 0 1.755 0.656 1.755 1.681s-0.693 1.552-1.46 1.626l1.506 2.273h-0.822zM66.282 1.774c0-0.637-0.462-1.062-1.118-1.062h-1.469v2.134h1.469c0.665 0 1.118-0.443 1.118-1.072z"></path>
<path d="M72.868 5.672v-4.693l-1.894 4.693h-0.286l-1.903-4.693v4.693h-0.693v-5.58h0.998l1.737 4.305 1.746-4.305h0.998v5.58h-0.693z"></path>
<path d="M78.855 5.672l-0.49-1.247h-2.781l-0.49 1.247h-0.794l2.245-5.58h0.859l2.245 5.58h-0.794zM76.97 0.804l-1.182 3.012h2.365l-1.192-3.012z"></path>
<path d="M83.603 5.672l-1.413-2.217h-1.118v2.217h-0.693v-5.58h2.245c1.025 0 1.755 0.656 1.755 1.681s-0.693 1.552-1.46 1.626l1.506 2.273h-0.822zM83.649 1.774c0-0.637-0.462-1.062-1.118-1.062h-1.469v2.134h1.469c0.665 0 1.118-0.443 1.118-1.072z"></path>
<path d="M85.469 5.672v-5.58h3.658v0.619h-2.965v1.801h2.901v0.619h-2.901v1.921h2.965v0.619h-3.658z"></path>
</symbol>
<symbol id="icon-info" viewBox="0 0 32 32">
<path d="M14.507 7.253c0 4.006-3.247 7.253-7.253 7.253s-7.253-3.247-7.253-7.253c0-4.006 3.247-7.253 7.253-7.253s7.253 3.247 7.253 7.253z"></path>
<path d="M32 7.253c0 4.006-3.247 7.253-7.253 7.253s-7.253-3.247-7.253-7.253c0-4.006 3.247-7.253 7.253-7.253s7.253 3.247 7.253 7.253z"></path>
<path d="M14.507 24.747c0 4.006-3.247 7.253-7.253 7.253s-7.253-3.247-7.253-7.253c0-4.006 3.247-7.253 7.253-7.253s7.253 3.247 7.253 7.253z"></path>
<path d="M32 24.747c0 4.006-3.247 7.253-7.253 7.253s-7.253-3.247-7.253-7.253c0-4.006 3.247-7.253 7.253-7.253s7.253 3.247 7.253 7.253z"></path>
</symbol>
<symbol id="icon-oferta" viewBox="0 0 34 32">
<path d="M0 16.192v15.808h3.349c3.061 0 5.547-2.485 5.547-5.547v-12.235h-6.933c-1.088 0-1.963 0.885-1.963 1.963z"></path>
<path d="M12.448 9.077v22.923h3.349c3.061 0 5.547-2.485 5.547-5.547v-19.339h-6.923c-1.088 0-1.963 0.885-1.963 1.963z"></path>
<path d="M24.885 1.963v30.037h3.349c3.061 0 5.547-2.485 5.547-5.547v-26.453h-6.923c-1.088 0-1.963 0.885-1.963 1.963z"></path>
</symbol>
</defs>
</svg>
