<svg aria-hidden="true" style="position: absolute; width: 0; height: 0; overflow: hidden;" version="1.1" xmlns="http://www.w3.org/2000/svg" xmlns:xlink="http://www.w3.org/1999/xlink">
<defs>
<symbol id="icon-facebook" viewBox="0 0 18 32">
<path d="M17.558 5.664c0 0.566-0.283 0.85-0.85 0.85h-3.115c-0.566 0-1.133 0.142-1.416 0.708-0.142 0.283-0.283 0.566-0.283 0.85v3.54h4.531c0.708 0 0.85 0.283 0.85 0.85v4.814c0 0.566-0.283 0.85-0.85 0.85h-4.673v13.027c0 0.425-0.142 0.708-0.425 0.85h-5.805c-0.425-0.142-0.566-0.425-0.566-0.85v-13.027h-4.106c-0.566 0-0.85-0.283-0.85-0.85v-4.956c0-0.566 0.283-0.85 0.85-0.85h4.106v-4.248c0.142-1.841 0.566-3.54 1.841-4.956 0.991-1.133 2.407-1.841 3.823-2.124 0.425-0.142 0.708-0.142 1.133-0.142h5.097c0.566 0.425 0.708 0.708 0.708 1.133v4.531z"></path>
</symbol>
<symbol id="icon-instagram" viewBox="0 0 32 32">
<path d="M4.109 0.001h23.784c2.26 0 4.107 1.848 4.107 4.108v23.784c0 2.259-1.847 4.106-4.107 4.106h-23.784c-2.26 0-4.109-1.847-4.109-4.106v-23.784c0-2.26 1.849-4.108 4.109-4.108zM23.312 3.555c-0.793 0-1.441 0.65-1.441 1.443v3.447c0 0.793 0.647 1.441 1.441 1.441h3.616c0.792 0 1.441-0.648 1.441-1.441v-3.447c0-0.793-0.649-1.443-1.441-1.443h-3.616zM28.382 13.533h-2.816c0.267 0.872 0.412 1.792 0.412 2.748 0 5.321-4.455 9.636-9.948 9.636-5.492 0-9.947-4.316-9.947-9.636 0-0.956 0.146-1.876 0.412-2.748h-2.938v13.518c0 0.7 0.572 1.27 1.271 1.27h22.283c0.7 0 1.27-0.57 1.27-1.27v-13.518zM16.030 9.704c-3.548 0-6.426 2.787-6.426 6.228 0 3.438 2.878 6.227 6.426 6.227 3.55 0 6.428-2.789 6.428-6.227 0-3.441-2.878-6.228-6.428-6.228z"></path>
</symbol>
<symbol id="icon-youtube" viewBox="0 0 32 32">
<path d="M30.753 6.673c-1.155-1.373-3.288-1.933-7.361-1.933h-14.785c-4.166 0-6.335 0.596-7.486 2.058-1.122 1.425-1.122 3.525-1.122 6.432v5.54c0 5.631 1.331 8.49 8.608 8.49h14.785c3.532 0 5.489-0.494 6.755-1.706 1.298-1.243 1.852-3.272 1.852-6.784v-5.54c0-3.065-0.087-5.178-1.247-6.557zM20.544 16.765l-6.714 3.509c-0.15 0.078-0.314 0.117-0.478 0.117-0.186 0-0.371-0.050-0.535-0.149-0.309-0.187-0.497-0.522-0.497-0.883v-6.995c0-0.36 0.188-0.695 0.496-0.882s0.692-0.2 1.012-0.034l6.714 3.486c0.342 0.177 0.556 0.53 0.557 0.915s-0.213 0.738-0.554 0.916z"></path>
</symbol>
<symbol id="icon-down-arrow" viewBox="0 0 59 32">
<path d="M58.88 2.56c0 0.653-0.256 1.318-0.755 1.818l-27.072 26.88c-0.474 0.474-1.126 0.742-1.805 0.742s-1.331-0.269-1.805-0.755l-26.701-26.88c-0.998-0.998-0.986-2.624 0-3.622 0.998-0.998 2.624-0.986 3.622 0l24.896 25.075 25.254-25.075c0.998-0.998 2.624-0.986 3.622 0 0.499 0.499 0.742 1.152 0.742 1.805v0z"></path>
</symbol>
<symbol id="icon-left-arrow" viewBox="0 0 17 32">
<path d="M16 32c-0.355 0-0.717-0.139-0.988-0.41l-14.609-14.713c-0.257-0.257-0.403-0.612-0.403-0.981s0.146-0.723 0.41-0.981l14.609-14.511c0.543-0.543 1.426-0.536 1.969 0 0.543 0.543 0.536 1.426 0 1.969l-13.628 13.53 13.628 13.725c0.543 0.543 0.536 1.426 0 1.969-0.271 0.271-0.626 0.403-0.981 0.403z"></path>
</symbol>
<symbol id="icon-magnifier" viewBox="0 0 32 32">
<path d="M12.885 25.749c2.859 0 5.632-0.96 7.893-2.709l8.512 8.512c0.64 0.619 1.643 0.597 2.261-0.043 0.597-0.619 0.597-1.6 0-2.219l-8.512-8.512c4.352-5.611 3.349-13.696-2.261-18.069s-13.717-3.349-18.069 2.261-3.349 13.717 2.261 18.069c2.261 1.749 5.035 2.709 7.915 2.709v0zM6.037 6.037c3.776-3.776 9.899-3.776 13.675 0s3.776 9.899 0 13.675c-3.776 3.776-9.899 3.776-13.675 0v0c-3.776-3.755-3.797-9.856-0.043-13.632 0 0 0.043-0.043 0.043-0.043v0z"></path>
</symbol>
<symbol id="icon-logo" viewBox="0 0 89 32">
<path d="M14.716 30.328l-0.499-1.45h-7.612l-0.499 1.45c-0.277 0.794-1.016 1.33-1.857 1.33h-4.249l7.27-19.316h6.282l7.27 19.316h-4.24c-0.841 0-1.589-0.536-1.857-1.33zM10.42 17.266l-2.457 7.27h4.896l-2.43-7.27z"></path>
<path d="M20.822 31.658v-19.316h9.672c4.342 0 6.716 2.928 6.716 6.43s-2.374 6.402-6.716 6.402h-4.693v4.517c0 1.090-0.878 1.968-1.968 1.968h-3.012zM32.148 18.771c0-1.33-1.072-2.088-2.402-2.088h-3.935v4.139h3.935c1.33 0 2.402-0.748 2.402-2.060z"></path>
<path d="M36.573 28.933l1.45-2.134c0.6-0.887 1.792-1.109 2.697-0.545 1.266 0.794 2.855 1.349 4.684 1.349 1.681 0 2.725-0.582 2.725-1.534 0-2.55-10.919-0.434-10.919-7.88 0-3.242 2.725-6.143 7.677-6.143 3.095 0 5.792 0.924 7.852 2.697l-1.617 2.217c-0.582 0.804-1.663 1.025-2.54 0.554-1.33-0.711-2.827-1.062-4.212-1.062s-2.088 0.49-2.088 1.33c0 2.374 10.919 0.582 10.919 7.76 0 3.88-2.864 6.457-8.055 6.457-3.908 0-6.633-1.247-8.573-3.067z"></path>
<path d="M66.042 30.328l-0.499-1.45h-7.612l-0.499 1.45c-0.277 0.794-1.016 1.33-1.857 1.33h-4.24l7.27-19.316h6.282l7.27 19.316h-4.24c-0.841 0-1.589-0.536-1.857-1.33zM61.746 17.266l-2.457 7.27h4.896l-2.43-7.27z"></path>
<path d="M72.111 31.658v-19.316h9.672c4.342 0 6.716 2.928 6.716 6.43s-2.374 6.402-6.716 6.402h-4.693v4.517c0 1.090-0.878 1.968-1.968 1.968h-3.012zM83.436 18.771c0-1.33-1.072-2.088-2.402-2.088h-3.935v4.139h3.935c1.33 0 2.402-0.748 2.402-2.060z"></path>
<path d="M0.628 2.891c0-1.718 1.256-2.891 2.864-2.891 0.988 0 1.672 0.471 2.115 1.109l-0.582 0.323c-0.314-0.48-0.905-0.813-1.543-0.813-1.21 0-2.134 0.933-2.134 2.273s0.933 2.263 2.152 2.263c0.637 0 1.219-0.342 1.543-0.813l0.582 0.314c-0.471 0.647-1.136 1.109-2.125 1.109-1.607 0-2.873-1.173-2.873-2.891z"></path>
<path d="M6.503 5.672v-5.58h3.658v0.619h-2.965v1.801h2.901v0.619h-2.901v1.921h2.965v0.619h-3.658z"></path>
<path d="M15.215 5.672l-3.252-4.453v4.453h-0.693v-5.58h0.711l3.215 4.36v-4.36h0.693v5.58h-0.665z"></path>
<path d="M18.568 5.672v-4.961h-1.764v-0.619h4.231v0.619h-1.774v4.961h-0.693z"></path>
<path d="M25.192 5.672l-1.413-2.217h-1.118v2.217h-0.693v-5.58h2.245c1.025 0 1.755 0.656 1.755 1.681s-0.693 1.552-1.46 1.626l1.506 2.273h-0.822zM25.238 1.774c0-0.637-0.462-1.062-1.118-1.062h-1.469v2.134h1.469c0.665 0 1.118-0.443 1.118-1.072z"></path>
<path d="M27.058 3.51v-3.418h0.702v3.4c0 1.025 0.545 1.663 1.57 1.663s1.58-0.647 1.58-1.663v-3.4h0.702v3.409c0 1.386-0.767 2.273-2.282 2.273s-2.273-0.896-2.273-2.263z"></path>
<path d="M32.831 5.672v-5.58h0.693v4.961h2.596v0.619h-3.289z"></path>
<path d="M39.215 5.672v-5.58h1.912c1.737 0 2.864 1.21 2.864 2.799s-1.118 2.79-2.864 2.79h-1.912zM43.261 2.882c0-1.201-0.758-2.18-2.143-2.18h-1.21v4.351h1.21c1.358 0 2.143-0.97 2.143-2.171z"></path>
<path d="M45.072 5.672v-5.58h3.658v0.619h-2.965v1.801h2.901v0.619h-2.901v1.921h2.965v0.619h-3.658z"></path>
<path d="M52 5.672v-5.58h3.658v0.619h-2.965v1.801h2.901v0.619h-2.901v2.54h-0.693z"></path>
<path d="M56.379 2.891c0-1.644 1.118-2.891 2.771-2.891s2.781 1.238 2.781 2.891-1.127 2.891-2.781 2.891-2.771-1.238-2.771-2.891zM61.21 2.891c0-1.303-0.813-2.263-2.060-2.263s-2.051 0.961-2.051 2.263 0.794 2.263 2.051 2.263 2.060-0.97 2.060-2.263z"></path>
<path d="M66.236 5.672l-1.413-2.217h-1.118v2.217h-0.693v-5.58h2.245c1.025 0 1.755 0.656 1.755 1.681s-0.693 1.552-1.46 1.626l1.506 2.273h-0.822zM66.282 1.774c0-0.637-0.462-1.062-1.118-1.062h-1.469v2.134h1.469c0.665 0 1.118-0.443 1.118-1.072z"></path>
<path d="M72.868 5.672v-4.693l-1.894 4.693h-0.286l-1.903-4.693v4.693h-0.693v-5.58h0.998l1.737 4.305 1.746-4.305h0.998v5.58h-0.693z"></path>
<path d="M78.855 5.672l-0.49-1.247h-2.781l-0.49 1.247h-0.794l2.245-5.58h0.859l2.245 5.58h-0.794zM76.97 0.804l-1.182 3.012h2.365l-1.192-3.012z"></path>
<path d="M83.603 5.672l-1.413-2.217h-1.118v2.217h-0.693v-5.58h2.245c1.025 0 1.755 0.656 1.755 1.681s-0.693 1.552-1.46 1.626l1.506 2.273h-0.822zM83.649 1.774c0-0.637-0.462-1.062-1.118-1.062h-1.469v2.134h1.469c0.665 0 1.118-0.443 1.118-1.072z"></path>
<path d="M85.469 5.672v-5.58h3.658v0.619h-2.965v1.801h2.901v0.619h-2.901v1.921h2.965v0.619h-3.658z"></path>
</symbol>
<symbol id="icon-info" viewBox="0 0 32 32">
<path d="M14.507 7.253c0 4.006-3.247 7.253-7.253 7.253s-7.253-3.247-7.253-7.253c0-4.006 3.247-7.253 7.253-7.253s7.253 3.247 7.253 7.253z"></path>
<path d="M32 7.253c0 4.006-3.247 7.253-7.253 7.253s-7.253-3.247-7.253-7.253c0-4.006 3.247-7.253 7.253-7.253s7.253 3.247 7.253 7.253z"></path>
<path d="M14.507 24.747c0 4.006-3.247 7.253-7.253 7.253s-7.253-3.247-7.253-7.253c0-4.006 3.247-7.253 7.253-7.253s7.253 3.247 7.253 7.253z"></path>
<path d="M32 24.747c0 4.006-3.247 7.253-7.253 7.253s-7.253-3.247-7.253-7.253c0-4.006 3.247-7.253 7.253-7.253s7.253 3.247 7.253 7.253z"></path>
</symbol>
<symbol id="icon-oferta" viewBox="0 0 34 32">
<path d="M0 16.192v15.808h3.349c3.061 0 5.547-2.485 5.547-5.547v-12.235h-6.933c-1.088 0-1.963 0.885-1.963 1.963z"></path>
<path d="M12.448 9.077v22.923h3.349c3.061 0 5.547-2.485 5.547-5.547v-19.339h-6.923c-1.088 0-1.963 0.885-1.963 1.963z"></path>
<path d="M24.885 1.963v30.037h3.349c3.061 0 5.547-2.485 5.547-5.547v-26.453h-6.923c-1.088 0-1.963 0.885-1.963 1.963z"></path>
</symbol>
</defs>
</svg>
