<svg aria-hidden="true" style="position: absolute; width: 0; height: 0; overflow: hidden;" version="1.1" xmlns="http://www.w3.org/2000/svg" xmlns:xlink="http://www.w3.org/1999/xlink">
<defs>
<symbol id="icon-tech-details-2" viewBox="0 0 28 32">
<path d="M17.819 19.538c4.663-2.304 5.23-7.991 3.803-11.785-1.426-0.229-2.816-0.338-4.123-0.695-1.381-0.384-2.377-1.399-3.163-2.679-1.051 1.664-2.478 2.715-4.352 3.035-0.814 0.137-1.664 0.128-2.487 0.101-0.475-0.018-0.713 0.101-0.841 0.567-1.042 4.005-0.649 8.896 3.611 11.319 0.192 0.11 0.384 0.411 0.402 0.631 0.046 0.768 0.018 1.545 0.018 2.331-2.176-0.219-4.645-2.606-6.583-6.345-0.503 0-1.033 0.018-1.554 0-1.39-0.073-2.459-1.115-2.533-2.505-0.027-0.585 0-1.17-0.018-1.755-0.027-1.362 0.622-2.24 1.865-2.77 0.293-0.128 0.539-0.512 0.658-0.841 1.883-4.928 6.464-8.128 11.694-8.146 5.239-0.018 9.865 3.237 11.749 8.201 0.128 0.347 0.494 0.695 0.841 0.869 1.006 0.512 1.609 1.262 1.646 2.405 0.018 0.64 0.027 1.28 0 1.92-0.055 1.518-1.143 2.578-2.67 2.624-0.165 0-0.338 0.027-0.503 0-0.695-0.119-1.042 0.155-1.353 0.832-1.399 3.099-3.803 5.074-7.077 5.961-1.792 0.485-3.328-0.768-3.035-2.423 0.155-0.869 0.64-1.472 1.472-1.765 0.805-0.283 1.536-0.11 2.167 0.457 0.137 0.128 0.238 0.302 0.366 0.457z"></path>
<path d="M26.697 32h-24.841c-0.585-3.355 0.549-5.559 3.429-7.131 1.289-0.704 2.304-0.878 3.776-0.192 3.822 1.783 7.717 1.499 11.447-0.485 0.485-0.256 0.841-0.256 1.289 0 0.594 0.347 1.234 0.64 1.847 0.96 1.993 1.024 2.971 2.679 3.054 4.891 0.018 0.631 0 1.271 0 1.966z"></path>
<path d="M8.896 10.688c0.695 0 1.335-0.046 1.957 0.009 0.951 0.082 1.6 0.878 1.573 1.819-0.027 0.951-0.741 1.673-1.691 1.701s-1.737-0.622-1.819-1.563c-0.055-0.631-0.009-1.262-0.009-1.966z"></path>
<path d="M19.557 10.688c0 0.713 0.037 1.326 0 1.929-0.073 0.978-0.896 1.655-1.874 1.6-0.914-0.046-1.6-0.75-1.646-1.664-0.046-0.987 0.631-1.792 1.618-1.856 0.603-0.046 1.216 0 1.911 0z"></path>
</symbol>
<symbol id="icon-tech-support" viewBox="0 0 37 32">
<path d="M37.23 2.761v21.815c-0.046 0.055-0.101 0.101-0.128 0.165-0.686 1.829-1.792 2.597-3.73 2.597-2.715 0-5.431 0-8.137 0-0.256 0-0.512 0-0.759 0v2.322c0.466 0 0.896-0.009 1.326 0 0.741 0.027 1.234 0.475 1.253 1.134 0.018 0.686-0.494 1.179-1.271 1.189-4.773 0-9.545 0-14.318 0-0.786 0-1.289-0.503-1.271-1.189 0.018-0.658 0.512-1.115 1.253-1.134 0.448-0.018 0.896 0 1.317 0v-2.322h-0.823c-2.734 0-5.477 0-8.21 0-0.338 0-0.677-0.037-1.006-0.101-1.472-0.311-2.213-1.362-2.725-2.661 0-7.269 0-14.537 0-21.815 0.046-0.055 0.101-0.101 0.128-0.165 0.677-1.829 1.792-2.597 3.73-2.597 9.838 0 19.675 0 29.513 0 0.384 0 0.777 0.027 1.152 0.11 1.463 0.311 2.203 1.362 2.715 2.651zM18.688 2.322c-4.946 0-9.883 0-14.83 0-1.152 0-1.536 0.375-1.536 1.509 0 6.565 0 13.129 0 19.694 0 1.088 0.393 1.481 1.499 1.481 9.838 0 19.675 0 29.513 0 1.198 0 1.573-0.366 1.573-1.545 0-6.519 0-13.038 0-19.557 0-1.234-0.357-1.591-1.609-1.591-4.873 0-9.737 0-14.61 0z"></path>
<path d="M18.606 10.377c0.777 0 1.554 0.018 2.322 0 0.832-0.018 1.179-0.384 1.189-1.216 0.009-1.015-0.018-2.039 0.018-3.054 0.009-0.283 0.192-0.558 0.293-0.832 0.293 0.119 0.64 0.165 0.859 0.366 3.2 2.935 2.88 8.11-0.658 10.624-0.384 0.274-0.539 0.53-0.521 0.997 0.037 1.353 0.018 2.715 0.009 4.069 0 0.869-0.366 1.253-1.216 1.262-1.499 0.018-3.008 0.018-4.507 0-0.896 0-1.243-0.384-1.253-1.307 0-1.307-0.027-2.615 0-3.922 0.009-0.503-0.119-0.814-0.558-1.125-3.52-2.514-3.813-7.735-0.603-10.624 0.21-0.183 0.539-0.238 0.805-0.357 0.11 0.293 0.311 0.585 0.32 0.878 0.037 0.987 0 1.984 0.018 2.981 0 0.878 0.366 1.243 1.225 1.262 0.75 0.018 1.499 0 2.249 0z"></path>
</symbol>
<symbol id="icon-info-extra-2" viewBox="0 0 32 32">
<path d="M21.522 24.786c0.082-0.128 0.146-0.21 0.192-0.293 0.347-0.686 0.704-1.362 1.015-2.066 0.091-0.21 0.165-0.302 0.402-0.302 1.49 0.009 2.971 0 4.462 0 1.115 0 1.637-0.521 1.637-1.627 0-5.422 0-10.834 0-16.247 0-1.061-0.53-1.6-1.591-1.6h-23.378c-1.070 0-1.591 0.521-1.591 1.582 0 5.44 0 10.88 0 16.32 0 1.051 0.521 1.573 1.573 1.573 1.518 0 3.045 0 4.562 0 0.229 0 0.32 0.073 0.411 0.293 0.32 0.722 0.695 1.417 1.051 2.121 0.037 0.064 0.082 0.128 0.165 0.247h-0.384c-2.139 0-4.288 0-6.427 0-2.066 0-3.621-1.536-3.621-3.602 0-5.842 0-11.685 0-17.527 0-2.13 1.509-3.657 3.63-3.657 8.219 0 16.43 0 24.649 0 2.075 0 3.584 1.527 3.584 3.611 0 5.851 0 11.712 0 17.563 0 2.066-1.536 3.602-3.602 3.602s-4.215 0-6.327 0h-0.421z"></path>
<path d="M21.531 20.224c0.174 3.008-2.258 5.614-5.385 5.787-2.935 0.165-5.623-2.249-5.787-5.202-0.174-3.127 2.158-5.806 5.221-5.97 3.173-0.174 5.769 2.167 5.952 5.385z"></path>
<path d="M15.927 9.765h9.573c0.814 0 1.051 0.238 1.061 1.042 0 0.238 0 0.485 0 0.722 0 0.594-0.293 0.896-0.887 0.896-0.969 0-1.938 0-2.907 0-5.477 0-10.944 0-16.421 0-0.768 0-1.033-0.265-1.033-1.042 0-0.238 0-0.485 0-0.722 0-0.585 0.311-0.896 0.896-0.896 1.874 0 3.758 0 5.632 0h4.078z"></path>
<path d="M15.927 8c-1.445 0-2.88 0-4.325 0-0.704 0-0.978-0.274-0.978-0.987 0-0.219 0-0.439 0-0.658 0-0.768 0.256-1.024 1.006-1.024 1.536 0 3.063 0 4.599 0h4.014c0.731 0 0.997 0.265 0.997 1.006 0 0.265 0 0.53 0 0.795-0.018 0.567-0.311 0.869-0.887 0.869-1.472 0-2.953 0-4.425 0z"></path>
<path d="M19.474 31.991c-1.079-0.539-2.13-1.061-3.173-1.591-0.238-0.119-0.43-0.119-0.667 0-1.042 0.539-2.094 1.051-3.182 1.6v-5.349c2.331 1.225 4.663 1.234 7.022 0.009v5.33z"></path>
</symbol>
<symbol id="icon-envelope" viewBox="0 0 45 32">
<path d="M41.456 0h-38.060c-1.867 0-3.395 1.528-3.395 3.395v25.21c0 1.867 1.528 3.395 3.395 3.395h38.060c1.867 0 3.395-1.528 3.395-3.395v-25.21c0-1.867-1.528-3.395-3.395-3.395zM38.332 23.088c0 1.867-1.528 3.395-3.395 3.395h-26.041c-1.867 0-3.395-1.528-3.395-3.395v-13.734s0.017-1.188 2.173 0c0.034 0 0.034 0.017 0.068 0.034 3.48 1.986 7.402 3.871 13.038 6.23 0.39 0.136 1.171 0.289 2.343 0 5.602-1.647 10.321-3.888 13.92-5.925v0s1.29-0.781 1.29 0v13.428z"></path>
</symbol>
<symbol id="icon-star-arrow" viewBox="0 0 32 32">
<path d="M20.267 31.993c-0.833-0.807-1.6-1.553-2.367-2.3-0.487-0.473-0.987-0.927-1.447-1.427-0.32-0.347-0.56-0.327-0.887 0-1.073 1.080-2.167 2.133-3.26 3.193-0.16 0.16-0.333 0.307-0.587 0.533-0.3-1.020-0.573-1.94-0.84-2.867-0.213-0.747-0.447-1.5-0.62-2.253-0.113-0.507-0.347-0.567-0.813-0.44-1.667 0.447-3.347 0.847-5.14 1.293 0.273-1.113 0.52-2.147 0.773-3.173 0.16-0.653 0.293-1.32 0.507-1.96 0.173-0.527-0.020-0.713-0.5-0.847-1.667-0.453-3.32-0.94-5.047-1.433 0.133-0.167 0.22-0.3 0.327-0.413 1.107-1.133 2.2-2.28 3.327-3.393 0.38-0.373 0.353-0.633 0-0.993-1.073-1.080-2.127-2.173-3.187-3.267-0.147-0.147-0.287-0.3-0.513-0.54 0.447-0.127 0.813-0.24 1.18-0.347 1.32-0.373 2.633-0.767 3.96-1.113 0.487-0.127 0.573-0.333 0.447-0.813-0.447-1.667-0.847-3.353-1.287-5.153 1.093 0.267 2.1 0.507 3.107 0.76 0.693 0.173 1.4 0.327 2.080 0.54 0.46 0.147 0.647 0 0.767-0.44 0.46-1.687 0.953-3.367 1.453-5.133 0.18 0.147 0.32 0.253 0.447 0.373 1.12 1.093 2.247 2.173 3.347 3.287 0.36 0.36 0.613 0.387 0.987 0.013 1.087-1.093 2.207-2.153 3.313-3.227 0.147-0.14 0.3-0.273 0.513-0.467 0.467 1.66 0.913 3.24 1.36 4.82 0.267 0.927 0.267 0.927 1.207 0.693 1.573-0.4 3.147-0.8 4.827-1.227-0.060 0.293-0.093 0.507-0.147 0.72-0.367 1.473-0.72 2.947-1.127 4.413-0.14 0.513-0.027 0.713 0.487 0.847 1.367 0.353 2.72 0.753 4.080 1.147 0.3 0.087 0.587 0.193 0.98 0.327-0.207 0.233-0.347 0.4-0.507 0.56-1.020 1.040-2.020 2.1-3.067 3.113-0.44 0.427-0.5 0.7-0.020 1.167 1.127 1.080 2.193 2.227 3.28 3.347 0.1 0.1 0.187 0.213 0.333 0.393-1.52 0.427-2.98 0.813-4.427 1.247-1.467 0.44-1.347 0.153-0.973 1.66 0.367 1.467 0.733 2.94 1.127 4.507-1.567-0.393-3.053-0.76-4.533-1.133-1.433-0.36-1.193-0.493-1.62 0.947-0.373 1.253-0.713 2.52-1.067 3.773-0.053 0.193-0.133 0.387-0.24 0.673zM18.1 14.247c0-1.053 0.007-2.113 0-3.167-0.007-0.773-0.44-1.2-1.22-1.22-0.44-0.007-0.887 0-1.327 0-1.227 0-1.613 0.393-1.62 1.633-0.007 1.94-0.020 3.887 0 5.827 0 0.487-0.14 0.68-0.647 0.667-0.867-0.033-1.733-0.040-2.593 0.007-0.273 0.013-0.68 0.18-0.76 0.38-0.087 0.213 0.067 0.633 0.253 0.827 1.487 1.527 3 3.033 4.527 4.513 0.707 0.68 1.767 0.707 2.473 0.040 1.56-1.48 3.087-3 4.6-4.533 0.193-0.193 0.367-0.64 0.273-0.82-0.127-0.227-0.527-0.387-0.82-0.407-0.84-0.053-1.687-0.040-2.533-0.013-0.48 0.013-0.627-0.173-0.613-0.633 0.020-1.033 0.007-2.067 0.007-3.1z"></path>
</symbol>
<symbol id="icon-sort" viewBox="0 0 32 32">
<path d="M22.995 32c-0.61 0-1.116-0.506-1.116-1.116v-19.929c0-0.074-0.060-0.149-0.149-0.149h-5.418c-0.938 0-1.771-0.566-2.128-1.429s-0.164-1.86 0.491-2.53l5.745-5.775c1.369-1.384 3.78-1.384 5.15 0l5.745 5.775c0.67 0.67 0.863 1.667 0.491 2.53-0.357 0.863-1.206 1.429-2.128 1.429h-1.384c-0.61 0-1.116-0.506-1.116-1.116s0.506-1.116 1.116-1.116h1.384s0.060-0.149 0.060-0.149l-5.745-5.775c-0.536-0.536-1.459-0.536-1.98 0l-5.745 5.775 0.060 0.149h5.418c1.31 0 2.381 1.072 2.381 2.381v19.929c0 0.61-0.506 1.116-1.116 1.116z"></path>
<path d="M9.005 32c-0.982 0-1.89-0.387-2.575-1.072l-5.76-5.775c-0.67-0.67-0.863-1.667-0.491-2.53 0.357-0.863 1.206-1.429 2.128-1.429h5.418c0.074 0 0.149-0.060 0.149-0.149v-19.929c0-0.61 0.506-1.116 1.116-1.116s1.116 0.506 1.116 1.116v19.929c0 1.31-1.072 2.381-2.381 2.381h-5.403s-0.060 0.149-0.060 0.149l5.745 5.775c0.268 0.268 0.625 0.417 0.997 0.417v0c0.372 0 0.729-0.149 0.997-0.417l5.745-5.775-0.060-0.149h-1.384c-0.61 0-1.116-0.506-1.116-1.116s0.506-1.116 1.116-1.116h1.384c0.938 0 1.771 0.566 2.128 1.429s0.164 1.86-0.491 2.53l-5.745 5.775c-0.685 0.685-1.607 1.072-2.575 1.072v0z"></path>
</symbol>
<symbol id="icon-calendar" viewBox="0 0 34 32">
<path d="M26.944 5.056v-3.376c0-0.928-0.752-1.68-1.68-1.68s-1.68 0.752-1.68 1.68v3.376h-13.472v-3.376c0-0.928-0.752-1.68-1.68-1.68s-1.68 0.752-1.68 1.68v3.376h-6.752v26.944h33.68v-26.944h-6.736zM30.32 28.64h-26.944v-20.224h26.944v20.208zM11.792 13.472h-3.376v3.376h3.376v-3.376zM11.792 20.208h-3.376v3.376h3.376v-3.376zM25.264 13.472h-10.112v3.376h10.112v-3.376zM25.264 20.208h-10.112v3.376h10.112v-3.376z"></path>
</symbol>
<symbol id="icon-pin" viewBox="0 0 32 32">
<path d="M16 0c-8.836 0-16 5.369-16 12 0 7.716 11.52 17.333 13.333 18.791 0.747 0.604 1.369 1.209 2.667 1.209s1.92-0.587 2.667-1.209c1.813-1.476 13.333-11.093 13.333-18.791 0-6.631-7.164-12-16-12zM16 20.551c-4.676 0-8.444-3.787-8.444-8.444s3.769-8.462 8.444-8.462 8.444 3.787 8.444 8.444-3.787 8.444-8.444 8.444z"></path>
<path d="M19.893 12.107c0 2.15-1.743 3.893-3.893 3.893s-3.893-1.743-3.893-3.893c0-2.15 1.743-3.893 3.893-3.893s3.893 1.743 3.893 3.893z"></path>
</symbol>
<symbol id="icon-details-hotel" viewBox="0 0 32 32">
<path d="M23.467 26.613c0 0.8 0 1.529 0 2.258 0 1.049-0.427 1.884-1.44 2.151-1.369 0.373-2.756 0.693-4.16 0.836-2.311 0.231-4.64 0.178-6.898-0.462-1.511-0.427-2.56-0.871-2.4-3.164 0.018-0.338 0-0.676 0-0.996 0-0.178 0-0.356-0.036-0.64-0.729 0-1.458 0.018-2.187 0-0.818-0.036-1.653 0-2.453-0.178-2.151-0.462-3.484-2.009-3.858-4.338-0.284-1.778 0.782-3.84 2.56-4.853 1.156-0.658 2.364-1.227 3.556-1.831 1.653-0.836 3.307-1.671 4.942-2.489 0.053-0.036 0.124-0.053 0.249-0.089 0.373 1.404 1.173 2.507 2.4 3.413-0.32 0.16-0.551 0.284-0.782 0.391-2.56 1.262-5.12 2.507-7.662 3.769-0.213 0.107-0.498 0.178-0.622 0.356-0.213 0.302-0.462 0.711-0.409 1.013 0.053 0.267 0.516 0.604 0.8 0.64 1.138 0.071 2.258 0.036 3.413 0.036 0.053-0.178 0.107-0.32 0.142-0.48 0.267-1.067 0.942-1.636 2.044-1.653 3.538-0.018 7.093-0.018 10.631 0 1.227 0 1.76 0.516 2.24 2.116 1.138 0 2.293 0.053 3.449-0.036 0.284-0.018 0.676-0.391 0.782-0.676 0.071-0.249-0.16-0.658-0.356-0.907-0.16-0.213-0.48-0.302-0.729-0.444-3.662-1.884-7.324-3.751-10.987-5.618-1.138-0.587-2.027-1.404-2.169-2.756-0.124-1.227 0.427-2.151 1.422-2.827 0.658-0.444 1.369-0.836 2.044-1.262 0.8-0.516 1.191-1.369 0.996-2.151-0.213-0.889-0.907-1.529-1.813-1.636-0.818-0.107-1.742 0.391-2.151 1.191-0.142 0.267-0.231 0.587-0.302 0.889-0.302 1.493-1.156 2.24-2.382 2.009-0.942-0.178-1.902-1.191-1.653-2.702 0.444-2.631 2.204-4.676 4.8-5.298 2.933-0.693 6.027 0.818 7.182 3.52 1.191 2.773 0.196 5.938-2.364 7.609-0.178 0.124-0.356 0.249-0.622 0.444 0.284 0.16 0.48 0.267 0.693 0.373 3.147 1.6 6.311 3.2 9.476 4.8 1.671 0.836 2.791 2.098 3.076 4 0.409 2.667-1.387 5.173-4.089 5.547-1.12 0.16-2.258 0.107-3.396 0.142-0.284 0-0.569 0-0.978 0z"></path>
</symbol>
<symbol id="icon-tech-details" viewBox="0 0 30 32">
<path d="M28.854 32h-28.012c-0.391 0-0.728-0.269-0.822-0.647-0.088-0.377 0.094-0.775 0.445-0.95l8.758-4.379v-3.079c0-0.465 0.377-0.842 0.842-0.842s0.842 0.377 0.842 0.842v3.597c0 0.317-0.182 0.613-0.465 0.755l-6.029 3.011h20.877l-6.029-3.011c-0.283-0.141-0.465-0.431-0.465-0.755v-3.597c0-0.465 0.377-0.842 0.842-0.842s0.842 0.377 0.842 0.842v3.079l8.758 4.379c0.35 0.175 0.532 0.566 0.445 0.95-0.088 0.377-0.431 0.647-0.822 0.647z"></path>
<path d="M11.325 32c-0.371 0-0.707-0.243-0.815-0.62l-1.26-4.608c-0.121-0.451 0.141-0.909 0.593-1.037 0.445-0.121 0.909 0.141 1.037 0.593l1.26 4.608c0.121 0.451-0.141 0.909-0.593 1.037-0.074 0.020-0.148 0.027-0.222 0.027z"></path>
<path d="M18.371 32c-0.074 0-0.148-0.007-0.222-0.027-0.451-0.121-0.714-0.586-0.593-1.037l1.26-4.608c0.121-0.451 0.586-0.714 1.037-0.593s0.714 0.586 0.593 1.037l-1.26 4.608c-0.101 0.377-0.445 0.62-0.815 0.62z"></path>
<path d="M15.165 25.512h-0.633c-4.177 0-7.572-3.395-7.572-7.572v-6.413c0-2.89 1.684-5.565 4.285-6.824 0.761-0.371 1.549 0.202 2.984 1.24 1.88 1.361 4.723 3.409 7.667 3.409 0.465 0 0.842 0.377 0.842 0.842v7.747c0 4.177-3.395 7.572-7.572 7.572zM11.776 6.319c-1.913 1.011-3.139 3.032-3.139 5.208v6.413c0 3.247 2.641 5.888 5.888 5.888h0.633c3.247 0 5.888-2.641 5.888-5.888v-6.946c-3.146-0.317-5.922-2.324-7.808-3.685-0.519-0.377-1.152-0.835-1.462-0.984z"></path>
<path d="M7.801 18.863h-2.513c-1.502 0-2.728-1.226-2.728-2.728v-4.056c0-1.502 1.226-2.728 2.728-2.728h2.648c0.465 0 0.842 0.377 0.842 0.842s-0.377 0.842-0.842 0.842h-2.648c-0.579 0-1.044 0.472-1.044 1.044v4.056c0 0.573 0.472 1.044 1.044 1.044h2.513c0.465 0 0.842 0.377 0.842 0.842s-0.377 0.842-0.842 0.842z"></path>
<path d="M24.408 18.863h-2.513c-0.465 0-0.842-0.377-0.842-0.842v-7.828c0-0.465 0.377-0.842 0.842-0.842h2.513c1.502 0 2.728 1.226 2.728 2.728v4.056c0 1.502-1.226 2.728-2.728 2.728zM22.737 17.179h1.671c0.579 0 1.044-0.472 1.044-1.044v-4.056c0-0.573-0.472-1.044-1.044-1.044h-1.671v6.144z"></path>
<path d="M17.24 21.080h-1.597c-0.465 0-0.842-0.377-0.842-0.842s0.377-0.842 0.842-0.842h1.597c0.707 0 1.388-0.209 1.974-0.6l2.216-1.475c0.384-0.256 0.909-0.155 1.165 0.236 0.256 0.384 0.155 0.909-0.236 1.165l-2.216 1.475c-0.862 0.579-1.873 0.883-2.91 0.883z"></path>
<path d="M5.827 29.507c-0.465 0-0.842-0.377-0.842-0.842v-10.644c0-0.465 0.377-0.842 0.842-0.842s0.842 0.377 0.842 0.842v10.644c0 0.465-0.377 0.842-0.842 0.842z"></path>
<path d="M23.869 29.507c-0.465 0-0.842-0.377-0.842-0.842v-10.644c0-0.465 0.377-0.842 0.842-0.842s0.842 0.377 0.842 0.842v10.644c0 0.465-0.377 0.842-0.842 0.842z"></path>
<path d="M23.869 11.035c-0.465 0-0.842-0.377-0.842-0.842v-0.323c0-4.514-3.672-8.179-8.179-8.179s-8.179 3.665-8.179 8.172v0.323c0 0.465-0.377 0.842-0.842 0.842s-0.842-0.377-0.842-0.842v-0.323c0-5.437 4.426-9.863 9.863-9.863s9.863 4.426 9.863 9.863v0.323c0 0.465-0.377 0.842-0.842 0.842z"></path>
</symbol>
<symbol id="icon-info-extra" viewBox="0 0 32 32">
<path d="M11.176 26.024h-6.481c-2.587 0-4.696-2.109-4.696-4.696v-16.633c0-2.587 2.109-4.696 4.696-4.696h22.602c2.587 0 4.696 2.109 4.696 4.696v10.213c0 0.465-0.377 0.842-0.842 0.842s-0.842-0.377-0.842-0.842v-10.213c0-1.657-1.354-3.011-3.011-3.011h-22.602c-1.657 0-3.011 1.354-3.011 3.011v16.633c0 1.657 1.354 3.011 3.011 3.011h6.481c0.465 0 0.842 0.377 0.842 0.842s-0.377 0.842-0.842 0.842z"></path>
<path d="M27.298 26.024c-0.465 0-0.842-0.377-0.842-0.842s0.377-0.842 0.842-0.842c1.657 0 3.011-1.354 3.011-3.011 0-0.465 0.377-0.842 0.842-0.842s0.842 0.377 0.842 0.842c0 2.587-2.109 4.696-4.696 4.696z"></path>
<path d="M13.427 6.824h-7.39c-0.465 0-0.842-0.377-0.842-0.842s0.377-0.842 0.842-0.842h7.384c0.465 0 0.842 0.377 0.842 0.842s-0.377 0.842-0.842 0.842z"></path>
<path d="M26.011 6.824h-7.384c-0.465 0-0.842-0.377-0.842-0.842s0.377-0.842 0.842-0.842h7.384c0.465 0 0.842 0.377 0.842 0.842s-0.377 0.842-0.842 0.842z"></path>
<path d="M26.011 11.958h-19.975c-0.465 0-0.842-0.377-0.842-0.842s0.377-0.842 0.842-0.842h19.975c0.465 0 0.842 0.377 0.842 0.842s-0.377 0.842-0.842 0.842z"></path>
<path d="M10.792 17.098h-4.749c-0.465 0-0.842-0.377-0.842-0.842s0.377-0.842 0.842-0.842h4.749c0.465 0 0.842 0.377 0.842 0.842s-0.377 0.842-0.842 0.842z"></path>
<path d="M21.713 32c-0.115 0-0.222-0.020-0.33-0.067l-2.243-0.95-2.243 0.95c-0.256 0.108-0.559 0.081-0.795-0.074s-0.377-0.418-0.377-0.701v-5.969c0-0.465 0.377-0.842 0.842-0.842s0.842 0.377 0.842 0.842v4.702l1.401-0.593c0.209-0.088 0.451-0.088 0.66 0l1.401 0.593v-4.702c0-0.465 0.377-0.842 0.842-0.842s0.842 0.377 0.842 0.842v5.976c0 0.283-0.141 0.546-0.377 0.701-0.141 0.094-0.303 0.141-0.465 0.141z"></path>
<path d="M19.207 26.348c-3.011 0-5.464-2.452-5.464-5.464s2.452-5.464 5.464-5.464 5.464 2.452 5.464 5.464-2.452 5.464-5.464 5.464zM19.207 17.098c-2.088 0-3.779 1.698-3.779 3.779s1.698 3.779 3.779 3.779 3.779-1.698 3.779-3.779-1.698-3.779-3.779-3.779z"></path>
</symbol>
<symbol id="icon-video" viewBox="0 0 33 32">
<path d="M14.693 18.088c-0.364 0-0.728-0.094-1.058-0.283-0.667-0.384-1.064-1.078-1.064-1.846v-6.703c0-0.775 0.397-1.462 1.064-1.846s1.455-0.384 2.122 0l5.773 3.348c0.667 0.384 1.058 1.071 1.058 1.846s-0.397 1.455-1.058 1.846l-5.773 3.348c-0.33 0.195-0.701 0.29-1.064 0.29zM14.693 8.812c-0.101 0-0.182 0.034-0.222 0.061-0.067 0.040-0.222 0.155-0.222 0.384v6.696c0 0.236 0.155 0.35 0.222 0.384 0.067 0.040 0.243 0.115 0.438 0v0l5.773-3.348c0.202-0.115 0.222-0.31 0.222-0.384s-0.020-0.269-0.222-0.384l-5.773-3.348c-0.081-0.047-0.155-0.061-0.216-0.061z"></path>
<path d="M28.537 25.209h-23.66c-2.688 0-4.877-2.189-4.877-4.877v-15.454c0-2.688 2.189-4.877 4.877-4.877h23.66c2.688 0 4.877 2.189 4.877 4.877v8.67c0 0.465-0.377 0.842-0.842 0.842s-0.842-0.377-0.842-0.842v-8.67c0-1.758-1.428-3.193-3.193-3.193h-23.66c-1.758 0-3.193 1.428-3.193 3.193v15.461c0 1.758 1.428 3.193 3.193 3.193h23.66c1.758 0 3.193-1.428 3.193-3.193 0-0.465 0.377-0.842 0.842-0.842s0.842 0.377 0.842 0.842c0 2.688-2.189 4.877-4.877 4.877z"></path>
<path d="M8.569 32h-7.727c-0.465 0-0.842-0.377-0.842-0.842s0.377-0.842 0.842-0.842h7.727c0.465 0 0.842 0.377 0.842 0.842s-0.377 0.842-0.842 0.842z"></path>
<path d="M32.573 32h-17.28c-0.465 0-0.842-0.377-0.842-0.842s0.377-0.842 0.842-0.842h17.273c0.465 0 0.842 0.377 0.842 0.842s-0.377 0.842-0.842 0.842z"></path>
</symbol>
<symbol id="icon-achievements" viewBox="0 0 32 32">
<path d="M7.936 25.438c-2.56 0-5.133-0.775-7.235-2.176l-0.701-0.465 3.025-4.541 0.701 0.465c1.839 1.226 4.204 1.583 6.326 0.95l0.478 1.617c-2.324 0.687-4.891 0.411-7.020-0.734l-1.165 1.745c2.317 1.3 5.14 1.765 7.781 1.24l0.33 1.651c-0.829 0.168-1.677 0.249-2.526 0.249z"></path>
<path d="M23.976 25.438c-0.842 0-1.691-0.081-2.526-0.249l0.33-1.651c2.634 0.525 5.457 0.061 7.781-1.24l-1.165-1.745c-2.129 1.145-4.696 1.421-7.020 0.734l0.478-1.617c2.122 0.633 4.487 0.276 6.326-0.95l0.701-0.465 3.025 4.541-0.701 0.465c-2.109 1.408-4.675 2.176-7.235 2.176z"></path>
<path d="M22.461 32h-13.009v-10.974c-2.957-1.421-5.376-3.813-6.865-6.777l-0.775-1.549 4.884-2.439 0.775 1.549c1.617 3.234 4.864 5.241 8.482 5.241s6.865-2.008 8.482-5.241l0.775-1.549 4.884 2.439-0.775 1.549c-1.482 2.964-3.907 5.356-6.865 6.777v10.974zM11.143 30.316h9.634v-10.381l0.505-0.222c2.823-1.233 5.14-3.443 6.535-6.218l0.020-0.040-1.866-0.936-0.020 0.040c-1.907 3.806-5.733 6.171-9.991 6.171s-8.084-2.365-9.991-6.171l-0.020-0.047-1.866 0.936 0.020 0.047c1.388 2.782 3.712 4.992 6.535 6.218l0.505 0.222v10.381z"></path>
<path d="M15.96 16.842c-2.547 0-4.615-2.068-4.615-4.615s2.068-4.615 4.615-4.615 4.615 2.068 4.615 4.615-2.068 4.615-4.615 4.615zM15.96 9.297c-1.617 0-2.931 1.314-2.931 2.931s1.314 2.931 2.931 2.931 2.931-1.314 2.931-2.931-1.314-2.931-2.931-2.931z"></path>
<path d="M15.117 0h1.684v5.524h-1.684v-5.524z"></path>
<path d="M6.097 4.5l1.191-1.191 3.859 3.859-1.191 1.191-3.859-3.859z"></path>
<path d="M20.775 7.162l3.859-3.859 1.191 1.191-3.859 3.859-1.191-1.191z"></path>
</symbol>
<symbol id="icon-benefits" viewBox="0 0 30 32">
<path d="M23.963 24.549c-3.294 0-5.982-2.681-5.982-5.982s2.681-5.982 5.982-5.982 5.982 2.681 5.982 5.982-2.681 5.982-5.982 5.982zM23.963 14.275c-2.371 0-4.298 1.927-4.298 4.298s1.927 4.298 4.298 4.298 4.298-1.927 4.298-4.298-1.927-4.298-4.298-4.298z"></path>
<path d="M26.536 32c-0.222 0-0.431-0.088-0.593-0.249l-1.974-1.974-1.974 1.974c-0.243 0.243-0.6 0.31-0.916 0.182s-0.519-0.438-0.519-0.775v-8.138c0-0.465 0.377-0.842 0.842-0.842s0.842 0.377 0.842 0.842v6.104l1.132-1.132c0.33-0.33 0.862-0.33 1.192 0l1.132 1.132v-6.104c0-0.465 0.377-0.842 0.842-0.842s0.842 0.377 0.842 0.842v8.138c0 0.344-0.202 0.647-0.519 0.775-0.108 0.040-0.216 0.067-0.323 0.067z"></path>
<path d="M13.689 16.842h-7.707c-0.465 0-0.842-0.377-0.842-0.842s0.377-0.842 0.842-0.842h7.707c0.465 0 0.842 0.377 0.842 0.842s-0.377 0.842-0.842 0.842z"></path>
<path d="M13.689 21.982h-7.707c-0.465 0-0.842-0.377-0.842-0.842s0.377-0.842 0.842-0.842h7.707c0.465 0 0.842 0.377 0.842 0.842s-0.377 0.842-0.842 0.842z"></path>
<path d="M13.689 27.116h-7.707c-0.465 0-0.842-0.377-0.842-0.842s0.377-0.842 0.842-0.842h7.707c0.465 0 0.842 0.377 0.842 0.842s-0.377 0.842-0.842 0.842z"></path>
<path d="M16.256 32h-12.847c-1.88 0-3.409-1.529-3.409-3.409v-14.902c0-1.88 1.529-3.409 3.409-3.409h5.14c0.95 0 1.725-0.775 1.725-1.725v-5.147c0-1.88 1.529-3.409 3.409-3.409h7.707c1.88 0 3.409 1.529 3.409 3.409v4.884c0 0.465-0.377 0.842-0.842 0.842s-0.842-0.377-0.842-0.842v-4.884c0-0.95-0.775-1.725-1.725-1.725h-7.707c-0.95 0-1.725 0.775-1.725 1.725v5.14c0 1.88-1.529 3.409-3.409 3.409h-5.14c-0.95 0-1.725 0.775-1.725 1.725v14.902c0 0.95 0.775 1.725 1.725 1.725h12.847c0.465 0 0.842 0.377 0.842 0.842s-0.377 0.842-0.842 0.842z"></path>
<path d="M1.597 12.712c-0.216 0-0.431-0.081-0.593-0.249-0.33-0.33-0.33-0.862 0-1.192l10.274-10.274c0.33-0.33 0.862-0.33 1.192 0s0.33 0.862 0 1.192l-10.28 10.274c-0.162 0.162-0.377 0.249-0.593 0.249z"></path>
<path d="M18.829 9.391h-2.567c-0.465 0-0.842-0.377-0.842-0.842s0.377-0.842 0.842-0.842h2.567c0.465 0 0.842 0.377 0.842 0.842s-0.377 0.842-0.842 0.842z"></path>
</symbol>
<symbol id="icon-theme" viewBox="0 0 34 32">
<path d="M17.105 32c-0.317 0-0.613-0.182-0.755-0.465l-2.526-5.046h-10.227c-1.981 0-3.597-1.617-3.597-3.597v-19.294c0-1.981 1.617-3.597 3.597-3.597h27.008c1.987 0 3.597 1.617 3.597 3.597v19.294c0 1.981-1.617 3.597-3.597 3.597h-10.227l-2.526 5.046c-0.141 0.283-0.431 0.465-0.755 0.465zM3.597 1.684c-1.058 0-1.913 0.856-1.913 1.913v19.294c0 1.058 0.856 1.913 1.913 1.913h10.752c0.317 0 0.613 0.182 0.755 0.465l2.001 4.008 2.001-4.008c0.141-0.283 0.431-0.465 0.755-0.465h10.752c1.058 0 1.913-0.856 1.913-1.913v-19.294c0-1.058-0.856-1.913-1.913-1.913h-27.015z"></path>
<path d="M8.832 20.979c-0.465 0-0.842-0.377-0.842-0.842v-8.266c0-0.465 0.377-0.842 0.842-0.842s0.842 0.377 0.842 0.842v8.266c0 0.465-0.377 0.842-0.842 0.842z"></path>
<path d="M8.832 9.472c-0.465 0-0.842-0.377-0.842-0.842v-2.398c0-0.465 0.377-0.842 0.842-0.842s0.842 0.377 0.842 0.842v2.398c0 0.465-0.377 0.842-0.842 0.842z"></path>
<path d="M25.371 8.576h-8.266c-0.465 0-0.842-0.377-0.842-0.842s0.377-0.842 0.842-0.842h8.266c0.465 0 0.842 0.377 0.842 0.842s-0.377 0.842-0.842 0.842z"></path>
<path d="M25.371 14.087h-8.266c-0.465 0-0.842-0.377-0.842-0.842s0.377-0.842 0.842-0.842h8.266c0.465 0 0.842 0.377 0.842 0.842s-0.377 0.842-0.842 0.842z"></path>
<path d="M25.371 19.597h-8.266c-0.465 0-0.842-0.377-0.842-0.842s0.377-0.842 0.842-0.842h8.266c0.465 0 0.842 0.377 0.842 0.842s-0.377 0.842-0.842 0.842z"></path>
</symbol>
<symbol id="icon-location" viewBox="0 0 32 32">
<path d="M12.699 20.271c-4.177 0-7.572-3.395-7.572-7.572s3.395-7.572 7.572-7.572 7.572 3.395 7.572 7.572c0 0.465-0.377 0.842-0.842 0.842s-0.842-0.377-0.842-0.842c0-3.247-2.641-5.888-5.888-5.888s-5.888 2.641-5.888 5.888 2.641 5.888 5.888 5.888c0.465 0 0.842 0.377 0.842 0.842s-0.377 0.842-0.842 0.842z"></path>
<path d="M12.315 31.939c-0.276 0-0.552-0.141-0.714-0.391-1.428-2.257-3.2-4.197-4.911-6.077-3.436-3.766-6.69-7.323-6.69-12.787 0.007-6.993 5.706-12.685 12.699-12.685s12.692 5.693 12.699 12.685c0 0.465-0.377 0.842-0.842 0.842v0c-0.465 0-0.842-0.377-0.842-0.842-0.007-6.070-4.952-11.001-11.015-11.001s-11.008 4.938-11.015 11.001c0 4.81 2.897 7.976 6.252 11.648 1.765 1.933 3.591 3.928 5.093 6.312 0.249 0.391 0.128 0.916-0.263 1.159-0.141 0.088-0.296 0.128-0.451 0.128z"></path>
<path d="M26.462 32h-7.202c-1.745 0-3.166-1.421-3.166-3.173v-6.771c0-0.465 0.377-0.842 0.842-0.842s0.842 0.377 0.842 0.842v6.771c0 0.822 0.667 1.489 1.482 1.489h7.202c0.822 0 1.482-0.667 1.482-1.489v-7.155c0-0.465 0.377-0.842 0.842-0.842s0.842 0.377 0.842 0.842v7.155c0 1.752-1.421 3.173-3.166 3.173z"></path>
<path d="M31.091 24.63c-0.202 0-0.404-0.074-0.566-0.222l-6.616-6.050c-0.579-0.532-1.455-0.532-2.041 0l-6.616 6.050c-0.344 0.317-0.876 0.29-1.192-0.054s-0.29-0.876 0.054-1.192l6.616-6.050c1.226-1.125 3.085-1.125 4.312 0l6.616 6.050c0.344 0.317 0.364 0.849 0.054 1.192-0.168 0.182-0.391 0.276-0.62 0.276z"></path>
</symbol>
<symbol id="icon-google" viewBox="0 0 32 32">
<path d="M15.498 14.063l10.369 0.014c0.905 4.288-0.75 12.922-10.369 12.922-6.076 0-11.002-4.925-11.002-11s4.926-11 11.002-11c2.854 0 5.453 1.087 7.409 2.868l-3.096 3.095c-1.16-0.994-2.665-1.598-4.313-1.598-3.665 0-6.636 2.97-6.636 6.635s2.971 6.635 6.636 6.635c3.078 0 5.206-1.822 5.989-4.369h-5.989v-4.203z"></path>
</symbol>
<symbol id="icon-reviews" viewBox="0 0 28 32">
<path d="M27.648 13.389h-22.97c-0.109 0-0.218 0-0.275 0.058l-4.128 2.17c-0.166 0.109-0.275 0.275-0.275 0.493s0.109 0.384 0.275 0.493l4.134 2.176c0.109 0.058 0.166 0.058 0.275 0.058h22.963c0.326 0 0.544-0.218 0.544-0.544v-4.352c0-0.326-0.218-0.544-0.544-0.544zM4.794 14.477h19.046v1.088h-16.877v1.088h16.87v1.088h-18.502v-2.176h-1.088v1.907l-2.56-1.363 3.104-1.632zM27.104 17.741h-2.176v-3.264h2.176v3.264z"></path>
<path d="M3.155 4.678c0-0.326 0.218-0.544 0.544-0.544h9.254c0.326 0 0.544 0.218 0.544 0.544v5.984h1.088v-5.984c0-0.928-0.71-1.632-1.632-1.632h-9.254c-0.928 0-1.632 0.71-1.632 1.632v5.984h1.088v-5.984z"></path>
<path d="M24.928 28.083c0 0.326-0.218 0.544-0.544 0.544h-9.254c-0.326 0-0.544-0.218-0.544-0.544v-7.072h-1.088v7.072c0 0.928 0.71 1.632 1.632 1.632h9.254c0.928 0 1.632-0.71 1.632-1.632v-7.072h-1.088v7.072z"></path>
<path d="M3.155 26.72v-6.803h-1.088v6.803c-1.197 0.275-2.067 1.306-2.067 2.611 0 1.472 1.197 2.669 2.669 2.669s2.669-1.197 2.669-2.669c0-1.306-0.928-2.394-2.176-2.611zM2.662 30.912c-0.87 0-1.581-0.71-1.581-1.581s0.71-1.581 1.581-1.581 1.581 0.71 1.581 1.581-0.71 1.581-1.581 1.581z"></path>
<path d="M24.928 5.28v5.389h1.088v-5.389c1.254-0.218 2.176-1.306 2.176-2.611 0-1.472-1.197-2.669-2.669-2.669s-2.669 1.197-2.669 2.669c0 1.254 0.87 2.342 2.067 2.611zM25.53 1.088c0.87 0 1.581 0.71 1.581 1.581s-0.71 1.581-1.581 1.581-1.581-0.71-1.581-1.581 0.71-1.581 1.581-1.581z"></path>
</symbol>
<symbol id="icon-book" viewBox="0 0 42 32">
<path d="M41.878 13.033c-0.335 0-0.605 0.271-0.605 0.605v3.784c0 0.335 0.271 0.605 0.605 0.605s0.605-0.271 0.605-0.605v-3.784c0-0.335-0.271-0.605-0.605-0.605z"></path>
<path d="M41.878 19.852c-0.335 0-0.605 0.271-0.605 0.605v3.784c0 0.335 0.271 0.605 0.605 0.605s0.605-0.271 0.605-0.605v-3.784c0-0.335-0.271-0.605-0.605-0.605z"></path>
<path d="M41.878 5.043h-2.549v-2.318c0-0.335-0.271-0.605-0.605-0.605h-2.605v-1.498c0-0.327-0.263-0.597-0.59-0.605-6.198-0.191-10.754 1.33-14.283 4.772-3.545-3.441-8.102-4.963-14.291-4.772-0.327 0.008-0.59 0.279-0.59 0.605v1.498h-2.597c-0.335 0-0.605 0.271-0.605 0.605v2.31h-2.557c-0.335 0-0.605 0.271-0.605 0.605v25.755c0 0.335 0.271 0.605 0.605 0.605h41.273c0.335 0 0.605-0.271 0.605-0.605v-4.119c0-0.335-0.271-0.605-0.605-0.605s-0.605 0.271-0.605 0.605v3.505h-40.062v-24.528h1.952v21.827c0 0.335 0.271 0.605 0.605 0.605h17.39s0.008 0 0.016 0c0 0 0 0 0 0 0.024 0 0.048 0 0.064 0v0s0.064 0 0.096 0h17.382c0.335 0 0.605-0.271 0.605-0.605v-21.827h1.944v4.349c0 0.335 0.271 0.605 0.605 0.605s0.605-0.271 0.605-0.605v-4.955c0-0.335-0.271-0.605-0.605-0.605zM34.9 1.219v22.807c-1.968 0.279-8.819 1.346-13.056 3.115v-21.254c3.218-3.25 7.377-4.74 13.056-4.668zM20.632 5.895v21.254c-4.246-1.768-11.105-2.836-13.056-3.115v-21.238s0-0.048 0-0.072 0-0.048 0-0.072v-1.434c5.672-0.088 9.846 1.418 13.056 4.676zM4.365 5.712s0-0.040 0-0.064 0-0.040 0-0.064v-2.254h1.992v21.23c0 0.319 0.247 0.582 0.558 0.605 0.446 0.064 6.413 0.876 11.017 2.31h-13.558v-21.771zM24.536 27.475c4.549-1.41 10.436-2.231 11.001-2.31 0.279-0.016 0.51-0.223 0.558-0.502 0 0 0-0.008 0-0.016 0-0.016 0-0.032 0-0.040s0-0.016 0-0.024c0 0 0-0.016 0-0.024v-21.222h1.999v2.231s0 0.056 0 0.080 0 0.056 0 0.080v21.748h-13.55z"></path>
<path d="M24.273 9.974c0.112 0 0.223-0.032 0.319-0.088 2.398-1.522 5.154-2.366 7.99-2.462 0.335-0.008 0.597-0.287 0.59-0.621s-0.287-0.597-0.621-0.59c-3.051 0.096-6.022 1.012-8.595 2.645-0.175 0.112-0.287 0.303-0.287 0.518 0 0.335 0.271 0.605 0.605 0.605z"></path>
<path d="M24.273 14.18c0.112 0 0.223-0.032 0.319-0.088 2.398-1.522 5.154-2.366 7.99-2.462 0.335-0.008 0.597-0.287 0.59-0.621 0-0.008 0-0.024 0-0.032-0.016-0.327-0.295-0.574-0.621-0.558-3.051 0.096-6.014 1.012-8.595 2.645-0.175 0.112-0.287 0.303-0.287 0.518 0 0.335 0.271 0.605 0.605 0.605z"></path>
<path d="M24.273 18.386v0c0.112 0 0.223-0.032 0.319-0.088 2.398-1.522 5.154-2.374 7.99-2.462 0.335-0.008 0.597-0.287 0.59-0.621s-0.287-0.597-0.621-0.589c-3.051 0.096-6.022 1.012-8.595 2.645-0.175 0.112-0.287 0.303-0.287 0.518 0 0.335 0.271 0.605 0.605 0.605z"></path>
<path d="M24.273 22.592c0.112 0 0.223-0.032 0.319-0.096 2.398-1.522 5.154-2.374 7.99-2.462 0.335-0.008 0.597-0.287 0.59-0.621s-0.287-0.597-0.621-0.59c-3.051 0.096-6.022 1.012-8.595 2.645-0.183 0.112-0.287 0.311-0.287 0.518 0 0.335 0.279 0.605 0.613 0.605z"></path>
<path d="M9.902 7.424c2.836 0.088 5.592 0.94 7.99 2.462 0.096 0.064 0.207 0.088 0.319 0.096v0c0.207 0 0.406-0.112 0.518-0.287 0.175-0.287 0.088-0.661-0.191-0.836-2.581-1.633-5.544-2.549-8.595-2.645-0.335 0-0.613 0.255-0.621 0.59s0.255 0.613 0.589 0.621z"></path>
<path d="M9.902 11.631c2.836 0.088 5.592 0.94 7.99 2.462 0.096 0.064 0.207 0.088 0.319 0.096 0.207 0 0.406-0.112 0.518-0.287 0.175-0.287 0.088-0.661-0.191-0.836-2.573-1.633-5.544-2.549-8.595-2.645 0 0-0.008 0-0.016 0-0.327 0-0.605 0.255-0.605 0.589-0.008 0.335 0.255 0.613 0.589 0.621z"></path>
<path d="M9.902 15.829c2.836 0.088 5.592 0.94 7.99 2.462 0.096 0.064 0.207 0.088 0.319 0.096v0c0.207 0 0.406-0.112 0.518-0.287 0.175-0.287 0.088-0.661-0.191-0.836-2.581-1.633-5.544-2.549-8.595-2.645-0.335-0.008-0.613 0.255-0.621 0.589s0.255 0.613 0.589 0.621z"></path>
<path d="M18.537 21.461c-2.581-1.633-5.544-2.549-8.595-2.645-0.335 0-0.605 0.255-0.621 0.59-0.008 0.335 0.255 0.613 0.589 0.621 2.836 0.088 5.592 0.94 7.99 2.462 0.096 0.064 0.207 0.088 0.319 0.096v0c0.207 0 0.406-0.112 0.518-0.287 0.175-0.287 0.088-0.661-0.191-0.836z"></path>
</symbol>
<symbol id="icon-medal" viewBox="0 0 24 32">
<path d="M2.502 11.875c0 5.172 4.206 9.373 9.373 9.373s9.373-4.206 9.373-9.373-4.206-9.373-9.373-9.373-9.373 4.206-9.373 9.373zM11.875 3.75c4.482 0 8.124 3.642 8.124 8.124s-3.642 8.124-8.124 8.124-8.124-3.642-8.124-8.124 3.642-8.124 8.124-8.124z"></path>
<path d="M6.084 10.759l2.424 2.388-0.558 3.354c-0.036 0.234 0.060 0.468 0.252 0.606s0.444 0.156 0.654 0.048l3.018-1.566 3.018 1.566c0.21 0.108 0.462 0.090 0.654-0.048s0.288-0.372 0.252-0.606l-0.558-3.354 2.424-2.388c0.168-0.168 0.228-0.414 0.156-0.636-0.072-0.228-0.27-0.39-0.504-0.426l-3.36-0.504-1.524-3.042c-0.108-0.21-0.324-0.348-0.558-0.348s-0.456 0.132-0.558 0.348l-1.524 3.042-3.36 0.504c-0.234 0.036-0.426 0.198-0.504 0.426-0.072 0.228-0.012 0.474 0.156 0.636zM10.297 10.375c0.204-0.030 0.372-0.156 0.468-0.336l1.11-2.214 1.11 2.214c0.090 0.18 0.264 0.306 0.468 0.336l2.448 0.366-1.764 1.74c-0.144 0.144-0.21 0.348-0.18 0.546l0.408 2.442-2.196-1.14c-0.090-0.048-0.186-0.072-0.288-0.072s-0.198 0.024-0.288 0.072l-2.196 1.14 0.408-2.442c0.036-0.198-0.030-0.408-0.18-0.546l-1.764-1.74 2.448-0.366z"></path>
<path d="M12.499 0.624c0 0.348-0.282 0.624-0.624 0.624s-0.624-0.282-0.624-0.624 0.282-0.624 0.624-0.624 0.624 0.282 0.624 0.624z"></path>
<path d="M8.929 0.366c-5.256 1.344-8.929 6.078-8.929 11.509 0 3.372 1.416 6.552 3.912 8.809l-3.768 6.636c-0.12 0.216-0.108 0.48 0.036 0.678s0.39 0.294 0.63 0.246l4.278-0.888 1.5 4.236c0.084 0.228 0.288 0.39 0.534 0.414s0.48-0.102 0.6-0.312l4.152-7.296 4.152 7.296c0.114 0.198 0.318 0.318 0.54 0.318 0.018 0 0.036 0 0.054 0 0.246-0.024 0.45-0.186 0.534-0.414l1.5-4.236 4.278 0.888c0.24 0.048 0.486-0.048 0.63-0.246s0.162-0.462 0.036-0.678l-3.768-6.636c2.49-2.25 3.912-5.43 3.912-8.809 0-5.43-3.672-10.165-8.929-11.509-0.336-0.084-0.672 0.114-0.762 0.45s0.114 0.672 0.45 0.762c4.704 1.2 7.987 5.436 7.987 10.297 0 5.916-4.806 10.627-10.627 10.627s-10.615-4.716-10.615-10.633c0-4.86 3.288-9.097 7.992-10.297 0.336-0.084 0.534-0.426 0.45-0.762s-0.426-0.534-0.762-0.45zM7.314 29.876l-1.23-3.462c-0.102-0.294-0.408-0.468-0.714-0.402l-3.456 0.72 2.982-5.25c1.74 1.266 3.792 2.034 5.934 2.226l-3.51 6.174zM18.379 26.012c-0.306-0.066-0.612 0.108-0.714 0.402l-1.23 3.462-3.51-6.174c2.142-0.192 4.194-0.96 5.934-2.226l2.982 5.25-3.456-0.72z"></path>
</symbol>
<symbol id="icon-logo" viewBox="0 0 92 32">
<path d="M14.716 30.328l-0.499-1.45h-7.612l-0.499 1.45c-0.277 0.794-1.016 1.33-1.857 1.33h-4.249l7.27-19.316h6.282l7.27 19.316h-4.24c-0.841 0-1.589-0.536-1.857-1.33zM10.42 17.266l-2.457 7.27h4.896l-2.43-7.27z"></path>
<path d="M20.822 31.658v-19.316h9.672c4.342 0 6.716 2.928 6.716 6.43s-2.374 6.402-6.716 6.402h-4.693v4.517c0 1.090-0.878 1.968-1.968 1.968h-3.012zM32.148 18.771c0-1.33-1.072-2.088-2.402-2.088h-3.935v4.139h3.935c1.33 0 2.402-0.748 2.402-2.060z"></path>
<path d="M36.573 28.933l1.45-2.134c0.6-0.887 1.792-1.109 2.697-0.545 1.266 0.794 2.855 1.349 4.684 1.349 1.681 0 2.725-0.582 2.725-1.534 0-2.55-10.919-0.434-10.919-7.88 0-3.242 2.725-6.143 7.677-6.143 3.095 0 5.792 0.924 7.852 2.697l-1.617 2.217c-0.582 0.804-1.663 1.025-2.54 0.554-1.33-0.711-2.827-1.062-4.212-1.062s-2.088 0.49-2.088 1.33c0 2.374 10.919 0.582 10.919 7.76 0 3.88-2.864 6.457-8.055 6.457-3.908 0-6.633-1.247-8.573-3.067z"></path>
<path d="M66.042 30.328l-0.499-1.45h-7.612l-0.499 1.45c-0.277 0.794-1.016 1.33-1.857 1.33h-4.24l7.27-19.316h6.282l7.27 19.316h-4.24c-0.841 0-1.589-0.536-1.857-1.33zM61.746 17.266l-2.457 7.27h4.896l-2.43-7.27z"></path>
<path d="M72.111 31.658v-19.316h9.672c4.342 0 6.716 2.928 6.716 6.43s-2.374 6.402-6.716 6.402h-4.693v4.517c0 1.090-0.878 1.968-1.968 1.968h-3.012zM83.436 18.771c0-1.33-1.072-2.088-2.402-2.088h-3.935v4.139h3.935c1.33 0 2.402-0.748 2.402-2.060z"></path>
<path d="M0.628 2.891c0-1.718 1.256-2.891 2.864-2.891 0.988 0 1.672 0.471 2.115 1.109l-0.582 0.323c-0.314-0.48-0.905-0.813-1.543-0.813-1.21 0-2.134 0.933-2.134 2.273s0.933 2.263 2.152 2.263c0.637 0 1.219-0.342 1.543-0.813l0.582 0.314c-0.471 0.647-1.136 1.109-2.125 1.109-1.607 0-2.873-1.173-2.873-2.891z"></path>
<path d="M6.503 5.672v-5.58h3.658v0.619h-2.965v1.801h2.901v0.619h-2.901v1.921h2.965v0.619h-3.658z"></path>
<path d="M15.215 5.672l-3.252-4.453v4.453h-0.693v-5.58h0.711l3.215 4.36v-4.36h0.693v5.58h-0.665z"></path>
<path d="M18.568 5.672v-4.961h-1.764v-0.619h4.231v0.619h-1.774v4.961h-0.693z"></path>
<path d="M25.192 5.672l-1.413-2.217h-1.118v2.217h-0.693v-5.58h2.245c1.025 0 1.755 0.656 1.755 1.681s-0.693 1.552-1.46 1.626l1.506 2.273h-0.822zM25.238 1.774c0-0.637-0.462-1.062-1.118-1.062h-1.469v2.134h1.469c0.665 0 1.118-0.443 1.118-1.072z"></path>
<path d="M27.058 3.51v-3.418h0.702v3.4c0 1.025 0.545 1.663 1.57 1.663s1.58-0.647 1.58-1.663v-3.4h0.702v3.409c0 1.386-0.767 2.273-2.282 2.273s-2.273-0.896-2.273-2.263z"></path>
<path d="M32.831 5.672v-5.58h0.693v4.961h2.596v0.619h-3.289z"></path>
<path d="M39.215 5.672v-5.58h1.912c1.737 0 2.864 1.21 2.864 2.799s-1.118 2.79-2.864 2.79h-1.912zM43.261 2.882c0-1.201-0.758-2.18-2.143-2.18h-1.21v4.351h1.21c1.358 0 2.143-0.97 2.143-2.171z"></path>
<path d="M45.072 5.672v-5.58h3.658v0.619h-2.965v1.801h2.901v0.619h-2.901v1.921h2.965v0.619h-3.658z"></path>
<path d="M52 5.672v-5.58h3.658v0.619h-2.965v1.801h2.901v0.619h-2.901v2.54h-0.693z"></path>
<path d="M56.379 2.891c0-1.644 1.118-2.891 2.771-2.891s2.781 1.238 2.781 2.891-1.127 2.891-2.781 2.891-2.771-1.238-2.771-2.891zM61.21 2.891c0-1.303-0.813-2.263-2.060-2.263s-2.051 0.961-2.051 2.263 0.794 2.263 2.051 2.263 2.060-0.97 2.060-2.263z"></path>
<path d="M66.236 5.672l-1.413-2.217h-1.118v2.217h-0.693v-5.58h2.245c1.025 0 1.755 0.656 1.755 1.681s-0.693 1.552-1.46 1.626l1.506 2.273h-0.822zM66.282 1.774c0-0.637-0.462-1.062-1.118-1.062h-1.469v2.134h1.469c0.665 0 1.118-0.443 1.118-1.072z"></path>
<path d="M72.868 5.672v-4.693l-1.894 4.693h-0.286l-1.903-4.693v4.693h-0.693v-5.58h0.998l1.737 4.305 1.746-4.305h0.998v5.58h-0.693z"></path>
<path d="M78.855 5.672l-0.49-1.247h-2.781l-0.49 1.247h-0.794l2.245-5.58h0.859l2.245 5.58h-0.794zM76.97 0.804l-1.182 3.012h2.365l-1.192-3.012z"></path>
<path d="M83.603 5.672l-1.413-2.217h-1.118v2.217h-0.693v-5.58h2.245c1.025 0 1.755 0.656 1.755 1.681s-0.693 1.552-1.46 1.626l1.506 2.273h-0.822zM83.649 1.774c0-0.637-0.462-1.062-1.118-1.062h-1.469v2.134h1.469c0.665 0 1.118-0.443 1.118-1.072z"></path>
<path d="M85.469 5.672v-5.58h3.658v0.619h-2.965v1.801h2.901v0.619h-2.901v1.921h2.965v0.619h-3.658z"></path>
<path d="M92.379 11.169c0 1.118-0.859 2.014-1.958 2.014s-1.977-0.896-1.977-2.014 0.868-2.005 1.986-2.005 1.949 0.896 1.949 2.005zM88.767 11.187c0 0.97 0.711 1.727 1.654 1.727 0.915 0.009 1.635-0.758 1.635-1.746s-0.711-1.737-1.635-1.737-1.644 0.767-1.644 1.755zM91.215 10.43c-0.083-0.046-0.323-0.148-0.628-0.148-0.61 0-0.915 0.388-0.915 0.915s0.314 0.915 0.915 0.915c0.259 0 0.508-0.074 0.656-0.166l0.074 0.249c-0.231 0.148-0.527 0.203-0.804 0.203-0.757 0-1.192-0.517-1.192-1.173 0-0.739 0.582-1.21 1.238-1.21 0.342 0 0.628 0.102 0.711 0.176l-0.074 0.249z"></path>
</symbol>
<symbol id="icon-acreditat" viewBox="0 0 28 32">
<path d="M13.754 12.088c-0.109 0-0.229-0.024-0.338-0.060l-12.848-5.144c-0.35-0.133-0.568-0.471-0.568-0.845s0.229-0.7 0.568-0.845l12.848-5.132c0.217-0.085 0.459-0.085 0.676 0l12.848 5.144c0.35 0.133 0.568 0.471 0.568 0.845s-0.229 0.7-0.568 0.845l-12.848 5.144c-0.109 0.048-0.217 0.060-0.338 0.060zM3.345 6.050l10.409 4.166 10.409-4.166-10.409-4.166-10.409 4.166z"></path>
<path d="M26.602 15.94c-0.495 0-0.906-0.411-0.906-0.906v-8.984c0-0.495 0.411-0.906 0.906-0.906s0.906 0.411 0.906 0.906v8.996c0 0.495-0.411 0.906-0.906 0.906z"></path>
<path d="M21.458 17.232h-15.42c-0.495 0-0.906-0.411-0.906-0.906v-8.223c0-0.495 0.411-0.906 0.906-0.906s0.906 0.411 0.906 0.906v7.318h13.609v-7.318c0-0.495 0.411-0.906 0.906-0.906s0.906 0.411 0.906 0.906v8.223c0 0.495-0.411 0.906-0.906 0.906z"></path>
<path d="M26.602 26.856h-25.697c-0.495 0-0.906-0.411-0.906-0.906v-5.144c0-0.495 0.411-0.906 0.906-0.906h25.697c0.495 0 0.906 0.411 0.906 0.906v5.144c0 0.495-0.411 0.906-0.906 0.906zM1.811 25.045h23.885v-3.333h-23.885v3.333z"></path>
<path d="M17.606 32c-2.62 0-4.758-2.137-4.758-4.758v-6.424c0-0.495 0.411-0.906 0.906-0.906s0.906 0.411 0.906 0.906v6.424c0 1.63 1.316 2.946 2.946 2.946 0.495 0 0.906 0.411 0.906 0.906s-0.411 0.906-0.906 0.906z"></path>
<path d="M9.902 32c-0.495 0-0.906-0.411-0.906-0.906s0.411-0.906 0.906-0.906c1.63 0 2.946-1.328 2.946-2.946 0-0.495 0.411-0.906 0.906-0.906s0.906 0.411 0.906 0.906c0 2.62-2.137 4.758-4.758 4.758z"></path>
</symbol>
<symbol id="icon-live" viewBox="0 0 32 32">
<path d="M5.772 32h-2.306c-1.908 0-3.466-1.558-3.466-3.466v-7.68c0-0.495 0.411-0.906 0.906-0.906s0.906 0.411 0.906 0.906v7.68c0 0.906 0.737 1.654 1.654 1.654h2.306c0.495 0 0.906 0.411 0.906 0.906s-0.411 0.906-0.906 0.906z"></path>
<path d="M10.88 32c-0.495 0-0.906-0.411-0.906-0.906v-10.228c0-0.495 0.411-0.906 0.906-0.906s0.906 0.411 0.906 0.906v10.228c0 0.495-0.411 0.906-0.906 0.906z"></path>
<path d="M18.56 32c-0.374 0-0.712-0.229-0.845-0.592l-3.84-10.228c-0.181-0.471 0.060-0.99 0.531-1.171s0.99 0.060 1.171 0.531l2.995 7.97 2.995-7.97c0.169-0.471 0.7-0.7 1.171-0.531 0.471 0.181 0.7 0.7 0.531 1.171l-3.84 10.228c-0.133 0.35-0.471 0.592-0.845 0.592z"></path>
<path d="M31.094 32h-2.306c-1.908 0-3.466-1.558-3.466-3.466v-5.12c0-1.908 1.558-3.466 3.466-3.466h2.306c0.495 0 0.906 0.411 0.906 0.906s-0.411 0.906-0.906 0.906h-2.306c-0.906 0-1.654 0.737-1.654 1.654v5.12c0 0.906 0.737 1.654 1.654 1.654h2.306c0.495 0 0.906 0.411 0.906 0.906s-0.411 0.906-0.906 0.906z"></path>
<path d="M31.094 26.88h-4.866c-0.495 0-0.906-0.411-0.906-0.906s0.411-0.906 0.906-0.906h4.866c0.495 0 0.906 0.411 0.906 0.906s-0.411 0.906-0.906 0.906z"></path>
<path d="M15.746 16.652h-12.281c-1.908 0-3.466-1.558-3.466-3.466v-9.721c0-1.908 1.558-3.466 3.466-3.466h12.281c1.908 0 3.466 1.558 3.466 3.466v9.721c0 1.908-1.558 3.466-3.466 3.466zM3.466 1.811c-0.906 0-1.654 0.737-1.654 1.654v9.721c0 0.906 0.737 1.654 1.654 1.654h12.281c0.906 0 1.654-0.737 1.654-1.654v-9.721c0-0.906-0.737-1.654-1.654-1.654h-12.281z"></path>
<path d="M28.534 14.599c-0.604 0-1.208-0.157-1.727-0.459l-3.84-2.222c-0.435-0.254-0.58-0.809-0.326-1.232 0.254-0.435 0.797-0.58 1.232-0.326l3.84 2.222c0.254 0.145 0.531 0.217 0.821 0.217 0.906 0 1.654-0.737 1.654-1.654v-5.12c0-0.906-0.737-1.654-1.654-1.654-0.29 0-0.58 0.072-0.821 0.217l-3.84 2.222c-0.435 0.254-0.99 0.097-1.232-0.326-0.254-0.435-0.097-0.99 0.326-1.232l3.84-2.222c0.519-0.302 1.123-0.459 1.727-0.459 1.908 0 3.466 1.558 3.466 3.466v5.12c0 1.908-1.558 3.466-3.466 3.466z"></path>
<path d="M6.014 6.931c-0.229 0-0.471-0.097-0.628-0.266-0.181-0.169-0.278-0.399-0.278-0.64s0.097-0.471 0.278-0.64c0.242-0.254 0.64-0.338 0.978-0.193 0.109 0.048 0.217 0.109 0.29 0.193 0.169 0.169 0.278 0.399 0.278 0.64s-0.109 0.471-0.278 0.64c-0.072 0.085-0.181 0.157-0.29 0.193-0.109 0.048-0.229 0.072-0.35 0.072z"></path>
</symbol>
<symbol id="icon-keys" viewBox="0 0 31 32">
<path d="M9.474 18.88c-0.514 0-0.937 0.423-0.937 0.937v2.811h-2.709v-2.811c0-0.514-0.423-0.937-0.937-0.937s-0.937 0.423-0.937 0.937v7.497c0 0.514 0.423 0.937 0.937 0.937s0.937-0.423 0.937-0.937v-2.811h2.709v2.811c0 0.514 0.423 0.937 0.937 0.937s0.937-0.423 0.937-0.937v-7.497c0-0.514-0.423-0.937-0.937-0.937z"></path>
<path d="M30.914 25.246v0s-0.697-3.829-0.697-3.829c-0.057-0.286-0.24-0.537-0.503-0.674l-1.714-0.857-0.343-1.12c-0.091-0.297-0.32-0.526-0.617-0.617l-1.040-0.32-0.32-1.040c-0.091-0.297-0.32-0.526-0.617-0.617l-1.040-0.32-0.32-1.040c-0.046-0.149-0.126-0.274-0.229-0.389l-1.703-1.703 0.274-0.274c0.651-0.651 1.006-1.509 1.006-2.434s-0.354-1.783-1.006-2.434l-4.183-4.183c-0.651-0.651-1.509-1.006-2.434-1.006-0.423 0-0.846 0.080-1.234 0.229-1.246-1.589-3.2-2.617-5.371-2.617-3.76 0-6.811 3.051-6.811 6.8 0 0.503 0.057 0.994 0.16 1.474-1.234 0.183-2.171 1.257-2.171 2.537v18.629c0 1.417 1.154 2.56 2.56 2.56h9.257c1.417 0 2.56-1.154 2.56-2.56v-10.983c0.080 0 0.149 0 0.229 0 0.914 0 1.783-0.354 2.434-1.006l0.274-0.274 8.194 8.194c0.137 0.137 0.309 0.229 0.491 0.263l3.829 0.697s0.114 0.011 0.171 0.011c0.251 0 0.48-0.103 0.663-0.274 0.217-0.217 0.309-0.526 0.263-0.834zM8.823 1.874c1.554 0 2.949 0.731 3.851 1.863l-4.514 4.514h-4.057c-0.149-0.469-0.217-0.949-0.217-1.451 0-2.72 2.217-4.926 4.937-4.926zM12.503 29.44v0c0 0.377-0.309 0.686-0.686 0.686h-9.257c-0.377 0-0.686-0.309-0.686-0.686v-18.629c0-0.377 0.309-0.686 0.686-0.686h0.891s0.023 0 0.023 0h3.577c-0.091 0.457-0.103 0.926 0 1.383-0.354 0.057-0.663 0.297-0.766 0.663-0.149 0.503 0.149 1.017 0.64 1.166 0.446 0.126 0.903 0.206 1.371 0.251l3.874 3.874c0.103 0.103 0.217 0.194 0.331 0.286v11.691zM26.617 23.851l-8.571-8.571c-0.274-0.274-0.686-0.354-1.040-0.194-0.057 0.023-0.126 0.057-0.217 0.091-0.126 0.046-0.24 0.114-0.331 0.217l-0.754 0.754c-0.297 0.297-0.686 0.457-1.109 0.457s-0.811-0.16-1.109-0.457l-4.103-4.103s-0.011-0.011-0.023-0.023l-0.057-0.057c-0.549-0.549-0.606-1.394-0.171-2 0.114-0.080 0.194-0.183 0.263-0.297l4.16-4.16c0.114 0.423 0.183 0.857 0.183 1.314 0 0.789-0.183 1.543-0.537 2.24-0.171 0.343-0.114 0.731 0.103 1.006 0.023 0.034 0.046 0.057 0.080 0.091 0.171 0.171 0.411 0.274 0.663 0.274s0.491-0.103 0.663-0.274c0.103-0.103 0.183-0.24 0.229-0.377 0.446-0.914 0.674-1.931 0.674-2.949 0-0.88-0.171-1.726-0.48-2.491 0.091-0.011 0.183-0.023 0.274-0.023 0.423 0 0.811 0.16 1.109 0.457l4.183 4.183c0.297 0.297 0.457 0.686 0.457 1.109s-0.16 0.811-0.457 1.109l-0.754 0.754c-0.091 0.091-0.171 0.206-0.217 0.331-0.034 0.080-0.057 0.149-0.091 0.217-0.149 0.354-0.080 0.766 0.194 1.040l2.126 2.126 0.4 1.291c0.091 0.297 0.32 0.526 0.617 0.617l1.040 0.32 0.32 1.040c0.091 0.297 0.32 0.526 0.617 0.617l1.040 0.32 0.32 1.040c0.080 0.24 0.251 0.446 0.48 0.56l1.657 0.823 0.366 2.034-2.206-0.4z"></path>
</symbol>
<symbol id="icon-facebook" viewBox="0 0 18 32">
<path d="M17.558 5.664c0 0.566-0.283 0.85-0.85 0.85h-3.115c-0.566 0-1.133 0.142-1.416 0.708-0.142 0.283-0.283 0.566-0.283 0.85v3.54h4.531c0.708 0 0.85 0.283 0.85 0.85v4.814c0 0.566-0.283 0.85-0.85 0.85h-4.673v13.027c0 0.425-0.142 0.708-0.425 0.85h-5.805c-0.425-0.142-0.566-0.425-0.566-0.85v-13.027h-4.106c-0.566 0-0.85-0.283-0.85-0.85v-4.956c0-0.566 0.283-0.85 0.85-0.85h4.106v-4.248c0.142-1.841 0.566-3.54 1.841-4.956 0.991-1.133 2.407-1.841 3.823-2.124 0.425-0.142 0.708-0.142 1.133-0.142h5.097c0.566 0.425 0.708 0.708 0.708 1.133v4.531z"></path>
</symbol>
<symbol id="icon-instagram" viewBox="0 0 32 32">
<path d="M4.109 0.001h23.784c2.26 0 4.107 1.848 4.107 4.108v23.784c0 2.259-1.847 4.106-4.107 4.106h-23.784c-2.26 0-4.109-1.847-4.109-4.106v-23.784c0-2.26 1.849-4.108 4.109-4.108zM23.312 3.555c-0.793 0-1.441 0.65-1.441 1.443v3.447c0 0.793 0.647 1.441 1.441 1.441h3.616c0.792 0 1.441-0.648 1.441-1.441v-3.447c0-0.793-0.649-1.443-1.441-1.443h-3.616zM28.382 13.533h-2.816c0.267 0.872 0.412 1.792 0.412 2.748 0 5.321-4.455 9.636-9.948 9.636-5.492 0-9.947-4.316-9.947-9.636 0-0.956 0.146-1.876 0.412-2.748h-2.938v13.518c0 0.7 0.572 1.27 1.271 1.27h22.283c0.7 0 1.27-0.57 1.27-1.27v-13.518zM16.030 9.704c-3.548 0-6.426 2.787-6.426 6.228 0 3.438 2.878 6.227 6.426 6.227 3.55 0 6.428-2.789 6.428-6.227 0-3.441-2.878-6.228-6.428-6.228z"></path>
</symbol>
<symbol id="icon-youtube" viewBox="0 0 32 32">
<path d="M30.753 6.673c-1.155-1.373-3.288-1.933-7.361-1.933h-14.785c-4.166 0-6.335 0.596-7.486 2.058-1.122 1.425-1.122 3.525-1.122 6.432v5.54c0 5.631 1.331 8.49 8.608 8.49h14.785c3.532 0 5.489-0.494 6.755-1.706 1.298-1.243 1.852-3.272 1.852-6.784v-5.54c0-3.065-0.087-5.178-1.247-6.557zM20.544 16.765l-6.714 3.509c-0.15 0.078-0.314 0.117-0.478 0.117-0.186 0-0.371-0.050-0.535-0.149-0.309-0.187-0.497-0.522-0.497-0.883v-6.995c0-0.36 0.188-0.695 0.496-0.882s0.692-0.2 1.012-0.034l6.714 3.486c0.342 0.177 0.556 0.53 0.557 0.915s-0.213 0.738-0.554 0.916z"></path>
</symbol>
<symbol id="icon-down-arrow" viewBox="0 0 59 32">
<path d="M58.88 2.56c0 0.653-0.256 1.318-0.755 1.818l-27.072 26.88c-0.474 0.474-1.126 0.742-1.805 0.742s-1.331-0.269-1.805-0.755l-26.701-26.88c-0.998-0.998-0.986-2.624 0-3.622 0.998-0.998 2.624-0.986 3.622 0l24.896 25.075 25.254-25.075c0.998-0.998 2.624-0.986 3.622 0 0.499 0.499 0.742 1.152 0.742 1.805v0z"></path>
</symbol>
<symbol id="icon-left-arrow" viewBox="0 0 17 32">
<path d="M16 32c-0.355 0-0.717-0.139-0.988-0.41l-14.609-14.713c-0.257-0.257-0.403-0.612-0.403-0.981s0.146-0.723 0.41-0.981l14.609-14.511c0.543-0.543 1.426-0.536 1.969 0 0.543 0.543 0.536 1.426 0 1.969l-13.628 13.53 13.628 13.725c0.543 0.543 0.536 1.426 0 1.969-0.271 0.271-0.626 0.403-0.981 0.403z"></path>
</symbol>
<symbol id="icon-magnifier" viewBox="0 0 32 32">
<path d="M12.885 25.749c2.859 0 5.632-0.96 7.893-2.709l8.512 8.512c0.64 0.619 1.643 0.597 2.261-0.043 0.597-0.619 0.597-1.6 0-2.219l-8.512-8.512c4.352-5.611 3.349-13.696-2.261-18.069s-13.717-3.349-18.069 2.261-3.349 13.717 2.261 18.069c2.261 1.749 5.035 2.709 7.915 2.709v0zM6.037 6.037c3.776-3.776 9.899-3.776 13.675 0s3.776 9.899 0 13.675c-3.776 3.776-9.899 3.776-13.675 0v0c-3.776-3.755-3.797-9.856-0.043-13.632 0 0 0.043-0.043 0.043-0.043v0z"></path>
</symbol>
<symbol id="icon-info" viewBox="0 0 32 32">
<path d="M14.507 7.253c0 4.006-3.247 7.253-7.253 7.253s-7.253-3.247-7.253-7.253c0-4.006 3.247-7.253 7.253-7.253s7.253 3.247 7.253 7.253z"></path>
<path d="M32 7.253c0 4.006-3.247 7.253-7.253 7.253s-7.253-3.247-7.253-7.253c0-4.006 3.247-7.253 7.253-7.253s7.253 3.247 7.253 7.253z"></path>
<path d="M14.507 24.747c0 4.006-3.247 7.253-7.253 7.253s-7.253-3.247-7.253-7.253c0-4.006 3.247-7.253 7.253-7.253s7.253 3.247 7.253 7.253z"></path>
<path d="M32 24.747c0 4.006-3.247 7.253-7.253 7.253s-7.253-3.247-7.253-7.253c0-4.006 3.247-7.253 7.253-7.253s7.253 3.247 7.253 7.253z"></path>
</symbol>
<symbol id="icon-oferta" viewBox="0 0 34 32">
<path d="M0 16.192v15.808h3.349c3.061 0 5.547-2.485 5.547-5.547v-12.235h-6.933c-1.088 0-1.963 0.885-1.963 1.963z"></path>
<path d="M12.448 9.077v22.923h3.349c3.061 0 5.547-2.485 5.547-5.547v-19.339h-6.923c-1.088 0-1.963 0.885-1.963 1.963z"></path>
<path d="M24.885 1.963v30.037h3.349c3.061 0 5.547-2.485 5.547-5.547v-26.453h-6.923c-1.088 0-1.963 0.885-1.963 1.963z"></path>
</symbol>
</defs>
</svg>
