<svg aria-hidden="true" style="position: absolute; width: 0; height: 0; overflow: hidden;" version="1.1" xmlns="http://www.w3.org/2000/svg" xmlns:xlink="http://www.w3.org/1999/xlink">
<defs>
<symbol id="icon-achievements" viewBox="0 0 32 32">
<path d="M7.936 25.438c-2.56 0-5.133-0.775-7.235-2.176l-0.701-0.465 3.025-4.541 0.701 0.465c1.839 1.226 4.204 1.583 6.326 0.95l0.478 1.617c-2.324 0.687-4.891 0.411-7.020-0.734l-1.165 1.745c2.317 1.3 5.14 1.765 7.781 1.24l0.33 1.651c-0.829 0.168-1.677 0.249-2.526 0.249z"></path>
<path d="M23.976 25.438c-0.842 0-1.691-0.081-2.526-0.249l0.33-1.651c2.634 0.525 5.457 0.061 7.781-1.24l-1.165-1.745c-2.129 1.145-4.696 1.421-7.020 0.734l0.478-1.617c2.122 0.633 4.487 0.276 6.326-0.95l0.701-0.465 3.025 4.541-0.701 0.465c-2.109 1.408-4.675 2.176-7.235 2.176z"></path>
<path d="M22.461 32h-13.009v-10.974c-2.957-1.421-5.376-3.813-6.865-6.777l-0.775-1.549 4.884-2.439 0.775 1.549c1.617 3.234 4.864 5.241 8.482 5.241s6.865-2.008 8.482-5.241l0.775-1.549 4.884 2.439-0.775 1.549c-1.482 2.964-3.907 5.356-6.865 6.777v10.974zM11.143 30.316h9.634v-10.381l0.505-0.222c2.823-1.233 5.14-3.443 6.535-6.218l0.020-0.040-1.866-0.936-0.020 0.040c-1.907 3.806-5.733 6.171-9.991 6.171s-8.084-2.365-9.991-6.171l-0.020-0.047-1.866 0.936 0.020 0.047c1.388 2.782 3.712 4.992 6.535 6.218l0.505 0.222v10.381z"></path>
<path d="M15.96 16.842c-2.547 0-4.615-2.068-4.615-4.615s2.068-4.615 4.615-4.615 4.615 2.068 4.615 4.615-2.068 4.615-4.615 4.615zM15.96 9.297c-1.617 0-2.931 1.314-2.931 2.931s1.314 2.931 2.931 2.931 2.931-1.314 2.931-2.931-1.314-2.931-2.931-2.931z"></path>
<path d="M15.117 0h1.684v5.524h-1.684v-5.524z"></path>
<path d="M6.097 4.5l1.191-1.191 3.859 3.859-1.191 1.191-3.859-3.859z"></path>
<path d="M20.775 7.162l3.859-3.859 1.191 1.191-3.859 3.859-1.191-1.191z"></path>
</symbol>
<symbol id="icon-benefits" viewBox="0 0 30 32">
<path d="M23.963 24.549c-3.294 0-5.982-2.681-5.982-5.982s2.681-5.982 5.982-5.982 5.982 2.681 5.982 5.982-2.681 5.982-5.982 5.982zM23.963 14.275c-2.371 0-4.298 1.927-4.298 4.298s1.927 4.298 4.298 4.298 4.298-1.927 4.298-4.298-1.927-4.298-4.298-4.298z"></path>
<path d="M26.536 32c-0.222 0-0.431-0.088-0.593-0.249l-1.974-1.974-1.974 1.974c-0.243 0.243-0.6 0.31-0.916 0.182s-0.519-0.438-0.519-0.775v-8.138c0-0.465 0.377-0.842 0.842-0.842s0.842 0.377 0.842 0.842v6.104l1.132-1.132c0.33-0.33 0.862-0.33 1.192 0l1.132 1.132v-6.104c0-0.465 0.377-0.842 0.842-0.842s0.842 0.377 0.842 0.842v8.138c0 0.344-0.202 0.647-0.519 0.775-0.108 0.040-0.216 0.067-0.323 0.067z"></path>
<path d="M13.689 16.842h-7.707c-0.465 0-0.842-0.377-0.842-0.842s0.377-0.842 0.842-0.842h7.707c0.465 0 0.842 0.377 0.842 0.842s-0.377 0.842-0.842 0.842z"></path>
<path d="M13.689 21.982h-7.707c-0.465 0-0.842-0.377-0.842-0.842s0.377-0.842 0.842-0.842h7.707c0.465 0 0.842 0.377 0.842 0.842s-0.377 0.842-0.842 0.842z"></path>
<path d="M13.689 27.116h-7.707c-0.465 0-0.842-0.377-0.842-0.842s0.377-0.842 0.842-0.842h7.707c0.465 0 0.842 0.377 0.842 0.842s-0.377 0.842-0.842 0.842z"></path>
<path d="M16.256 32h-12.847c-1.88 0-3.409-1.529-3.409-3.409v-14.902c0-1.88 1.529-3.409 3.409-3.409h5.14c0.95 0 1.725-0.775 1.725-1.725v-5.147c0-1.88 1.529-3.409 3.409-3.409h7.707c1.88 0 3.409 1.529 3.409 3.409v4.884c0 0.465-0.377 0.842-0.842 0.842s-0.842-0.377-0.842-0.842v-4.884c0-0.95-0.775-1.725-1.725-1.725h-7.707c-0.95 0-1.725 0.775-1.725 1.725v5.14c0 1.88-1.529 3.409-3.409 3.409h-5.14c-0.95 0-1.725 0.775-1.725 1.725v14.902c0 0.95 0.775 1.725 1.725 1.725h12.847c0.465 0 0.842 0.377 0.842 0.842s-0.377 0.842-0.842 0.842z"></path>
<path d="M1.597 12.712c-0.216 0-0.431-0.081-0.593-0.249-0.33-0.33-0.33-0.862 0-1.192l10.274-10.274c0.33-0.33 0.862-0.33 1.192 0s0.33 0.862 0 1.192l-10.28 10.274c-0.162 0.162-0.377 0.249-0.593 0.249z"></path>
<path d="M18.829 9.391h-2.567c-0.465 0-0.842-0.377-0.842-0.842s0.377-0.842 0.842-0.842h2.567c0.465 0 0.842 0.377 0.842 0.842s-0.377 0.842-0.842 0.842z"></path>
</symbol>
<symbol id="icon-theme" viewBox="0 0 34 32">
<path d="M17.105 32c-0.317 0-0.613-0.182-0.755-0.465l-2.526-5.046h-10.227c-1.981 0-3.597-1.617-3.597-3.597v-19.294c0-1.981 1.617-3.597 3.597-3.597h27.008c1.987 0 3.597 1.617 3.597 3.597v19.294c0 1.981-1.617 3.597-3.597 3.597h-10.227l-2.526 5.046c-0.141 0.283-0.431 0.465-0.755 0.465zM3.597 1.684c-1.058 0-1.913 0.856-1.913 1.913v19.294c0 1.058 0.856 1.913 1.913 1.913h10.752c0.317 0 0.613 0.182 0.755 0.465l2.001 4.008 2.001-4.008c0.141-0.283 0.431-0.465 0.755-0.465h10.752c1.058 0 1.913-0.856 1.913-1.913v-19.294c0-1.058-0.856-1.913-1.913-1.913h-27.015z"></path>
<path d="M8.832 20.979c-0.465 0-0.842-0.377-0.842-0.842v-8.266c0-0.465 0.377-0.842 0.842-0.842s0.842 0.377 0.842 0.842v8.266c0 0.465-0.377 0.842-0.842 0.842z"></path>
<path d="M8.832 9.472c-0.465 0-0.842-0.377-0.842-0.842v-2.398c0-0.465 0.377-0.842 0.842-0.842s0.842 0.377 0.842 0.842v2.398c0 0.465-0.377 0.842-0.842 0.842z"></path>
<path d="M25.371 8.576h-8.266c-0.465 0-0.842-0.377-0.842-0.842s0.377-0.842 0.842-0.842h8.266c0.465 0 0.842 0.377 0.842 0.842s-0.377 0.842-0.842 0.842z"></path>
<path d="M25.371 14.087h-8.266c-0.465 0-0.842-0.377-0.842-0.842s0.377-0.842 0.842-0.842h8.266c0.465 0 0.842 0.377 0.842 0.842s-0.377 0.842-0.842 0.842z"></path>
<path d="M25.371 19.597h-8.266c-0.465 0-0.842-0.377-0.842-0.842s0.377-0.842 0.842-0.842h8.266c0.465 0 0.842 0.377 0.842 0.842s-0.377 0.842-0.842 0.842z"></path>
</symbol>
<symbol id="icon-location" viewBox="0 0 32 32">
<path d="M12.699 20.271c-4.177 0-7.572-3.395-7.572-7.572s3.395-7.572 7.572-7.572 7.572 3.395 7.572 7.572c0 0.465-0.377 0.842-0.842 0.842s-0.842-0.377-0.842-0.842c0-3.247-2.641-5.888-5.888-5.888s-5.888 2.641-5.888 5.888 2.641 5.888 5.888 5.888c0.465 0 0.842 0.377 0.842 0.842s-0.377 0.842-0.842 0.842z"></path>
<path d="M12.315 31.939c-0.276 0-0.552-0.141-0.714-0.391-1.428-2.257-3.2-4.197-4.911-6.077-3.436-3.766-6.69-7.323-6.69-12.787 0.007-6.993 5.706-12.685 12.699-12.685s12.692 5.693 12.699 12.685c0 0.465-0.377 0.842-0.842 0.842v0c-0.465 0-0.842-0.377-0.842-0.842-0.007-6.070-4.952-11.001-11.015-11.001s-11.008 4.938-11.015 11.001c0 4.81 2.897 7.976 6.252 11.648 1.765 1.933 3.591 3.928 5.093 6.312 0.249 0.391 0.128 0.916-0.263 1.159-0.141 0.088-0.296 0.128-0.451 0.128z"></path>
<path d="M26.462 32h-7.202c-1.745 0-3.166-1.421-3.166-3.173v-6.771c0-0.465 0.377-0.842 0.842-0.842s0.842 0.377 0.842 0.842v6.771c0 0.822 0.667 1.489 1.482 1.489h7.202c0.822 0 1.482-0.667 1.482-1.489v-7.155c0-0.465 0.377-0.842 0.842-0.842s0.842 0.377 0.842 0.842v7.155c0 1.752-1.421 3.173-3.166 3.173z"></path>
<path d="M31.091 24.63c-0.202 0-0.404-0.074-0.566-0.222l-6.616-6.050c-0.579-0.532-1.455-0.532-2.041 0l-6.616 6.050c-0.344 0.317-0.876 0.29-1.192-0.054s-0.29-0.876 0.054-1.192l6.616-6.050c1.226-1.125 3.085-1.125 4.312 0l6.616 6.050c0.344 0.317 0.364 0.849 0.054 1.192-0.168 0.182-0.391 0.276-0.62 0.276z"></path>
</symbol>
<symbol id="icon-google" viewBox="0 0 32 32">
<path d="M15.498 14.063l10.369 0.014c0.905 4.288-0.75 12.922-10.369 12.922-6.076 0-11.002-4.925-11.002-11s4.926-11 11.002-11c2.854 0 5.453 1.087 7.409 2.868l-3.096 3.095c-1.16-0.994-2.665-1.598-4.313-1.598-3.665 0-6.636 2.97-6.636 6.635s2.971 6.635 6.636 6.635c3.078 0 5.206-1.822 5.989-4.369h-5.989v-4.203z"></path>
</symbol>
<symbol id="icon-reviews" viewBox="0 0 28 32">
<path d="M27.648 13.389h-22.97c-0.109 0-0.218 0-0.275 0.058l-4.128 2.17c-0.166 0.109-0.275 0.275-0.275 0.493s0.109 0.384 0.275 0.493l4.134 2.176c0.109 0.058 0.166 0.058 0.275 0.058h22.963c0.326 0 0.544-0.218 0.544-0.544v-4.352c0-0.326-0.218-0.544-0.544-0.544zM4.794 14.477h19.046v1.088h-16.877v1.088h16.87v1.088h-18.502v-2.176h-1.088v1.907l-2.56-1.363 3.104-1.632zM27.104 17.741h-2.176v-3.264h2.176v3.264z"></path>
<path d="M3.155 4.678c0-0.326 0.218-0.544 0.544-0.544h9.254c0.326 0 0.544 0.218 0.544 0.544v5.984h1.088v-5.984c0-0.928-0.71-1.632-1.632-1.632h-9.254c-0.928 0-1.632 0.71-1.632 1.632v5.984h1.088v-5.984z"></path>
<path d="M24.928 28.083c0 0.326-0.218 0.544-0.544 0.544h-9.254c-0.326 0-0.544-0.218-0.544-0.544v-7.072h-1.088v7.072c0 0.928 0.71 1.632 1.632 1.632h9.254c0.928 0 1.632-0.71 1.632-1.632v-7.072h-1.088v7.072z"></path>
<path d="M3.155 26.72v-6.803h-1.088v6.803c-1.197 0.275-2.067 1.306-2.067 2.611 0 1.472 1.197 2.669 2.669 2.669s2.669-1.197 2.669-2.669c0-1.306-0.928-2.394-2.176-2.611zM2.662 30.912c-0.87 0-1.581-0.71-1.581-1.581s0.71-1.581 1.581-1.581 1.581 0.71 1.581 1.581-0.71 1.581-1.581 1.581z"></path>
<path d="M24.928 5.28v5.389h1.088v-5.389c1.254-0.218 2.176-1.306 2.176-2.611 0-1.472-1.197-2.669-2.669-2.669s-2.669 1.197-2.669 2.669c0 1.254 0.87 2.342 2.067 2.611zM25.53 1.088c0.87 0 1.581 0.71 1.581 1.581s-0.71 1.581-1.581 1.581-1.581-0.71-1.581-1.581 0.71-1.581 1.581-1.581z"></path>
</symbol>
<symbol id="icon-book" viewBox="0 0 42 32">
<path d="M41.878 13.033c-0.335 0-0.605 0.271-0.605 0.605v3.784c0 0.335 0.271 0.605 0.605 0.605s0.605-0.271 0.605-0.605v-3.784c0-0.335-0.271-0.605-0.605-0.605z"></path>
<path d="M41.878 19.852c-0.335 0-0.605 0.271-0.605 0.605v3.784c0 0.335 0.271 0.605 0.605 0.605s0.605-0.271 0.605-0.605v-3.784c0-0.335-0.271-0.605-0.605-0.605z"></path>
<path d="M41.878 5.043h-2.549v-2.318c0-0.335-0.271-0.605-0.605-0.605h-2.605v-1.498c0-0.327-0.263-0.597-0.59-0.605-6.198-0.191-10.754 1.33-14.283 4.772-3.545-3.441-8.102-4.963-14.291-4.772-0.327 0.008-0.59 0.279-0.59 0.605v1.498h-2.597c-0.335 0-0.605 0.271-0.605 0.605v2.31h-2.557c-0.335 0-0.605 0.271-0.605 0.605v25.755c0 0.335 0.271 0.605 0.605 0.605h41.273c0.335 0 0.605-0.271 0.605-0.605v-4.119c0-0.335-0.271-0.605-0.605-0.605s-0.605 0.271-0.605 0.605v3.505h-40.062v-24.528h1.952v21.827c0 0.335 0.271 0.605 0.605 0.605h17.39s0.008 0 0.016 0c0 0 0 0 0 0 0.024 0 0.048 0 0.064 0v0s0.064 0 0.096 0h17.382c0.335 0 0.605-0.271 0.605-0.605v-21.827h1.944v4.349c0 0.335 0.271 0.605 0.605 0.605s0.605-0.271 0.605-0.605v-4.955c0-0.335-0.271-0.605-0.605-0.605zM34.9 1.219v22.807c-1.968 0.279-8.819 1.346-13.056 3.115v-21.254c3.218-3.25 7.377-4.74 13.056-4.668zM20.632 5.895v21.254c-4.246-1.768-11.105-2.836-13.056-3.115v-21.238s0-0.048 0-0.072 0-0.048 0-0.072v-1.434c5.672-0.088 9.846 1.418 13.056 4.676zM4.365 5.712s0-0.040 0-0.064 0-0.040 0-0.064v-2.254h1.992v21.23c0 0.319 0.247 0.582 0.558 0.605 0.446 0.064 6.413 0.876 11.017 2.31h-13.558v-21.771zM24.536 27.475c4.549-1.41 10.436-2.231 11.001-2.31 0.279-0.016 0.51-0.223 0.558-0.502 0 0 0-0.008 0-0.016 0-0.016 0-0.032 0-0.040s0-0.016 0-0.024c0 0 0-0.016 0-0.024v-21.222h1.999v2.231s0 0.056 0 0.080 0 0.056 0 0.080v21.748h-13.55z"></path>
<path d="M24.273 9.974c0.112 0 0.223-0.032 0.319-0.088 2.398-1.522 5.154-2.366 7.99-2.462 0.335-0.008 0.597-0.287 0.59-0.621s-0.287-0.597-0.621-0.59c-3.051 0.096-6.022 1.012-8.595 2.645-0.175 0.112-0.287 0.303-0.287 0.518 0 0.335 0.271 0.605 0.605 0.605z"></path>
<path d="M24.273 14.18c0.112 0 0.223-0.032 0.319-0.088 2.398-1.522 5.154-2.366 7.99-2.462 0.335-0.008 0.597-0.287 0.59-0.621 0-0.008 0-0.024 0-0.032-0.016-0.327-0.295-0.574-0.621-0.558-3.051 0.096-6.014 1.012-8.595 2.645-0.175 0.112-0.287 0.303-0.287 0.518 0 0.335 0.271 0.605 0.605 0.605z"></path>
<path d="M24.273 18.386v0c0.112 0 0.223-0.032 0.319-0.088 2.398-1.522 5.154-2.374 7.99-2.462 0.335-0.008 0.597-0.287 0.59-0.621s-0.287-0.597-0.621-0.589c-3.051 0.096-6.022 1.012-8.595 2.645-0.175 0.112-0.287 0.303-0.287 0.518 0 0.335 0.271 0.605 0.605 0.605z"></path>
<path d="M24.273 22.592c0.112 0 0.223-0.032 0.319-0.096 2.398-1.522 5.154-2.374 7.99-2.462 0.335-0.008 0.597-0.287 0.59-0.621s-0.287-0.597-0.621-0.59c-3.051 0.096-6.022 1.012-8.595 2.645-0.183 0.112-0.287 0.311-0.287 0.518 0 0.335 0.279 0.605 0.613 0.605z"></path>
<path d="M9.902 7.424c2.836 0.088 5.592 0.94 7.99 2.462 0.096 0.064 0.207 0.088 0.319 0.096v0c0.207 0 0.406-0.112 0.518-0.287 0.175-0.287 0.088-0.661-0.191-0.836-2.581-1.633-5.544-2.549-8.595-2.645-0.335 0-0.613 0.255-0.621 0.59s0.255 0.613 0.589 0.621z"></path>
<path d="M9.902 11.631c2.836 0.088 5.592 0.94 7.99 2.462 0.096 0.064 0.207 0.088 0.319 0.096 0.207 0 0.406-0.112 0.518-0.287 0.175-0.287 0.088-0.661-0.191-0.836-2.573-1.633-5.544-2.549-8.595-2.645 0 0-0.008 0-0.016 0-0.327 0-0.605 0.255-0.605 0.589-0.008 0.335 0.255 0.613 0.589 0.621z"></path>
<path d="M9.902 15.829c2.836 0.088 5.592 0.94 7.99 2.462 0.096 0.064 0.207 0.088 0.319 0.096v0c0.207 0 0.406-0.112 0.518-0.287 0.175-0.287 0.088-0.661-0.191-0.836-2.581-1.633-5.544-2.549-8.595-2.645-0.335-0.008-0.613 0.255-0.621 0.589s0.255 0.613 0.589 0.621z"></path>
<path d="M18.537 21.461c-2.581-1.633-5.544-2.549-8.595-2.645-0.335 0-0.605 0.255-0.621 0.59-0.008 0.335 0.255 0.613 0.589 0.621 2.836 0.088 5.592 0.94 7.99 2.462 0.096 0.064 0.207 0.088 0.319 0.096v0c0.207 0 0.406-0.112 0.518-0.287 0.175-0.287 0.088-0.661-0.191-0.836z"></path>
</symbol>
<symbol id="icon-medal" viewBox="0 0 24 32">
<path d="M2.502 11.875c0 5.172 4.206 9.373 9.373 9.373s9.373-4.206 9.373-9.373-4.206-9.373-9.373-9.373-9.373 4.206-9.373 9.373zM11.875 3.75c4.482 0 8.124 3.642 8.124 8.124s-3.642 8.124-8.124 8.124-8.124-3.642-8.124-8.124 3.642-8.124 8.124-8.124z"></path>
<path d="M6.084 10.759l2.424 2.388-0.558 3.354c-0.036 0.234 0.060 0.468 0.252 0.606s0.444 0.156 0.654 0.048l3.018-1.566 3.018 1.566c0.21 0.108 0.462 0.090 0.654-0.048s0.288-0.372 0.252-0.606l-0.558-3.354 2.424-2.388c0.168-0.168 0.228-0.414 0.156-0.636-0.072-0.228-0.27-0.39-0.504-0.426l-3.36-0.504-1.524-3.042c-0.108-0.21-0.324-0.348-0.558-0.348s-0.456 0.132-0.558 0.348l-1.524 3.042-3.36 0.504c-0.234 0.036-0.426 0.198-0.504 0.426-0.072 0.228-0.012 0.474 0.156 0.636zM10.297 10.375c0.204-0.030 0.372-0.156 0.468-0.336l1.11-2.214 1.11 2.214c0.090 0.18 0.264 0.306 0.468 0.336l2.448 0.366-1.764 1.74c-0.144 0.144-0.21 0.348-0.18 0.546l0.408 2.442-2.196-1.14c-0.090-0.048-0.186-0.072-0.288-0.072s-0.198 0.024-0.288 0.072l-2.196 1.14 0.408-2.442c0.036-0.198-0.030-0.408-0.18-0.546l-1.764-1.74 2.448-0.366z"></path>
<path d="M12.499 0.624c0 0.348-0.282 0.624-0.624 0.624s-0.624-0.282-0.624-0.624 0.282-0.624 0.624-0.624 0.624 0.282 0.624 0.624z"></path>
<path d="M8.929 0.366c-5.256 1.344-8.929 6.078-8.929 11.509 0 3.372 1.416 6.552 3.912 8.809l-3.768 6.636c-0.12 0.216-0.108 0.48 0.036 0.678s0.39 0.294 0.63 0.246l4.278-0.888 1.5 4.236c0.084 0.228 0.288 0.39 0.534 0.414s0.48-0.102 0.6-0.312l4.152-7.296 4.152 7.296c0.114 0.198 0.318 0.318 0.54 0.318 0.018 0 0.036 0 0.054 0 0.246-0.024 0.45-0.186 0.534-0.414l1.5-4.236 4.278 0.888c0.24 0.048 0.486-0.048 0.63-0.246s0.162-0.462 0.036-0.678l-3.768-6.636c2.49-2.25 3.912-5.43 3.912-8.809 0-5.43-3.672-10.165-8.929-11.509-0.336-0.084-0.672 0.114-0.762 0.45s0.114 0.672 0.45 0.762c4.704 1.2 7.987 5.436 7.987 10.297 0 5.916-4.806 10.627-10.627 10.627s-10.615-4.716-10.615-10.633c0-4.86 3.288-9.097 7.992-10.297 0.336-0.084 0.534-0.426 0.45-0.762s-0.426-0.534-0.762-0.45zM7.314 29.876l-1.23-3.462c-0.102-0.294-0.408-0.468-0.714-0.402l-3.456 0.72 2.982-5.25c1.74 1.266 3.792 2.034 5.934 2.226l-3.51 6.174zM18.379 26.012c-0.306-0.066-0.612 0.108-0.714 0.402l-1.23 3.462-3.51-6.174c2.142-0.192 4.194-0.96 5.934-2.226l2.982 5.25-3.456-0.72z"></path>
</symbol>
<symbol id="icon-logo" viewBox="0 0 92 32">
<path d="M14.716 30.328l-0.499-1.45h-7.612l-0.499 1.45c-0.277 0.794-1.016 1.33-1.857 1.33h-4.249l7.27-19.316h6.282l7.27 19.316h-4.24c-0.841 0-1.589-0.536-1.857-1.33zM10.42 17.266l-2.457 7.27h4.896l-2.43-7.27z"></path>
<path d="M20.822 31.658v-19.316h9.672c4.342 0 6.716 2.928 6.716 6.43s-2.374 6.402-6.716 6.402h-4.693v4.517c0 1.090-0.878 1.968-1.968 1.968h-3.012zM32.148 18.771c0-1.33-1.072-2.088-2.402-2.088h-3.935v4.139h3.935c1.33 0 2.402-0.748 2.402-2.060z"></path>
<path d="M36.573 28.933l1.45-2.134c0.6-0.887 1.792-1.109 2.697-0.545 1.266 0.794 2.855 1.349 4.684 1.349 1.681 0 2.725-0.582 2.725-1.534 0-2.55-10.919-0.434-10.919-7.88 0-3.242 2.725-6.143 7.677-6.143 3.095 0 5.792 0.924 7.852 2.697l-1.617 2.217c-0.582 0.804-1.663 1.025-2.54 0.554-1.33-0.711-2.827-1.062-4.212-1.062s-2.088 0.49-2.088 1.33c0 2.374 10.919 0.582 10.919 7.76 0 3.88-2.864 6.457-8.055 6.457-3.908 0-6.633-1.247-8.573-3.067z"></path>
<path d="M66.042 30.328l-0.499-1.45h-7.612l-0.499 1.45c-0.277 0.794-1.016 1.33-1.857 1.33h-4.24l7.27-19.316h6.282l7.27 19.316h-4.24c-0.841 0-1.589-0.536-1.857-1.33zM61.746 17.266l-2.457 7.27h4.896l-2.43-7.27z"></path>
<path d="M72.111 31.658v-19.316h9.672c4.342 0 6.716 2.928 6.716 6.43s-2.374 6.402-6.716 6.402h-4.693v4.517c0 1.090-0.878 1.968-1.968 1.968h-3.012zM83.436 18.771c0-1.33-1.072-2.088-2.402-2.088h-3.935v4.139h3.935c1.33 0 2.402-0.748 2.402-2.060z"></path>
<path d="M0.628 2.891c0-1.718 1.256-2.891 2.864-2.891 0.988 0 1.672 0.471 2.115 1.109l-0.582 0.323c-0.314-0.48-0.905-0.813-1.543-0.813-1.21 0-2.134 0.933-2.134 2.273s0.933 2.263 2.152 2.263c0.637 0 1.219-0.342 1.543-0.813l0.582 0.314c-0.471 0.647-1.136 1.109-2.125 1.109-1.607 0-2.873-1.173-2.873-2.891z"></path>
<path d="M6.503 5.672v-5.58h3.658v0.619h-2.965v1.801h2.901v0.619h-2.901v1.921h2.965v0.619h-3.658z"></path>
<path d="M15.215 5.672l-3.252-4.453v4.453h-0.693v-5.58h0.711l3.215 4.36v-4.36h0.693v5.58h-0.665z"></path>
<path d="M18.568 5.672v-4.961h-1.764v-0.619h4.231v0.619h-1.774v4.961h-0.693z"></path>
<path d="M25.192 5.672l-1.413-2.217h-1.118v2.217h-0.693v-5.58h2.245c1.025 0 1.755 0.656 1.755 1.681s-0.693 1.552-1.46 1.626l1.506 2.273h-0.822zM25.238 1.774c0-0.637-0.462-1.062-1.118-1.062h-1.469v2.134h1.469c0.665 0 1.118-0.443 1.118-1.072z"></path>
<path d="M27.058 3.51v-3.418h0.702v3.4c0 1.025 0.545 1.663 1.57 1.663s1.58-0.647 1.58-1.663v-3.4h0.702v3.409c0 1.386-0.767 2.273-2.282 2.273s-2.273-0.896-2.273-2.263z"></path>
<path d="M32.831 5.672v-5.58h0.693v4.961h2.596v0.619h-3.289z"></path>
<path d="M39.215 5.672v-5.58h1.912c1.737 0 2.864 1.21 2.864 2.799s-1.118 2.79-2.864 2.79h-1.912zM43.261 2.882c0-1.201-0.758-2.18-2.143-2.18h-1.21v4.351h1.21c1.358 0 2.143-0.97 2.143-2.171z"></path>
<path d="M45.072 5.672v-5.58h3.658v0.619h-2.965v1.801h2.901v0.619h-2.901v1.921h2.965v0.619h-3.658z"></path>
<path d="M52 5.672v-5.58h3.658v0.619h-2.965v1.801h2.901v0.619h-2.901v2.54h-0.693z"></path>
<path d="M56.379 2.891c0-1.644 1.118-2.891 2.771-2.891s2.781 1.238 2.781 2.891-1.127 2.891-2.781 2.891-2.771-1.238-2.771-2.891zM61.21 2.891c0-1.303-0.813-2.263-2.060-2.263s-2.051 0.961-2.051 2.263 0.794 2.263 2.051 2.263 2.060-0.97 2.060-2.263z"></path>
<path d="M66.236 5.672l-1.413-2.217h-1.118v2.217h-0.693v-5.58h2.245c1.025 0 1.755 0.656 1.755 1.681s-0.693 1.552-1.46 1.626l1.506 2.273h-0.822zM66.282 1.774c0-0.637-0.462-1.062-1.118-1.062h-1.469v2.134h1.469c0.665 0 1.118-0.443 1.118-1.072z"></path>
<path d="M72.868 5.672v-4.693l-1.894 4.693h-0.286l-1.903-4.693v4.693h-0.693v-5.58h0.998l1.737 4.305 1.746-4.305h0.998v5.58h-0.693z"></path>
<path d="M78.855 5.672l-0.49-1.247h-2.781l-0.49 1.247h-0.794l2.245-5.58h0.859l2.245 5.58h-0.794zM76.97 0.804l-1.182 3.012h2.365l-1.192-3.012z"></path>
<path d="M83.603 5.672l-1.413-2.217h-1.118v2.217h-0.693v-5.58h2.245c1.025 0 1.755 0.656 1.755 1.681s-0.693 1.552-1.46 1.626l1.506 2.273h-0.822zM83.649 1.774c0-0.637-0.462-1.062-1.118-1.062h-1.469v2.134h1.469c0.665 0 1.118-0.443 1.118-1.072z"></path>
<path d="M85.469 5.672v-5.58h3.658v0.619h-2.965v1.801h2.901v0.619h-2.901v1.921h2.965v0.619h-3.658z"></path>
<path d="M92.379 11.169c0 1.118-0.859 2.014-1.958 2.014s-1.977-0.896-1.977-2.014 0.868-2.005 1.986-2.005 1.949 0.896 1.949 2.005zM88.767 11.187c0 0.97 0.711 1.727 1.654 1.727 0.915 0.009 1.635-0.758 1.635-1.746s-0.711-1.737-1.635-1.737-1.644 0.767-1.644 1.755zM91.215 10.43c-0.083-0.046-0.323-0.148-0.628-0.148-0.61 0-0.915 0.388-0.915 0.915s0.314 0.915 0.915 0.915c0.259 0 0.508-0.074 0.656-0.166l0.074 0.249c-0.231 0.148-0.527 0.203-0.804 0.203-0.757 0-1.192-0.517-1.192-1.173 0-0.739 0.582-1.21 1.238-1.21 0.342 0 0.628 0.102 0.711 0.176l-0.074 0.249z"></path>
</symbol>
<symbol id="icon-acreditat" viewBox="0 0 28 32">
<path d="M13.754 12.088c-0.109 0-0.229-0.024-0.338-0.060l-12.848-5.144c-0.35-0.133-0.568-0.471-0.568-0.845s0.229-0.7 0.568-0.845l12.848-5.132c0.217-0.085 0.459-0.085 0.676 0l12.848 5.144c0.35 0.133 0.568 0.471 0.568 0.845s-0.229 0.7-0.568 0.845l-12.848 5.144c-0.109 0.048-0.217 0.060-0.338 0.060zM3.345 6.050l10.409 4.166 10.409-4.166-10.409-4.166-10.409 4.166z"></path>
<path d="M26.602 15.94c-0.495 0-0.906-0.411-0.906-0.906v-8.984c0-0.495 0.411-0.906 0.906-0.906s0.906 0.411 0.906 0.906v8.996c0 0.495-0.411 0.906-0.906 0.906z"></path>
<path d="M21.458 17.232h-15.42c-0.495 0-0.906-0.411-0.906-0.906v-8.223c0-0.495 0.411-0.906 0.906-0.906s0.906 0.411 0.906 0.906v7.318h13.609v-7.318c0-0.495 0.411-0.906 0.906-0.906s0.906 0.411 0.906 0.906v8.223c0 0.495-0.411 0.906-0.906 0.906z"></path>
<path d="M26.602 26.856h-25.697c-0.495 0-0.906-0.411-0.906-0.906v-5.144c0-0.495 0.411-0.906 0.906-0.906h25.697c0.495 0 0.906 0.411 0.906 0.906v5.144c0 0.495-0.411 0.906-0.906 0.906zM1.811 25.045h23.885v-3.333h-23.885v3.333z"></path>
<path d="M17.606 32c-2.62 0-4.758-2.137-4.758-4.758v-6.424c0-0.495 0.411-0.906 0.906-0.906s0.906 0.411 0.906 0.906v6.424c0 1.63 1.316 2.946 2.946 2.946 0.495 0 0.906 0.411 0.906 0.906s-0.411 0.906-0.906 0.906z"></path>
<path d="M9.902 32c-0.495 0-0.906-0.411-0.906-0.906s0.411-0.906 0.906-0.906c1.63 0 2.946-1.328 2.946-2.946 0-0.495 0.411-0.906 0.906-0.906s0.906 0.411 0.906 0.906c0 2.62-2.137 4.758-4.758 4.758z"></path>
</symbol>
<symbol id="icon-live" viewBox="0 0 32 32">
<path d="M5.772 32h-2.306c-1.908 0-3.466-1.558-3.466-3.466v-7.68c0-0.495 0.411-0.906 0.906-0.906s0.906 0.411 0.906 0.906v7.68c0 0.906 0.737 1.654 1.654 1.654h2.306c0.495 0 0.906 0.411 0.906 0.906s-0.411 0.906-0.906 0.906z"></path>
<path d="M10.88 32c-0.495 0-0.906-0.411-0.906-0.906v-10.228c0-0.495 0.411-0.906 0.906-0.906s0.906 0.411 0.906 0.906v10.228c0 0.495-0.411 0.906-0.906 0.906z"></path>
<path d="M18.56 32c-0.374 0-0.712-0.229-0.845-0.592l-3.84-10.228c-0.181-0.471 0.060-0.99 0.531-1.171s0.99 0.060 1.171 0.531l2.995 7.97 2.995-7.97c0.169-0.471 0.7-0.7 1.171-0.531 0.471 0.181 0.7 0.7 0.531 1.171l-3.84 10.228c-0.133 0.35-0.471 0.592-0.845 0.592z"></path>
<path d="M31.094 32h-2.306c-1.908 0-3.466-1.558-3.466-3.466v-5.12c0-1.908 1.558-3.466 3.466-3.466h2.306c0.495 0 0.906 0.411 0.906 0.906s-0.411 0.906-0.906 0.906h-2.306c-0.906 0-1.654 0.737-1.654 1.654v5.12c0 0.906 0.737 1.654 1.654 1.654h2.306c0.495 0 0.906 0.411 0.906 0.906s-0.411 0.906-0.906 0.906z"></path>
<path d="M31.094 26.88h-4.866c-0.495 0-0.906-0.411-0.906-0.906s0.411-0.906 0.906-0.906h4.866c0.495 0 0.906 0.411 0.906 0.906s-0.411 0.906-0.906 0.906z"></path>
<path d="M15.746 16.652h-12.281c-1.908 0-3.466-1.558-3.466-3.466v-9.721c0-1.908 1.558-3.466 3.466-3.466h12.281c1.908 0 3.466 1.558 3.466 3.466v9.721c0 1.908-1.558 3.466-3.466 3.466zM3.466 1.811c-0.906 0-1.654 0.737-1.654 1.654v9.721c0 0.906 0.737 1.654 1.654 1.654h12.281c0.906 0 1.654-0.737 1.654-1.654v-9.721c0-0.906-0.737-1.654-1.654-1.654h-12.281z"></path>
<path d="M28.534 14.599c-0.604 0-1.208-0.157-1.727-0.459l-3.84-2.222c-0.435-0.254-0.58-0.809-0.326-1.232 0.254-0.435 0.797-0.58 1.232-0.326l3.84 2.222c0.254 0.145 0.531 0.217 0.821 0.217 0.906 0 1.654-0.737 1.654-1.654v-5.12c0-0.906-0.737-1.654-1.654-1.654-0.29 0-0.58 0.072-0.821 0.217l-3.84 2.222c-0.435 0.254-0.99 0.097-1.232-0.326-0.254-0.435-0.097-0.99 0.326-1.232l3.84-2.222c0.519-0.302 1.123-0.459 1.727-0.459 1.908 0 3.466 1.558 3.466 3.466v5.12c0 1.908-1.558 3.466-3.466 3.466z"></path>
<path d="M6.014 6.931c-0.229 0-0.471-0.097-0.628-0.266-0.181-0.169-0.278-0.399-0.278-0.64s0.097-0.471 0.278-0.64c0.242-0.254 0.64-0.338 0.978-0.193 0.109 0.048 0.217 0.109 0.29 0.193 0.169 0.169 0.278 0.399 0.278 0.64s-0.109 0.471-0.278 0.64c-0.072 0.085-0.181 0.157-0.29 0.193-0.109 0.048-0.229 0.072-0.35 0.072z"></path>
</symbol>
<symbol id="icon-keys" viewBox="0 0 31 32">
<path d="M9.474 18.88c-0.514 0-0.937 0.423-0.937 0.937v2.811h-2.709v-2.811c0-0.514-0.423-0.937-0.937-0.937s-0.937 0.423-0.937 0.937v7.497c0 0.514 0.423 0.937 0.937 0.937s0.937-0.423 0.937-0.937v-2.811h2.709v2.811c0 0.514 0.423 0.937 0.937 0.937s0.937-0.423 0.937-0.937v-7.497c0-0.514-0.423-0.937-0.937-0.937z"></path>
<path d="M30.914 25.246v0s-0.697-3.829-0.697-3.829c-0.057-0.286-0.24-0.537-0.503-0.674l-1.714-0.857-0.343-1.12c-0.091-0.297-0.32-0.526-0.617-0.617l-1.040-0.32-0.32-1.040c-0.091-0.297-0.32-0.526-0.617-0.617l-1.040-0.32-0.32-1.040c-0.046-0.149-0.126-0.274-0.229-0.389l-1.703-1.703 0.274-0.274c0.651-0.651 1.006-1.509 1.006-2.434s-0.354-1.783-1.006-2.434l-4.183-4.183c-0.651-0.651-1.509-1.006-2.434-1.006-0.423 0-0.846 0.080-1.234 0.229-1.246-1.589-3.2-2.617-5.371-2.617-3.76 0-6.811 3.051-6.811 6.8 0 0.503 0.057 0.994 0.16 1.474-1.234 0.183-2.171 1.257-2.171 2.537v18.629c0 1.417 1.154 2.56 2.56 2.56h9.257c1.417 0 2.56-1.154 2.56-2.56v-10.983c0.080 0 0.149 0 0.229 0 0.914 0 1.783-0.354 2.434-1.006l0.274-0.274 8.194 8.194c0.137 0.137 0.309 0.229 0.491 0.263l3.829 0.697s0.114 0.011 0.171 0.011c0.251 0 0.48-0.103 0.663-0.274 0.217-0.217 0.309-0.526 0.263-0.834zM8.823 1.874c1.554 0 2.949 0.731 3.851 1.863l-4.514 4.514h-4.057c-0.149-0.469-0.217-0.949-0.217-1.451 0-2.72 2.217-4.926 4.937-4.926zM12.503 29.44v0c0 0.377-0.309 0.686-0.686 0.686h-9.257c-0.377 0-0.686-0.309-0.686-0.686v-18.629c0-0.377 0.309-0.686 0.686-0.686h0.891s0.023 0 0.023 0h3.577c-0.091 0.457-0.103 0.926 0 1.383-0.354 0.057-0.663 0.297-0.766 0.663-0.149 0.503 0.149 1.017 0.64 1.166 0.446 0.126 0.903 0.206 1.371 0.251l3.874 3.874c0.103 0.103 0.217 0.194 0.331 0.286v11.691zM26.617 23.851l-8.571-8.571c-0.274-0.274-0.686-0.354-1.040-0.194-0.057 0.023-0.126 0.057-0.217 0.091-0.126 0.046-0.24 0.114-0.331 0.217l-0.754 0.754c-0.297 0.297-0.686 0.457-1.109 0.457s-0.811-0.16-1.109-0.457l-4.103-4.103s-0.011-0.011-0.023-0.023l-0.057-0.057c-0.549-0.549-0.606-1.394-0.171-2 0.114-0.080 0.194-0.183 0.263-0.297l4.16-4.16c0.114 0.423 0.183 0.857 0.183 1.314 0 0.789-0.183 1.543-0.537 2.24-0.171 0.343-0.114 0.731 0.103 1.006 0.023 0.034 0.046 0.057 0.080 0.091 0.171 0.171 0.411 0.274 0.663 0.274s0.491-0.103 0.663-0.274c0.103-0.103 0.183-0.24 0.229-0.377 0.446-0.914 0.674-1.931 0.674-2.949 0-0.88-0.171-1.726-0.48-2.491 0.091-0.011 0.183-0.023 0.274-0.023 0.423 0 0.811 0.16 1.109 0.457l4.183 4.183c0.297 0.297 0.457 0.686 0.457 1.109s-0.16 0.811-0.457 1.109l-0.754 0.754c-0.091 0.091-0.171 0.206-0.217 0.331-0.034 0.080-0.057 0.149-0.091 0.217-0.149 0.354-0.080 0.766 0.194 1.040l2.126 2.126 0.4 1.291c0.091 0.297 0.32 0.526 0.617 0.617l1.040 0.32 0.32 1.040c0.091 0.297 0.32 0.526 0.617 0.617l1.040 0.32 0.32 1.040c0.080 0.24 0.251 0.446 0.48 0.56l1.657 0.823 0.366 2.034-2.206-0.4z"></path>
</symbol>
<symbol id="icon-facebook" viewBox="0 0 18 32">
<path d="M17.558 5.664c0 0.566-0.283 0.85-0.85 0.85h-3.115c-0.566 0-1.133 0.142-1.416 0.708-0.142 0.283-0.283 0.566-0.283 0.85v3.54h4.531c0.708 0 0.85 0.283 0.85 0.85v4.814c0 0.566-0.283 0.85-0.85 0.85h-4.673v13.027c0 0.425-0.142 0.708-0.425 0.85h-5.805c-0.425-0.142-0.566-0.425-0.566-0.85v-13.027h-4.106c-0.566 0-0.85-0.283-0.85-0.85v-4.956c0-0.566 0.283-0.85 0.85-0.85h4.106v-4.248c0.142-1.841 0.566-3.54 1.841-4.956 0.991-1.133 2.407-1.841 3.823-2.124 0.425-0.142 0.708-0.142 1.133-0.142h5.097c0.566 0.425 0.708 0.708 0.708 1.133v4.531z"></path>
</symbol>
<symbol id="icon-instagram" viewBox="0 0 32 32">
<path d="M4.109 0.001h23.784c2.26 0 4.107 1.848 4.107 4.108v23.784c0 2.259-1.847 4.106-4.107 4.106h-23.784c-2.26 0-4.109-1.847-4.109-4.106v-23.784c0-2.26 1.849-4.108 4.109-4.108zM23.312 3.555c-0.793 0-1.441 0.65-1.441 1.443v3.447c0 0.793 0.647 1.441 1.441 1.441h3.616c0.792 0 1.441-0.648 1.441-1.441v-3.447c0-0.793-0.649-1.443-1.441-1.443h-3.616zM28.382 13.533h-2.816c0.267 0.872 0.412 1.792 0.412 2.748 0 5.321-4.455 9.636-9.948 9.636-5.492 0-9.947-4.316-9.947-9.636 0-0.956 0.146-1.876 0.412-2.748h-2.938v13.518c0 0.7 0.572 1.27 1.271 1.27h22.283c0.7 0 1.27-0.57 1.27-1.27v-13.518zM16.030 9.704c-3.548 0-6.426 2.787-6.426 6.228 0 3.438 2.878 6.227 6.426 6.227 3.55 0 6.428-2.789 6.428-6.227 0-3.441-2.878-6.228-6.428-6.228z"></path>
</symbol>
<symbol id="icon-youtube" viewBox="0 0 32 32">
<path d="M30.753 6.673c-1.155-1.373-3.288-1.933-7.361-1.933h-14.785c-4.166 0-6.335 0.596-7.486 2.058-1.122 1.425-1.122 3.525-1.122 6.432v5.54c0 5.631 1.331 8.49 8.608 8.49h14.785c3.532 0 5.489-0.494 6.755-1.706 1.298-1.243 1.852-3.272 1.852-6.784v-5.54c0-3.065-0.087-5.178-1.247-6.557zM20.544 16.765l-6.714 3.509c-0.15 0.078-0.314 0.117-0.478 0.117-0.186 0-0.371-0.050-0.535-0.149-0.309-0.187-0.497-0.522-0.497-0.883v-6.995c0-0.36 0.188-0.695 0.496-0.882s0.692-0.2 1.012-0.034l6.714 3.486c0.342 0.177 0.556 0.53 0.557 0.915s-0.213 0.738-0.554 0.916z"></path>
</symbol>
<symbol id="icon-down-arrow" viewBox="0 0 59 32">
<path d="M58.88 2.56c0 0.653-0.256 1.318-0.755 1.818l-27.072 26.88c-0.474 0.474-1.126 0.742-1.805 0.742s-1.331-0.269-1.805-0.755l-26.701-26.88c-0.998-0.998-0.986-2.624 0-3.622 0.998-0.998 2.624-0.986 3.622 0l24.896 25.075 25.254-25.075c0.998-0.998 2.624-0.986 3.622 0 0.499 0.499 0.742 1.152 0.742 1.805v0z"></path>
</symbol>
<symbol id="icon-left-arrow" viewBox="0 0 17 32">
<path d="M16 32c-0.355 0-0.717-0.139-0.988-0.41l-14.609-14.713c-0.257-0.257-0.403-0.612-0.403-0.981s0.146-0.723 0.41-0.981l14.609-14.511c0.543-0.543 1.426-0.536 1.969 0 0.543 0.543 0.536 1.426 0 1.969l-13.628 13.53 13.628 13.725c0.543 0.543 0.536 1.426 0 1.969-0.271 0.271-0.626 0.403-0.981 0.403z"></path>
</symbol>
<symbol id="icon-magnifier" viewBox="0 0 32 32">
<path d="M12.885 25.749c2.859 0 5.632-0.96 7.893-2.709l8.512 8.512c0.64 0.619 1.643 0.597 2.261-0.043 0.597-0.619 0.597-1.6 0-2.219l-8.512-8.512c4.352-5.611 3.349-13.696-2.261-18.069s-13.717-3.349-18.069 2.261-3.349 13.717 2.261 18.069c2.261 1.749 5.035 2.709 7.915 2.709v0zM6.037 6.037c3.776-3.776 9.899-3.776 13.675 0s3.776 9.899 0 13.675c-3.776 3.776-9.899 3.776-13.675 0v0c-3.776-3.755-3.797-9.856-0.043-13.632 0 0 0.043-0.043 0.043-0.043v0z"></path>
</symbol>
<symbol id="icon-info" viewBox="0 0 32 32">
<path d="M14.507 7.253c0 4.006-3.247 7.253-7.253 7.253s-7.253-3.247-7.253-7.253c0-4.006 3.247-7.253 7.253-7.253s7.253 3.247 7.253 7.253z"></path>
<path d="M32 7.253c0 4.006-3.247 7.253-7.253 7.253s-7.253-3.247-7.253-7.253c0-4.006 3.247-7.253 7.253-7.253s7.253 3.247 7.253 7.253z"></path>
<path d="M14.507 24.747c0 4.006-3.247 7.253-7.253 7.253s-7.253-3.247-7.253-7.253c0-4.006 3.247-7.253 7.253-7.253s7.253 3.247 7.253 7.253z"></path>
<path d="M32 24.747c0 4.006-3.247 7.253-7.253 7.253s-7.253-3.247-7.253-7.253c0-4.006 3.247-7.253 7.253-7.253s7.253 3.247 7.253 7.253z"></path>
</symbol>
<symbol id="icon-oferta" viewBox="0 0 34 32">
<path d="M0 16.192v15.808h3.349c3.061 0 5.547-2.485 5.547-5.547v-12.235h-6.933c-1.088 0-1.963 0.885-1.963 1.963z"></path>
<path d="M12.448 9.077v22.923h3.349c3.061 0 5.547-2.485 5.547-5.547v-19.339h-6.923c-1.088 0-1.963 0.885-1.963 1.963z"></path>
<path d="M24.885 1.963v30.037h3.349c3.061 0 5.547-2.485 5.547-5.547v-26.453h-6.923c-1.088 0-1.963 0.885-1.963 1.963z"></path>
</symbol>
</defs>
</svg>
