<?xml version="1.0" encoding="UTF-8"?>
<svg xmlns="http://www.w3.org/2000/svg" viewBox="0 0 2819.27 1585.39">
  <defs>
    <style>
      .cls-1 {
        opacity: .1;
      }

      .cls-2 {
        fill: #fff;
      }

      .cls-3 {
        mix-blend-mode: soft-light;
      }

      .cls-4 {
        isolation: isolate;
      }
    </style>
  </defs>
  <g class="cls-4">
    <g id="Layer_2" data-name="Layer 2">
      <g id="FOOTER">
        <g id="wide">
          <g id="footer_texture" class="cls-3">
            <g class="cls-1">
              <g>
                <path class="cls-2" d="M2819.27,1281.45c-180.2-197-408.04-329.64-681.7-299.06-368.4,41.17-684.03,289.69-1007.49,449.54-163.59,80.85-340.75,151.31-525.76,153.42-244.09,2.79-444.45-129.12-604.32-303.9v-9.27c159.87,174.79,360.24,306.7,604.32,303.9,185.01-2.12,362.18-72.58,525.76-153.42,323.46-159.85,639.08-408.36,1007.49-449.54,273.66-30.59,501.51,102.06,681.7,299.06v9.27Z"/>
                <path class="cls-2" d="M2819.27,1255.27c-180.2-197-408.04-329.64-681.7-299.06-368.4,41.17-684.03,289.69-1007.49,449.54-163.59,80.84-340.75,151.31-525.76,153.42-244.09,2.79-444.45-129.12-604.32-303.9v-9.27c159.87,174.78,360.24,306.7,604.32,303.9,185.01-2.12,362.18-72.58,525.76-153.42,323.46-159.85,639.08-408.36,1007.49-449.54,273.66-30.59,501.51,102.06,681.7,299.06v9.27Z"/>
                <path class="cls-2" d="M2819.27,1229.08c-180.2-197-408.04-329.64-681.7-299.06-368.4,41.18-684.03,289.69-1007.49,449.54-163.59,80.85-340.75,151.31-525.76,153.42-244.09,2.79-444.45-129.12-604.32-303.9v-9.28c159.87,174.79,360.24,306.7,604.32,303.9,185.01-2.12,362.18-72.58,525.76-153.42,323.46-159.85,639.08-408.36,1007.49-449.54,273.66-30.59,501.51,102.06,681.7,299.06v9.28Z"/>
                <path class="cls-2" d="M2819.27,1202.9c-180.2-197-408.04-329.64-681.7-299.06-368.4,41.17-684.03,289.69-1007.49,449.54-163.59,80.84-340.75,151.31-525.76,153.42-244.09,2.79-444.45-129.12-604.32-303.9v-9.27c159.87,174.79,360.24,306.7,604.32,303.9,185.01-2.12,362.18-72.58,525.76-153.42,323.46-159.85,639.08-408.36,1007.49-449.54,273.66-30.59,501.51,102.06,681.7,299.06v9.27Z"/>
                <path class="cls-2" d="M2819.27,1176.72c-180.2-197-408.04-329.64-681.7-299.06-368.4,41.17-684.03,289.69-1007.49,449.54-163.59,80.85-340.75,151.31-525.76,153.43-244.09,2.79-444.45-129.12-604.32-303.9v-9.27c159.87,174.78,360.24,306.7,604.32,303.9,185.01-2.12,362.18-72.58,525.76-153.42,323.46-159.85,639.08-408.36,1007.49-449.54,273.66-30.59,501.51,102.06,681.7,299.06v9.27Z"/>
                <path class="cls-2" d="M2819.27,1150.54c-180.2-197-408.04-329.64-681.7-299.06-368.4,41.17-684.03,289.69-1007.49,449.54-163.59,80.85-340.75,151.31-525.76,153.42-244.09,2.79-444.45-129.12-604.32-303.9v-9.27c159.87,174.79,360.24,306.7,604.32,303.9,185.01-2.12,362.18-72.58,525.76-153.42,323.46-159.85,639.08-408.36,1007.49-449.54,273.66-30.59,501.51,102.06,681.7,299.06v9.27Z"/>
                <path class="cls-2" d="M2819.27,1124.36c-180.2-197-408.04-329.64-681.7-299.06-368.4,41.17-684.03,289.69-1007.49,449.54-163.59,80.84-340.75,151.31-525.76,153.42-244.09,2.79-444.45-129.12-604.32-303.9v-9.27c159.87,174.78,360.24,306.7,604.32,303.9,185.01-2.12,362.18-72.58,525.76-153.43,323.46-159.85,639.08-408.36,1007.49-449.54,273.66-30.59,501.51,102.05,681.7,299.06v9.27Z"/>
                <path class="cls-2" d="M2819.27,1098.17c-180.2-197-408.04-329.64-681.7-299.06-368.4,41.17-684.03,289.69-1007.49,449.54-163.59,80.85-340.75,151.31-525.76,153.42-244.09,2.79-444.45-129.12-604.32-303.9v-9.27c159.87,174.79,360.24,306.7,604.32,303.9,185.01-2.12,362.18-72.58,525.76-153.42,323.46-159.85,639.08-408.36,1007.49-449.54,273.66-30.59,501.51,102.06,681.7,299.06v9.27Z"/>
                <path class="cls-2" d="M2819.27,1071.99c-180.2-197-408.04-329.64-681.7-299.06-368.4,41.17-684.03,289.69-1007.49,449.54-163.59,80.84-340.75,151.31-525.76,153.42-244.09,2.79-444.45-129.12-604.32-303.9v-9.27c159.87,174.78,360.24,306.7,604.32,303.9,185.01-2.12,362.18-72.58,525.76-153.43,323.46-159.85,639.08-408.36,1007.49-449.54,273.66-30.59,501.51,102.05,681.7,299.06v9.27Z"/>
                <path class="cls-2" d="M2819.27,1045.81c-180.2-197-408.04-329.64-681.7-299.06-368.4,41.18-684.03,289.69-1007.49,449.54-163.59,80.85-340.75,151.31-525.76,153.42-244.09,2.79-444.45-129.12-604.32-303.9v-9.28c159.87,174.79,360.24,306.7,604.32,303.9,185.01-2.12,362.18-72.58,525.76-153.42,323.46-159.85,639.08-408.36,1007.49-449.54,273.66-30.59,501.51,102.06,681.7,299.06v9.28Z"/>
                <path class="cls-2" d="M2819.27,1019.63c-180.2-197-408.04-329.64-681.7-299.06-368.4,41.17-684.03,289.69-1007.49,449.54-163.59,80.84-340.75,151.31-525.76,153.42-244.09,2.79-444.45-129.12-604.32-303.9v-9.27c159.87,174.79,360.24,306.7,604.32,303.9,185.01-2.12,362.18-72.58,525.76-153.42,323.46-159.85,639.08-408.36,1007.49-449.54,273.66-30.59,501.51,102.06,681.7,299.06v9.27Z"/>
                <path class="cls-2" d="M2819.27,993.45c-180.2-197-408.04-329.64-681.7-299.06-368.4,41.17-684.03,289.69-1007.49,449.54-163.59,80.85-340.75,151.31-525.76,153.42-244.09,2.79-444.45-129.12-604.32-303.9v-9.28c159.87,174.79,360.24,306.7,604.32,303.9,185.01-2.12,362.18-72.58,525.76-153.42,323.46-159.85,639.08-408.36,1007.49-449.54,273.66-30.59,501.51,102.06,681.7,299.06v9.27Z"/>
                <path class="cls-2" d="M2819.27,967.26c-180.2-197-408.04-329.64-681.7-299.06-368.4,41.17-684.03,289.69-1007.49,449.54-163.59,80.85-340.75,151.31-525.76,153.42-244.09,2.79-444.45-129.12-604.32-303.9v-9.27c159.87,174.79,360.24,306.7,604.32,303.9,185.01-2.12,362.18-72.58,525.76-153.42,323.46-159.85,639.08-408.36,1007.49-449.54,273.66-30.59,501.51,102.06,681.7,299.06v9.27Z"/>
                <path class="cls-2" d="M2819.27,941.08c-180.2-197-408.04-329.64-681.7-299.06-368.4,41.17-684.03,289.69-1007.49,449.54-163.59,80.84-340.75,151.31-525.76,153.42-244.09,2.79-444.45-129.12-604.32-303.9v-9.27c159.87,174.78,360.24,306.7,604.32,303.9,185.01-2.12,362.18-72.58,525.76-153.42,323.46-159.85,639.08-408.36,1007.49-449.54,273.66-30.58,501.51,102.06,681.7,299.06v9.27Z"/>
                <path class="cls-2" d="M2819.27,914.9c-180.2-197-408.04-329.64-681.7-299.06-368.4,41.17-684.03,289.69-1007.49,449.54-163.59,80.85-340.75,151.31-525.76,153.42-244.09,2.79-444.45-129.12-604.32-303.9v-9.27c159.87,174.79,360.24,306.7,604.32,303.9,185.01-2.12,362.18-72.58,525.76-153.42,323.46-159.85,639.08-408.36,1007.49-449.54,273.66-30.59,501.51,102.06,681.7,299.06v9.27Z"/>
                <path class="cls-2" d="M2819.27,888.72c-180.2-197-408.04-329.64-681.7-299.06-368.4,41.17-684.03,289.69-1007.49,449.54-163.59,80.84-340.75,151.31-525.76,153.42-244.09,2.79-444.45-129.12-604.32-303.9v-9.27c159.87,174.78,360.24,306.7,604.32,303.9,185.01-2.12,362.18-72.58,525.76-153.42,323.46-159.85,639.08-408.36,1007.49-449.54,273.66-30.59,501.51,102.05,681.7,299.06v9.27Z"/>
                <path class="cls-2" d="M2819.27,862.54c-180.2-197-408.04-329.64-681.7-299.06-368.4,41.18-684.03,289.69-1007.49,449.54-163.59,80.85-340.75,151.31-525.76,153.42-244.09,2.79-444.45-129.12-604.32-303.9v-9.27c159.87,174.79,360.24,306.7,604.32,303.9,185.01-2.12,362.18-72.58,525.76-153.42,323.46-159.85,639.08-408.36,1007.49-449.54,273.66-30.59,501.51,102.06,681.7,299.06v9.28Z"/>
                <path class="cls-2" d="M2819.27,836.35c-180.2-197-408.04-329.64-681.7-299.06-368.4,41.17-684.03,289.69-1007.49,449.54-163.59,80.84-340.75,151.31-525.76,153.42-244.09,2.79-444.45-129.12-604.32-303.9v-9.27c159.87,174.79,360.24,306.7,604.32,303.9,185.01-2.12,362.18-72.58,525.76-153.42,323.46-159.85,639.08-408.36,1007.49-449.54,273.66-30.59,501.51,102.06,681.7,299.06v9.27Z"/>
                <path class="cls-2" d="M2819.27,810.17c-180.2-197-408.04-329.64-681.7-299.06-368.4,41.18-684.03,289.69-1007.49,449.54-163.59,80.85-340.75,151.31-525.76,153.42-244.09,2.79-444.45-129.12-604.32-303.9v-9.28c159.87,174.79,360.24,306.7,604.32,303.9,185.01-2.12,362.18-72.58,525.76-153.42,323.46-159.85,639.08-408.36,1007.49-449.54,273.66-30.59,501.51,102.06,681.7,299.06v9.28Z"/>
                <path class="cls-2" d="M2819.27,783.99c-180.2-197-408.04-329.64-681.7-299.06-368.4,41.17-684.03,289.69-1007.49,449.54-163.59,80.85-340.75,151.31-525.76,153.42-244.09,2.79-444.45-129.12-604.32-303.9v-9.27c159.87,174.79,360.24,306.7,604.32,303.9,185.01-2.12,362.18-72.58,525.76-153.42,323.46-159.85,639.08-408.36,1007.49-449.54,273.66-30.59,501.51,102.06,681.7,299.06v9.27Z"/>
                <path class="cls-2" d="M2819.27,757.81c-180.2-197-408.04-329.64-681.7-299.06-368.4,41.17-684.03,289.69-1007.49,449.54-163.59,80.84-340.75,151.31-525.76,153.42-244.09,2.79-444.45-129.12-604.32-303.9v-9.27c159.87,174.78,360.24,306.7,604.32,303.9,185.01-2.12,362.18-72.58,525.76-153.42,323.46-159.85,639.08-408.36,1007.49-449.54,273.66-30.59,501.51,102.06,681.7,299.06v9.27Z"/>
                <path class="cls-2" d="M2819.27,731.63c-180.2-197-408.04-329.64-681.7-299.06-368.4,41.17-684.03,289.69-1007.49,449.54-163.59,80.85-340.75,151.31-525.76,153.42-244.09,2.79-444.45-129.12-604.32-303.9v-9.27c159.87,174.79,360.24,306.7,604.32,303.9,185.01-2.12,362.18-72.58,525.76-153.42,323.46-159.85,639.08-408.36,1007.49-449.54,273.66-30.59,501.51,102.06,681.7,299.06v9.27Z"/>
                <path class="cls-2" d="M2819.27,705.44c-180.2-197-408.04-329.64-681.7-299.06-368.4,41.17-684.03,289.69-1007.49,449.54-163.59,80.84-340.75,151.31-525.76,153.42-244.09,2.79-444.45-129.12-604.32-303.9v-9.27c159.87,174.78,360.24,306.7,604.32,303.9,185.01-2.12,362.18-72.58,525.76-153.42,323.46-159.85,639.08-408.36,1007.49-449.54,273.66-30.59,501.51,102.05,681.7,299.06v9.27Z"/>
                <path class="cls-2" d="M2819.27,679.26c-180.2-197-408.04-329.64-681.7-299.06-368.4,41.17-684.03,289.69-1007.49,449.54-163.59,80.85-340.75,151.31-525.76,153.42-244.09,2.79-444.45-129.12-604.32-303.9v-9.27c159.87,174.79,360.24,306.7,604.32,303.9,185.01-2.12,362.18-72.58,525.76-153.42,323.46-159.85,639.08-408.36,1007.49-449.54,273.66-30.59,501.51,102.06,681.7,299.06v9.27Z"/>
                <path class="cls-2" d="M2819.27,653.08c-180.2-197-408.04-329.64-681.7-299.06-368.4,41.17-684.03,289.69-1007.49,449.54-163.59,80.84-340.75,151.31-525.76,153.42-244.09,2.79-444.45-129.12-604.32-303.9v-9.27c159.87,174.78,360.24,306.7,604.32,303.9,185.01-2.12,362.18-72.58,525.76-153.42,323.46-159.85,639.08-408.36,1007.49-449.54,273.66-30.59,501.51,102.05,681.7,299.06v9.27Z"/>
                <path class="cls-2" d="M2819.27,626.9c-180.2-197-408.04-329.64-681.7-299.06-368.4,41.18-684.03,289.69-1007.49,449.54-163.59,80.85-340.75,151.31-525.76,153.42-244.09,2.79-444.45-129.12-604.32-303.9v-9.28c159.87,174.79,360.24,306.7,604.32,303.9,185.01-2.12,362.18-72.58,525.76-153.42,323.46-159.85,639.08-408.36,1007.49-449.54,273.66-30.59,501.51,102.06,681.7,299.06v9.28Z"/>
                <path class="cls-2" d="M2819.27,600.72c-180.2-197-408.04-329.64-681.7-299.06-368.4,41.17-684.03,289.69-1007.49,449.54-163.59,80.85-340.75,151.31-525.76,153.42-244.09,2.79-444.45-129.12-604.32-303.9v-9.27c159.87,174.79,360.24,306.7,604.32,303.9,185.01-2.12,362.18-72.58,525.76-153.42,323.46-159.85,639.08-408.36,1007.49-449.54,273.66-30.59,501.51,102.06,681.7,299.06v9.27Z"/>
                <path class="cls-2" d="M2819.27,574.54c-180.2-197-408.04-329.64-681.7-299.06-368.4,41.17-684.03,289.69-1007.49,449.54-163.59,80.85-340.75,151.31-525.76,153.42-244.09,2.79-444.45-129.12-604.32-303.9v-9.27c159.87,174.78,360.24,306.7,604.32,303.9,185.01-2.12,362.18-72.58,525.76-153.42,323.46-159.85,639.08-408.36,1007.49-449.54,273.66-30.59,501.51,102.06,681.7,299.06v9.27Z"/>
                <path class="cls-2" d="M2819.27,548.35c-180.2-197-408.04-329.64-681.7-299.06-368.4,41.17-684.03,289.69-1007.49,449.54-163.59,80.85-340.75,151.31-525.76,153.42-244.09,2.79-444.45-129.12-604.32-303.9v-9.27c159.87,174.79,360.24,306.7,604.32,303.9,185.01-2.12,362.18-72.58,525.76-153.42,323.46-159.85,639.08-408.36,1007.49-449.54,273.66-30.59,501.51,102.06,681.7,299.06v9.27Z"/>
                <path class="cls-2" d="M2819.27,522.17c-180.2-197-408.04-329.64-681.7-299.06-368.4,41.17-684.03,289.69-1007.49,449.54-163.59,80.84-340.75,151.31-525.76,153.42-244.09,2.79-444.45-129.12-604.32-303.9v-9.27c159.87,174.78,360.24,306.7,604.32,303.9,185.01-2.12,362.18-72.58,525.76-153.42,323.46-159.85,639.08-408.36,1007.49-449.54,273.66-30.58,501.51,102.06,681.7,299.06v9.27Z"/>
                <path class="cls-2" d="M2819.27,495.99c-180.2-197-408.04-329.64-681.7-299.06-368.4,41.17-684.03,289.69-1007.49,449.54-163.59,80.85-340.75,151.31-525.76,153.42C360.24,802.68,159.87,670.77,0,495.99v-9.27c159.87,174.79,360.24,306.7,604.32,303.9,185.01-2.12,362.18-72.58,525.76-153.42,323.46-159.85,639.08-408.36,1007.49-449.54,273.66-30.59,501.51,102.06,681.7,299.06v9.27Z"/>
                <path class="cls-2" d="M2819.27,469.81c-180.2-197-408.04-329.64-681.7-299.06-368.4,41.17-684.03,289.69-1007.49,449.54-163.59,80.84-340.75,151.31-525.76,153.42C360.24,776.5,159.87,644.59,0,469.81v-9.27c159.87,174.78,360.24,306.7,604.32,303.9,185.01-2.12,362.18-72.58,525.76-153.42,323.46-159.85,639.08-408.36,1007.49-449.54,273.66-30.59,501.51,102.05,681.7,299.06v9.27Z"/>
                <path class="cls-2" d="M2819.27,443.63c-180.2-197-408.04-329.64-681.7-299.06-368.4,41.18-684.03,289.69-1007.49,449.54-163.59,80.85-340.75,151.31-525.76,153.42C360.24,750.32,159.87,618.41,0,443.62v-9.27c159.87,174.79,360.24,306.7,604.32,303.9,185.01-2.12,362.18-72.58,525.76-153.42,323.46-159.85,639.08-408.36,1007.49-449.54,273.66-30.59,501.51,102.06,681.7,299.06v9.28Z"/>
                <path class="cls-2" d="M2819.27,417.44c-180.2-197-408.04-329.64-681.7-299.06-368.4,41.17-684.03,289.69-1007.49,449.54-163.59,80.84-340.75,151.31-525.76,153.42C360.24,724.14,159.87,592.23,0,417.44v-9.27c159.87,174.78,360.24,306.7,604.32,303.9,185.01-2.12,362.18-72.58,525.76-153.42,323.46-159.85,639.08-408.36,1007.49-449.54,273.66-30.59,501.51,102.06,681.7,299.06v9.27Z"/>
                <path class="cls-2" d="M2819.27,391.26c-180.2-197-408.04-329.64-681.7-299.06-368.4,41.18-684.03,289.69-1007.49,449.54-163.59,80.85-340.75,151.31-525.76,153.42C360.24,697.96,159.87,566.04,0,391.26v-9.28c159.87,174.79,360.24,306.7,604.32,303.9,185.01-2.12,362.18-72.58,525.76-153.42,323.46-159.85,639.08-408.36,1007.49-449.54,273.66-30.59,501.51,102.06,681.7,299.06v9.28Z"/>
                <path class="cls-2" d="M2819.27,365.08c-180.2-197-408.04-329.64-681.7-299.06-368.4,41.17-684.03,289.69-1007.49,449.54-163.59,80.85-340.75,151.31-525.76,153.42C360.24,671.77,159.87,539.86,0,365.08v-9.27c159.87,174.79,360.24,306.7,604.32,303.9,185.01-2.12,362.18-72.58,525.76-153.42,323.46-159.85,639.08-408.36,1007.49-449.54,273.66-30.59,501.51,102.06,681.7,299.06v9.27Z"/>
                <path class="cls-2" d="M2819.27,338.9c-180.2-197-408.04-329.64-681.7-299.06-368.4,41.17-684.03,289.69-1007.49,449.54-163.59,80.85-340.75,151.31-525.76,153.42C360.24,645.59,159.87,513.68,0,338.9v-9.27c159.87,174.78,360.24,306.7,604.32,303.9,185.01-2.12,362.18-72.58,525.76-153.42C1453.54,320.25,1769.17,71.74,2137.57,30.56,2411.23-.02,2639.08,132.62,2819.27,329.62v9.27Z"/>
                <path class="cls-2" d="M2819.27,312.71C2639.08,115.71,2411.23-16.93,2137.57,13.66c-368.4,41.17-684.03,289.69-1007.49,449.54-163.59,80.85-340.75,151.31-525.76,153.42C360.24,619.41,159.87,487.5,0,312.71v-9.27c159.87,174.79,360.24,306.7,604.32,303.9,185.01-2.12,362.18-72.58,525.76-153.42C1453.54,294.07,1769.17,45.56,2137.57,4.38c273.66-30.59,501.51,102.06,681.7,299.06v9.27Z"/>
              </g>
            </g>
          </g>
        </g>
      </g>
    </g>
  </g>
</svg>