<?xml version="1.0" encoding="UTF-8"?>
<svg id="Layer_2" data-name="Layer 2" xmlns="http://www.w3.org/2000/svg" viewBox="0 0 47.37 47.5">
  <defs>
    <style>
      .cls-1 {
        fill: #fff;
      }
    </style>
  </defs>
  <g id="C-CAZARE_DETALIU" data-name="C-CAZARE DETALIU">
    <g id="competente_icon">
      <g id="g2087">
        <g id="g2089">
          <g id="g2095">
            <g id="path2097">
              <path class="cls-1" d="M11.78,37.76c-3.8,0-7.62-1.15-10.74-3.23l-1.04-.69,4.49-6.74,1.04,.69c2.73,1.82,6.24,2.35,9.39,1.41l.71,2.4c-3.45,1.02-7.26,.61-10.42-1.09l-1.73,2.59c3.44,1.93,7.63,2.62,11.55,1.84l.49,2.45c-1.23,.25-2.49,.37-3.75,.37Z"/>
            </g>
          </g>
          <g id="g2099">
            <g id="path2101">
              <path class="cls-1" d="M35.59,37.76c-1.25,0-2.51-.12-3.75-.37l.49-2.45c3.91,.78,8.1,.09,11.55-1.84l-1.73-2.59c-3.16,1.7-6.97,2.11-10.42,1.09l.71-2.4c3.15,.94,6.66,.41,9.39-1.41l1.04-.69,4.49,6.74-1.04,.69c-3.13,2.09-6.94,3.23-10.74,3.23Z"/>
            </g>
          </g>
          <g id="g2103">
            <g id="path2105">
              <path class="cls-1" d="M33.34,47.5H14.03V31.21c-4.39-2.11-7.98-5.66-10.19-10.06l-1.15-2.3,7.25-3.62,1.15,2.3c2.4,4.8,7.22,7.78,12.59,7.78s10.19-2.98,12.59-7.78l1.15-2.3,7.25,3.62-1.15,2.3c-2.2,4.4-5.8,7.95-10.19,10.06v16.29Zm-16.8-2.5h14.3v-15.41l.75-.33c4.19-1.83,7.63-5.11,9.7-9.23l.03-.06-2.77-1.39-.03,.06c-2.83,5.65-8.51,9.16-14.83,9.16s-12-3.51-14.83-9.16l-.03-.07-2.77,1.39,.03,.07c2.06,4.13,5.51,7.41,9.7,9.23l.75,.33v15.41Z"/>
            </g>
          </g>
          <g id="g2107">
            <g id="path2109">
              <path class="cls-1" d="M23.69,25c-3.78,0-6.85-3.07-6.85-6.85s3.07-6.85,6.85-6.85,6.85,3.07,6.85,6.85-3.07,6.85-6.85,6.85Zm0-11.2c-2.4,0-4.35,1.95-4.35,4.35s1.95,4.35,4.35,4.35,4.35-1.95,4.35-4.35-1.95-4.35-4.35-4.35Z"/>
            </g>
          </g>
          <g id="g2111">
            <g id="path2113">
              <rect class="cls-1" x="22.44" width="2.5" height="8.2"/>
            </g>
          </g>
          <g id="g2115">
            <g id="path2117">
              <rect class="cls-1" x="11.54" y="4.61" width="2.5" height="8.1" transform="translate(-2.37 11.58) rotate(-45)"/>
            </g>
          </g>
          <g id="g2119">
            <g id="path2121">
              <rect class="cls-1" x="30.53" y="7.41" width="8.1" height="2.5" transform="translate(4.01 26.98) rotate(-45)"/>
            </g>
          </g>
        </g>
      </g>
    </g>
  </g>
</svg>