<?xml version="1.0" encoding="UTF-8"?>
<svg id="Layer_2" data-name="Layer 2" xmlns="http://www.w3.org/2000/svg" xmlns:xlink="http://www.w3.org/1999/xlink" viewBox="0 0 47.4 47.5">
  <defs>
    <style>
      .cls-1 {
        mask: url(#mask);
      }

      .cls-2 {
        fill: #fff;
      }
    </style>
    <mask id="mask" x="-.65" y="-.65" width="48.71" height="48.71" maskUnits="userSpaceOnUse"/>
  </defs>
  <g id="C-CAZARE_DETALIU" data-name="C-CAZARE DETALIU">
    <g class="cls-1">
      <g id="location_icon">
        <g id="g207">
          <g id="g209">
            <g id="g211">
              <g id="g217">
                <g id="path219">
                  <path class="cls-2" d="M18.85,30.09c-6.2,0-11.24-5.04-11.24-11.24S12.65,7.61,18.85,7.61s11.24,5.04,11.24,11.24c0,.69-.56,1.25-1.25,1.25s-1.25-.56-1.25-1.25c0-4.82-3.92-8.74-8.74-8.74s-8.74,3.92-8.74,8.74,3.92,8.74,8.74,8.74c.69,0,1.25,.56,1.25,1.25s-.56,1.25-1.25,1.25Z"/>
                </g>
              </g>
              <g id="g221">
                <g id="path223">
                  <path class="cls-2" d="M18.28,47.41c-.41,0-.82-.21-1.06-.58-2.12-3.35-4.75-6.23-7.29-9.02C4.83,32.22,0,26.94,0,18.83,.01,8.45,8.47,0,18.85,0s18.84,8.45,18.85,18.83c0,.69-.56,1.25-1.25,1.25h0c-.69,0-1.25-.56-1.25-1.25-.01-9.01-7.35-16.33-16.35-16.33S2.51,9.83,2.5,18.83c0,7.14,4.3,11.84,9.28,17.29,2.62,2.87,5.33,5.83,7.56,9.37,.37,.58,.19,1.36-.39,1.72-.21,.13-.44,.19-.67,.19Z"/>
                </g>
              </g>
              <g id="g225">
                <g id="path227">
                  <path class="cls-2" d="M39.28,47.5h-10.69c-2.59,0-4.7-2.11-4.7-4.71v-10.05c0-.69,.56-1.25,1.25-1.25s1.25,.56,1.25,1.25v10.05c0,1.22,.99,2.21,2.2,2.21h10.69c1.22,0,2.2-.99,2.2-2.21v-10.62c0-.69,.56-1.25,1.25-1.25s1.25,.56,1.25,1.25v10.62c0,2.6-2.11,4.71-4.7,4.71Z"/>
                </g>
              </g>
              <g id="g229">
                <g id="path231">
                  <path class="cls-2" d="M46.15,36.56c-.3,0-.6-.11-.84-.33l-9.82-8.98c-.86-.79-2.16-.79-3.03,0l-9.82,8.98c-.51,.47-1.3,.43-1.77-.08-.47-.51-.43-1.3,.08-1.77l9.82-8.98c1.82-1.67,4.58-1.67,6.4,0l9.82,8.98c.51,.47,.54,1.26,.08,1.77-.25,.27-.58,.41-.92,.41Z"/>
                </g>
              </g>
            </g>
          </g>
        </g>
      </g>
    </g>
  </g>
</svg>