<?xml version="1.0" encoding="UTF-8"?>
<svg id="Layer_2" data-name="Layer 2" xmlns="http://www.w3.org/2000/svg" viewBox="0 0 44.45 47.5">
  <defs>
    <style>
      .cls-1 {
        fill: #fff;
      }
    </style>
  </defs>
  <g id="C-CAZARE_DETALIU" data-name="C-CAZARE DETALIU">
    <g id="beneficii_icon">
      <g>
        <path class="cls-1" d="M35.57,36.44c-4.89,0-8.88-3.98-8.88-8.88s3.98-8.88,8.88-8.88,8.88,3.98,8.88,8.88-3.98,8.88-8.88,8.88Zm0-15.25c-3.52,0-6.38,2.86-6.38,6.38s2.86,6.38,6.38,6.38,6.38-2.86,6.38-6.38-2.86-6.38-6.38-6.38Z"/>
        <path class="cls-1" d="M39.39,47.5c-.33,0-.64-.13-.88-.37l-2.93-2.93-2.93,2.93c-.36,.36-.89,.46-1.36,.27-.47-.19-.77-.65-.77-1.15v-12.08c0-.69,.56-1.25,1.25-1.25s1.25,.56,1.25,1.25v9.06l1.68-1.68c.49-.49,1.28-.49,1.77,0l1.68,1.68v-9.06c0-.69,.56-1.25,1.25-1.25s1.25,.56,1.25,1.25v12.08c0,.51-.3,.96-.77,1.15-.16,.06-.32,.1-.48,.1Z"/>
      </g>
      <path class="cls-1" d="M20.32,25H8.88c-.69,0-1.25-.56-1.25-1.25s.56-1.25,1.25-1.25h11.44c.69,0,1.25,.56,1.25,1.25s-.56,1.25-1.25,1.25Z"/>
      <path class="cls-1" d="M20.32,32.63H8.88c-.69,0-1.25-.56-1.25-1.25s.56-1.25,1.25-1.25h11.44c.69,0,1.25,.56,1.25,1.25s-.56,1.25-1.25,1.25Z"/>
      <path class="cls-1" d="M20.32,40.25H8.88c-.69,0-1.25-.56-1.25-1.25s.56-1.25,1.25-1.25h11.44c.69,0,1.25,.56,1.25,1.25s-.56,1.25-1.25,1.25Z"/>
      <path class="cls-1" d="M24.13,47.5H5.06c-2.79,0-5.06-2.27-5.06-5.06V20.32c0-2.79,2.27-5.06,5.06-5.06h7.63c1.41,0,2.56-1.15,2.56-2.56V5.06c0-2.79,2.27-5.06,5.06-5.06h11.44c2.79,0,5.06,2.27,5.06,5.06v7.25c0,.69-.56,1.25-1.25,1.25s-1.25-.56-1.25-1.25V5.06c0-1.41-1.15-2.56-2.56-2.56h-11.44c-1.41,0-2.56,1.15-2.56,2.56v7.63c0,2.79-2.27,5.06-5.06,5.06H5.06c-1.41,0-2.56,1.15-2.56,2.56v22.12c0,1.41,1.15,2.56,2.56,2.56H24.13c.69,0,1.25,.56,1.25,1.25s-.56,1.25-1.25,1.25Z"/>
      <path class="cls-1" d="M2.37,18.87c-.32,0-.64-.12-.88-.37-.49-.49-.49-1.28,0-1.77L16.74,1.48c.49-.49,1.28-.49,1.77,0,.49,.49,.49,1.28,0,1.77L3.25,18.5c-.24,.24-.56,.37-.88,.37Z"/>
      <path class="cls-1" d="M27.95,13.94h-3.81c-.69,0-1.25-.56-1.25-1.25s.56-1.25,1.25-1.25h3.81c.69,0,1.25,.56,1.25,1.25s-.56,1.25-1.25,1.25Z"/>
    </g>
  </g>
</svg>