<?xml version="1.0" encoding="UTF-8"?>
<svg id="Layer_2" data-name="Layer 2" xmlns="http://www.w3.org/2000/svg" viewBox="0 0 53.33 40.17">
  <defs>
    <style>
      .cls-1 {
        fill: #fff;
      }
    </style>
  </defs>
  <g id="LANDING">
    <g id="lectori_icon">
      <path class="cls-1" d="M52.57,16.36c-.42,0-.76,.34-.76,.76v4.75c0,.42,.34,.76,.76,.76s.76-.34,.76-.76v-4.75c0-.42-.34-.76-.76-.76Z"/>
      <path class="cls-1" d="M52.57,24.92c-.42,0-.76,.34-.76,.76v4.75c0,.42,.34,.76,.76,.76s.76-.34,.76-.76v-4.75c0-.42-.34-.76-.76-.76Z"/>
      <path class="cls-1" d="M52.57,6.33h-3.2V3.42c0-.42-.34-.76-.76-.76h-3.27V.78c0-.41-.33-.75-.74-.76-7.78-.24-13.5,1.67-17.93,5.99C22.22,1.69,16.5-.22,8.73,.02c-.41,.01-.74,.35-.74,.76v1.88h-3.26c-.42,0-.76,.34-.76,.76v2.9H.76c-.42,0-.76,.34-.76,.76V39.41c0,.42,.34,.76,.76,.76H52.57c.42,0,.76-.34,.76-.76v-5.17c0-.42-.34-.76-.76-.76s-.76,.34-.76,.76v4.4H1.52V7.85H3.97v27.4c0,.42,.34,.76,.76,.76H26.56s.01,0,.02,0c0,0,0,0,0,0,.03,0,.06,0,.08,0h0s.08,0,.12,0h21.82c.42,0,.76-.34,.76-.76V7.85h2.44v5.46c0,.42,.34,.76,.76,.76s.76-.34,.76-.76V7.09c0-.42-.34-.76-.76-.76ZM43.81,1.53V30.16c-2.47,.35-11.07,1.69-16.39,3.91V7.39C31.46,3.31,36.68,1.44,43.81,1.53ZM25.9,7.4v26.68c-5.33-2.22-13.94-3.56-16.39-3.91V3.51s0-.06,0-.09,0-.06,0-.09V1.53c7.12-.11,12.36,1.78,16.39,5.87Zm-20.42-.23s0-.05,0-.08,0-.05,0-.08v-2.83h2.5V30.83c0,.4,.31,.73,.7,.76,.56,.08,8.05,1.1,13.83,2.9H5.49V7.16Zm25.32,27.32c5.71-1.77,13.1-2.8,13.81-2.9,.35-.02,.64-.28,.7-.63,0,0,0-.01,0-.02,0-.02,0-.04,0-.05,0-.01,0-.02,0-.03,0,0,0-.02,0-.03V4.19h2.51v2.8s0,.07,0,.1,0,.07,0,.1v27.3H30.81Z"/>
      <path class="cls-1" d="M30.47,12.52c.14,0,.28-.04,.4-.11,3.01-1.91,6.47-2.97,10.03-3.09,.42-.01,.75-.36,.74-.78-.01-.42-.36-.75-.78-.74-3.83,.12-7.56,1.27-10.79,3.32-.22,.14-.36,.38-.36,.65,0,.42,.34,.76,.76,.76Z"/>
      <path class="cls-1" d="M30.47,17.8c.14,0,.28-.04,.4-.11,3.01-1.91,6.47-2.97,10.03-3.09,.42-.01,.75-.36,.74-.78,0-.01,0-.03,0-.04-.02-.41-.37-.72-.78-.7-3.83,.12-7.55,1.27-10.79,3.32-.22,.14-.36,.38-.36,.65,0,.42,.34,.76,.76,.76Z"/>
      <path class="cls-1" d="M30.47,23.08h0c.14,0,.28-.04,.4-.11,3.01-1.91,6.47-2.98,10.03-3.09,.42-.01,.75-.36,.74-.78-.01-.42-.36-.75-.78-.74-3.83,.12-7.56,1.27-10.79,3.32-.22,.14-.36,.38-.36,.65,0,.42,.34,.76,.76,.76Z"/>
      <path class="cls-1" d="M30.47,28.36c.14,0,.28-.04,.4-.12,3.01-1.91,6.47-2.98,10.03-3.09,.42-.01,.75-.36,.74-.78-.01-.42-.36-.75-.78-.74-3.83,.12-7.56,1.27-10.79,3.32-.23,.14-.36,.39-.36,.65,0,.42,.35,.76,.77,.76Z"/>
      <path class="cls-1" d="M12.43,9.32c3.56,.11,7.02,1.18,10.03,3.09,.12,.08,.26,.11,.4,.12h0c.26,0,.51-.14,.65-.36,.22-.36,.11-.83-.24-1.05-3.24-2.05-6.96-3.2-10.79-3.32-.42,0-.77,.32-.78,.74-.01,.42,.32,.77,.74,.78Z"/>
      <path class="cls-1" d="M12.43,14.6c3.56,.11,7.02,1.18,10.03,3.09,.12,.08,.26,.11,.4,.12,.26,0,.51-.14,.65-.36,.22-.36,.11-.83-.24-1.05-3.23-2.05-6.96-3.2-10.79-3.32,0,0-.01,0-.02,0-.41,0-.76,.32-.76,.74-.01,.42,.32,.77,.74,.78Z"/>
      <path class="cls-1" d="M12.43,19.87c3.56,.11,7.02,1.18,10.03,3.09,.12,.08,.26,.11,.4,.12h0c.26,0,.51-.14,.65-.36,.22-.36,.11-.83-.24-1.05-3.24-2.05-6.96-3.2-10.79-3.32-.42-.01-.77,.32-.78,.74-.01,.42,.32,.77,.74,.78Z"/>
      <path class="cls-1" d="M23.27,26.94c-3.24-2.05-6.96-3.2-10.79-3.32-.42,0-.76,.32-.78,.74-.01,.42,.32,.77,.74,.78,3.56,.11,7.02,1.18,10.03,3.09,.12,.08,.26,.11,.4,.12h0c.26,0,.51-.14,.65-.36,.22-.36,.11-.83-.24-1.05Z"/>
    </g>
  </g>
</svg>