<?xml version="1.0" encoding="UTF-8"?>
<svg id="Layer_2" data-name="Layer 2" xmlns="http://www.w3.org/2000/svg" viewBox="0 0 18 18">
  <defs>
    <style>
      .cls-1 {
        fill: #003e66;
      }
    </style>
  </defs>
  <g id="HOTELURI">
    <path id="hotel_icon" class="cls-1" d="M13.2,14.97c0,.45,0,.86,0,1.27,0,.59-.24,1.06-.81,1.21-.77,.21-1.55,.39-2.34,.47-1.3,.13-2.61,.1-3.88-.26-.85-.24-1.44-.49-1.35-1.78,.01-.19,0-.38,0-.56,0-.1,0-.2-.02-.36-.41,0-.82,.01-1.23,0-.46-.02-.93,0-1.38-.1C.98,14.6,.23,13.73,.02,12.42c-.16-1,.44-2.16,1.44-2.73,.65-.37,1.33-.69,2-1.03,.93-.47,1.86-.94,2.78-1.4,.03-.02,.07-.03,.14-.05,.21,.79,.66,1.41,1.35,1.92-.18,.09-.31,.16-.44,.22-1.44,.71-2.88,1.41-4.31,2.12-.12,.06-.28,.1-.35,.2-.12,.17-.26,.4-.23,.57,.03,.15,.29,.34,.45,.36,.64,.04,1.27,.02,1.92,.02,.03-.1,.06-.18,.08-.27,.15-.6,.53-.92,1.15-.93,1.99-.01,3.99-.01,5.98,0,.69,0,.99,.29,1.26,1.19,.64,0,1.29,.03,1.94-.02,.16-.01,.38-.22,.44-.38,.04-.14-.09-.37-.2-.51-.09-.12-.27-.17-.41-.25-2.06-1.06-4.12-2.11-6.18-3.16-.64-.33-1.14-.79-1.22-1.55-.07-.69,.24-1.21,.8-1.59,.37-.25,.77-.47,1.15-.71,.45-.29,.67-.77,.56-1.21-.12-.5-.51-.86-1.02-.92-.46-.06-.98,.22-1.21,.67-.08,.15-.13,.33-.17,.5-.17,.84-.65,1.26-1.34,1.13-.53-.1-1.07-.67-.93-1.52,.25-1.48,1.24-2.63,2.7-2.98,1.65-.39,3.39,.46,4.04,1.98,.67,1.56,.11,3.34-1.33,4.28-.1,.07-.2,.14-.35,.25,.16,.09,.27,.15,.39,.21,1.77,.9,3.55,1.8,5.33,2.7,.94,.47,1.57,1.18,1.73,2.25,.23,1.5-.78,2.91-2.3,3.12-.63,.09-1.27,.06-1.91,.08-.16,0-.32,0-.55,0Z"/>
  </g>
</svg>