<?xml version="1.0" encoding="UTF-8"?>
<svg id="Layer_2" data-name="Layer 2" xmlns="http://www.w3.org/2000/svg" viewBox="0 0 26.42 18.85">
  <defs>
    <style>
      .cls-1 {
        fill: #003e66;
      }
    </style>
  </defs>
  <g id="REZULTATE_CAUTARE-SESIUNI" data-name="REZULTATE CAUTARE-SESIUNI">
    <path class="cls-1" d="M24.42,0H2C.9,0,0,.9,0,2v14.85c0,1.1,.9,2,2,2H24.42c1.1,0,2-.9,2-2V2c0-1.1-.9-2-2-2Zm-1.84,13.6c0,1.1-.9,2-2,2H5.24c-1.1,0-2-.9-2-2V5.51s.01-.7,1.28,0c.02,0,.02,.01,.04,.02,2.05,1.17,4.36,2.28,7.68,3.67,.23,.08,.69,.17,1.38,0,3.3-.97,6.08-2.29,8.2-3.49h0s.76-.46,.76,0v7.91Z"/>
  </g>
</svg>