<?xml version="1.0" encoding="UTF-8"?>
<svg id="Layer_2" data-name="Layer 2" xmlns="http://www.w3.org/2000/svg" xmlns:xlink="http://www.w3.org/1999/xlink" viewBox="0 0 47.49 47.5">
  <defs>
    <style>
      .cls-1 {
        mask: url(#mask);
      }

      .cls-2 {
        fill: #fff;
      }
    </style>
    <mask id="mask" x="-.67" y="-.66" width="48.81" height="48.81" maskUnits="userSpaceOnUse"/>
  </defs>
  <g id="C-ONLINE_DETALIU" data-name="C-ONLINE DETALIU">
    <g class="cls-1">
      <g id="certificate_icon">
        <g id="g3204">
          <g id="g3206">
            <g id="g3208">
              <g id="g3214">
                <g id="path3216">
                  <path class="cls-2" d="M16.59,38.63H6.97c-3.84,0-6.97-3.13-6.97-6.97V6.97C0,3.13,3.13,0,6.97,0H40.52c3.84,0,6.97,3.13,6.97,6.97v15.16c0,.69-.56,1.25-1.25,1.25s-1.25-.56-1.25-1.25V6.97c0-2.46-2.01-4.47-4.47-4.47H6.97c-2.46,0-4.47,2.01-4.47,4.47V31.66c0,2.46,2.01,4.47,4.47,4.47h9.62c.69,0,1.25,.56,1.25,1.25s-.56,1.25-1.25,1.25Z"/>
                </g>
              </g>
              <g id="g3218">
                <g id="path3220">
                  <path class="cls-2" d="M40.52,38.63c-.69,0-1.25-.56-1.25-1.25s.56-1.25,1.25-1.25c2.46,0,4.47-2.01,4.47-4.47,0-.69,.56-1.25,1.25-1.25s1.25,.56,1.25,1.25c0,3.84-3.13,6.97-6.97,6.97Z"/>
                </g>
              </g>
              <g id="g3222">
                <g id="path3224">
                  <path class="cls-2" d="M19.93,10.13H8.96c-.69,0-1.25-.56-1.25-1.25s.56-1.25,1.25-1.25h10.96c.69,0,1.25,.56,1.25,1.25s-.56,1.25-1.25,1.25Z"/>
                </g>
              </g>
              <g id="g3226">
                <g id="path3228">
                  <path class="cls-2" d="M38.61,10.13h-10.96c-.69,0-1.25-.56-1.25-1.25s.56-1.25,1.25-1.25h10.96c.69,0,1.25,.56,1.25,1.25s-.56,1.25-1.25,1.25Z"/>
                </g>
              </g>
              <g id="g3230">
                <g id="path3232">
                  <path class="cls-2" d="M38.61,17.75H8.96c-.69,0-1.25-.56-1.25-1.25s.56-1.25,1.25-1.25h29.65c.69,0,1.25,.56,1.25,1.25s-.56,1.25-1.25,1.25Z"/>
                </g>
              </g>
              <g id="g3234">
                <g id="path3236">
                  <path class="cls-2" d="M16.02,25.38h-7.05c-.69,0-1.25-.56-1.25-1.25s.56-1.25,1.25-1.25h7.05c.69,0,1.25,.56,1.25,1.25s-.56,1.25-1.25,1.25Z"/>
                </g>
              </g>
              <g id="g3238">
                <g id="path3240">
                  <path class="cls-2" d="M32.23,47.5c-.17,0-.33-.03-.49-.1l-3.33-1.41-3.33,1.41c-.38,.16-.83,.12-1.18-.11-.35-.23-.56-.62-.56-1.04v-8.86c0-.69,.56-1.25,1.25-1.25s1.25,.56,1.25,1.25v6.98l2.08-.88c.31-.13,.67-.13,.98,0l2.08,.88v-6.98c0-.69,.56-1.25,1.25-1.25s1.25,.56,1.25,1.25v8.87c0,.42-.21,.81-.56,1.04-.21,.14-.45,.21-.69,.21Z"/>
                </g>
              </g>
              <g id="g3242">
                <g id="path3244">
                  <path class="cls-2" d="M28.51,39.11c-4.47,0-8.11-3.64-8.11-8.11s3.64-8.11,8.11-8.11,8.11,3.64,8.11,8.11-3.64,8.11-8.11,8.11Zm0-13.73c-3.1,0-5.61,2.52-5.61,5.61s2.52,5.61,5.61,5.61,5.61-2.52,5.61-5.61-2.52-5.61-5.61-5.61Z"/>
                </g>
              </g>
            </g>
          </g>
        </g>
      </g>
    </g>
  </g>
</svg>