<?xml version="1.0" encoding="UTF-8"?>
<svg id="Layer_2" data-name="Layer 2" xmlns="http://www.w3.org/2000/svg" xmlns:xlink="http://www.w3.org/1999/xlink" viewBox="0 0 47.4 47.5">
  <defs>
    <style>
      .cls-1 {
        mask: url(#mask);
      }

      .cls-2 {
        fill: none;
        stroke: #fff;
        stroke-linecap: round;
        stroke-linejoin: round;
        stroke-width: 2.5px;
      }
    </style>
    <mask id="mask" x="-.65" y="-.65" width="48.71" height="48.71" maskUnits="userSpaceOnUse"/>
  </defs>
  <g id="C-CAZARE_DETALIU" data-name="C-CAZARE DETALIU">
    <g class="cls-1">
      <g id="location_icon">
        <g id="g207">
          <g id="g209">
            <g id="g211">
              <g id="g217">
                <path id="path219" class="cls-2" d="M18.85,28.84c-5.52,0-9.99-4.47-9.99-9.99s4.47-9.99,9.99-9.99,9.99,4.47,9.99,9.99"/>
              </g>
              <g id="g221">
                <path id="path223" class="cls-2" d="M18.28,46.15C11.91,36.07,1.26,30.4,1.25,18.83,1.26,9.12,9.14,1.25,18.85,1.25s17.59,7.87,17.6,17.58"/>
              </g>
              <g id="g225">
                <path id="path227" class="cls-2" d="M25.13,32.74v10.05c0,1.91,1.55,3.46,3.45,3.46h10.69c1.91,0,3.45-1.55,3.45-3.46v-10.62"/>
              </g>
              <g id="g229">
                <path id="path231" class="cls-2" d="M46.15,35.31l-9.82-8.98c-1.33-1.22-3.38-1.22-4.71,0l-9.82,8.98"/>
              </g>
            </g>
          </g>
        </g>
      </g>
    </g>
  </g>
</svg>