<?xml version="1.0" encoding="UTF-8"?>
<svg id="Layer_2" data-name="Layer 2" xmlns="http://www.w3.org/2000/svg" viewBox="0 0 39.58 53.33">
  <defs>
    <style>
      .cls-1 {
        fill: #fff;
      }
    </style>
  </defs>
  <g id="LANDING">
    <g id="certificate_icon">
      <path class="cls-1" d="M4.17,19.79c0,8.62,7.01,15.62,15.62,15.62s15.62-7.01,15.62-15.62-7.01-15.62-15.62-15.62S4.17,11.18,4.17,19.79ZM19.79,6.25c7.47,0,13.54,6.07,13.54,13.54s-6.07,13.54-13.54,13.54-13.54-6.07-13.54-13.54S12.32,6.25,19.79,6.25Z"/>
      <path class="cls-1" d="M10.14,17.93l4.04,3.98-.93,5.59c-.06,.39,.1,.78,.42,1.01,.32,.23,.74,.26,1.09,.08l5.03-2.61,5.03,2.61c.35,.18,.77,.15,1.09-.08,.32-.23,.48-.62,.42-1.01l-.93-5.59,4.04-3.98c.28-.28,.38-.69,.26-1.06-.12-.38-.45-.65-.84-.71l-5.6-.84-2.54-5.07c-.18-.35-.54-.58-.93-.58s-.76,.22-.93,.58l-2.54,5.07-5.6,.84c-.39,.06-.71,.33-.84,.71-.12,.38-.02,.79,.26,1.06Zm7.02-.64c.34-.05,.62-.26,.78-.56l1.85-3.69,1.85,3.69c.15,.3,.44,.51,.78,.56l4.08,.61-2.94,2.9c-.24,.24-.35,.58-.3,.91l.68,4.07-3.66-1.9c-.15-.08-.31-.12-.48-.12s-.33,.04-.48,.12l-3.66,1.9,.68-4.07c.06-.33-.05-.68-.3-.91l-2.94-2.9,4.08-.61Z"/>
      <path class="cls-1" d="M20.83,1.04c0,.58-.47,1.04-1.04,1.04s-1.04-.47-1.04-1.04,.47-1.04,1.04-1.04,1.04,.47,1.04,1.04Z"/>
      <path class="cls-1" d="M14.88,.61C6.12,2.85,0,10.74,0,19.79c0,5.62,2.36,10.92,6.52,14.68L.24,45.53c-.2,.36-.18,.8,.06,1.13,.24,.33,.65,.49,1.05,.41l7.13-1.48,2.5,7.06c.14,.38,.48,.65,.89,.69s.8-.17,1-.52l6.92-12.16,6.92,12.16c.19,.33,.53,.53,.9,.53,.03,0,.06,0,.09,0,.41-.04,.75-.31,.89-.69l2.5-7.06,7.13,1.48c.4,.08,.81-.08,1.05-.41,.24-.33,.27-.77,.06-1.13l-6.28-11.06c4.15-3.75,6.52-9.05,6.52-14.68,0-9.05-6.12-16.94-14.88-19.18-.56-.14-1.12,.19-1.27,.75s.19,1.12,.75,1.27c7.84,2,13.31,9.06,13.31,17.16,0,9.86-8.01,17.71-17.71,17.71S2.08,29.65,2.08,19.79C2.08,11.69,7.56,4.63,15.4,2.63c.56-.14,.89-.71,.75-1.27-.14-.56-.71-.89-1.27-.75Zm-2.69,49.18l-2.05-5.77c-.17-.49-.68-.78-1.19-.67l-5.76,1.2,4.97-8.75c2.9,2.11,6.32,3.39,9.89,3.71l-5.85,10.29Zm18.44-6.44c-.51-.11-1.02,.18-1.19,.67l-2.05,5.77-5.85-10.29c3.57-.32,6.99-1.6,9.89-3.71l4.97,8.75-5.76-1.2Z"/>
    </g>
  </g>
</svg>