<?xml version="1.0" encoding="UTF-8"?>
<svg id="Layer_2" data-name="Layer 2" xmlns="http://www.w3.org/2000/svg" viewBox="0 0 44.05 50">
  <defs>
    <style>
      .cls-1 {
        fill: #fff;
      }
    </style>
  </defs>
  <g id="C-CAZARE">
    <g id="reviews_icon">
      <g>
        <path class="cls-1" d="M43.2,20.92H7.31c-.17,0-.34,0-.43,.09L.43,24.4C.17,24.57,0,24.83,0,25.17s.17,.6,.43,.77l6.46,3.4c.17,.09,.26,.09,.43,.09H43.2c.51,0,.85-.34,.85-.85v-6.8c0-.51-.34-.85-.85-.85Zm-35.71,1.7h29.76v1.7H10.88v1.7h26.36v1.7H8.33v-3.4h-1.7v2.98l-4-2.13,4.85-2.55Zm34.86,5.1h-3.4v-5.1h3.4v5.1Z"/>
        <path class="cls-1" d="M4.93,7.31c0-.51,.34-.85,.85-.85h14.46c.51,0,.85,.34,.85,.85v9.35h1.7V7.31c0-1.45-1.11-2.55-2.55-2.55H5.78c-1.45,0-2.55,1.11-2.55,2.55v9.35h1.7V7.31Z"/>
        <path class="cls-1" d="M38.95,43.88c0,.51-.34,.85-.85,.85h-14.46c-.51,0-.85-.34-.85-.85v-11.05h-1.7v11.05c0,1.45,1.11,2.55,2.55,2.55h14.46c1.45,0,2.55-1.11,2.55-2.55v-11.05h-1.7v11.05Z"/>
        <path class="cls-1" d="M4.93,41.75v-10.63h-1.7v10.63c-1.87,.43-3.23,2.04-3.23,4.08,0,2.3,1.87,4.17,4.17,4.17s4.17-1.87,4.17-4.17c0-2.04-1.45-3.74-3.4-4.08Zm-.77,6.55c-1.36,0-2.47-1.11-2.47-2.47s1.11-2.47,2.47-2.47,2.47,1.11,2.47,2.47-1.11,2.47-2.47,2.47Z"/>
        <path class="cls-1" d="M38.95,8.25v8.42h1.7V8.25c1.96-.34,3.4-2.04,3.4-4.08,0-2.3-1.87-4.17-4.17-4.17s-4.17,1.87-4.17,4.17c0,1.96,1.36,3.66,3.23,4.08Zm.94-6.55c1.36,0,2.47,1.11,2.47,2.47s-1.11,2.47-2.47,2.47-2.47-1.11-2.47-2.47,1.11-2.47,2.47-2.47Z"/>
      </g>
    </g>
  </g>
</svg>