<?xml version="1.0" encoding="UTF-8"?>
<svg id="Layer_2" data-name="Layer 2" xmlns="http://www.w3.org/2000/svg" viewBox="0 0 21.5 21.5">
  <defs>
    <style>
      .cls-1 {
        fill: #fff;
      }
    </style>
  </defs>
  <g id="REZULTATE_CAUTARE-SESIUNI" data-name="REZULTATE CAUTARE-SESIUNI">
    <g id="sort_icon">
      <g id="g325">
        <g id="path327">
          <path class="cls-1" d="M15.45,21.5c-.41,0-.75-.34-.75-.75V7.36c0-.05-.04-.1-.1-.1h-3.64c-.63,0-1.19-.38-1.43-.96-.24-.58-.11-1.25,.33-1.7L13.72,.72c.92-.93,2.54-.93,3.46,0l3.86,3.88c.45,.45,.58,1.12,.33,1.7-.24,.58-.81,.96-1.43,.96h-.93c-.41,0-.75-.34-.75-.75s.34-.75,.75-.75h.93s.04-.1,.04-.1l-3.86-3.88c-.36-.36-.98-.36-1.33,0l-3.86,3.88,.04,.1h3.64c.88,0,1.6,.72,1.6,1.6v13.39c0,.41-.34,.75-.75,.75Z"/>
        </g>
      </g>
      <g id="g329">
        <g id="path331">
          <path class="cls-1" d="M6.05,21.5c-.66,0-1.27-.26-1.73-.72L.45,16.9c-.45-.45-.58-1.12-.33-1.7,.24-.58,.81-.96,1.43-.96h3.64c.05,0,.1-.04,.1-.1V.75c0-.41,.34-.75,.75-.75s.75,.34,.75,.75V14.14c0,.88-.72,1.6-1.6,1.6H1.56s-.04,.1-.04,.1l3.86,3.88c.18,.18,.42,.28,.67,.28h0c.25,0,.49-.1,.67-.28l3.86-3.88-.04-.1h-.93c-.41,0-.75-.34-.75-.75s.34-.75,.75-.75h.93c.63,0,1.19,.38,1.43,.96,.24,.58,.11,1.25-.33,1.7l-3.86,3.88c-.46,.46-1.08,.72-1.73,.72h0Z"/>
        </g>
      </g>
    </g>
  </g>
</svg>