<?xml version="1.0" encoding="UTF-8"?>
<svg id="Layer_2" data-name="Layer 2" xmlns="http://www.w3.org/2000/svg" viewBox="0 0 48 48">
  <defs>
    <style>
      .cls-1 {
        fill: #c60c30;
      }
    </style>
  </defs>
  <g id="REZULTATE_CAUTARE-SESIUNI" data-name="REZULTATE CAUTARE-SESIUNI">
    <g id="Descarca_Oferta" data-name="Descarca Oferta">
      <path id="download_offer_icon" class="cls-1" d="M30.4,47.99c-1.25-1.21-2.4-2.33-3.55-3.45-.73-.71-1.48-1.39-2.17-2.14-.48-.52-.84-.49-1.33,0-1.61,1.62-3.25,3.2-4.89,4.79-.24,.24-.5,.46-.88,.8-.45-1.53-.86-2.91-1.26-4.3-.32-1.12-.67-2.25-.93-3.38-.17-.76-.52-.85-1.22-.66-2.5,.67-5.02,1.27-7.71,1.94,.41-1.67,.78-3.22,1.16-4.76,.24-.98,.44-1.98,.76-2.94,.26-.79-.03-1.07-.75-1.27-2.5-.68-4.98-1.41-7.57-2.15,.2-.25,.33-.45,.49-.62,1.66-1.7,3.3-3.42,4.99-5.09,.57-.56,.53-.95,0-1.49-1.61-1.62-3.19-3.26-4.78-4.9-.22-.22-.43-.45-.77-.81,.67-.19,1.22-.36,1.77-.52,1.98-.56,3.95-1.15,5.94-1.67,.73-.19,.86-.5,.67-1.22-.67-2.5-1.27-5.03-1.93-7.73,1.64,.4,3.15,.76,4.66,1.14,1.04,.26,2.1,.49,3.12,.81,.69,.22,.97,0,1.15-.66,.69-2.53,1.43-5.05,2.18-7.7,.27,.22,.48,.38,.67,.56,1.68,1.64,3.37,3.26,5.02,4.93,.54,.54,.92,.58,1.48,.02,1.63-1.64,3.31-3.23,4.97-4.84,.22-.21,.45-.41,.77-.7,.7,2.49,1.37,4.86,2.04,7.23,.4,1.39,.4,1.39,1.81,1.04,2.36-.6,4.72-1.2,7.24-1.84-.09,.44-.14,.76-.22,1.08-.55,2.21-1.08,4.42-1.69,6.62-.21,.77-.04,1.07,.73,1.27,2.05,.53,4.08,1.13,6.12,1.72,.45,.13,.88,.29,1.47,.49-.31,.35-.52,.6-.76,.84-1.53,1.56-3.03,3.15-4.6,4.67-.66,.64-.75,1.05-.03,1.75,1.69,1.62,3.29,3.34,4.92,5.02,.15,.15,.28,.32,.5,.59-2.28,.64-4.47,1.22-6.64,1.87-2.2,.66-2.02,.23-1.46,2.49,.55,2.2,1.1,4.41,1.69,6.76-2.35-.59-4.58-1.14-6.8-1.7-2.15-.54-1.79-.74-2.43,1.42-.56,1.88-1.07,3.78-1.6,5.66-.08,.29-.2,.58-.36,1.01Zm-3.25-26.62c0-1.58,.01-3.17,0-4.75-.01-1.16-.66-1.8-1.83-1.83-.66-.01-1.33,0-1.99,0-1.84,0-2.42,.59-2.43,2.45-.01,2.91-.03,5.83,0,8.74,0,.73-.21,1.02-.97,1-1.3-.05-2.6-.06-3.89,.01-.41,.02-1.02,.27-1.14,.57-.13,.32,.1,.95,.38,1.24,2.23,2.29,4.5,4.55,6.79,6.77,1.06,1.02,2.65,1.06,3.71,.06,2.34-2.22,4.63-4.5,6.9-6.8,.29-.29,.55-.96,.41-1.23-.19-.34-.79-.58-1.23-.61-1.26-.08-2.53-.06-3.8-.02-.72,.02-.94-.26-.92-.95,.03-1.55,.01-3.1,.01-4.65Z"/>
    </g>
  </g>
</svg>