<?xml version="1.0" encoding="UTF-8"?>
<svg id="Layer_2" data-name="Layer 2" xmlns="http://www.w3.org/2000/svg" viewBox="0 0 44.08 47.5">
  <defs>
    <style>
      .cls-1 {
        fill: #fff;
      }
    </style>
  </defs>
  <g id="C-ONLINE_DETALIU" data-name="C-ONLINE DETALIU">
    <g id="support_icon">
      <g id="g3167">
        <g id="g3169">
          <g id="g3175">
            <g id="path3177">
              <path class="cls-1" d="M42.83,47.5H1.25c-.58,0-1.08-.4-1.22-.96-.13-.56,.14-1.15,.66-1.41l13-6.5v-4.57c0-.69,.56-1.25,1.25-1.25s1.25,.56,1.25,1.25v5.34c0,.47-.27,.91-.69,1.12l-8.95,4.47h30.99l-8.95-4.47c-.42-.21-.69-.64-.69-1.12v-5.34c0-.69,.56-1.25,1.25-1.25s1.25,.56,1.25,1.25v4.57l13,6.5c.52,.26,.79,.84,.66,1.41-.13,.56-.64,.96-1.22,.96Z"/>
            </g>
          </g>
          <g id="g3179">
            <g id="path3181">
              <path class="cls-1" d="M16.81,47.5c-.55,0-1.05-.36-1.21-.92l-1.87-6.84c-.18-.67,.21-1.35,.88-1.54,.66-.18,1.35,.21,1.54,.88l1.87,6.84c.18,.67-.21,1.35-.88,1.54-.11,.03-.22,.04-.33,.04Z"/>
            </g>
          </g>
          <g id="g3183">
            <g id="path3185">
              <path class="cls-1" d="M27.27,47.5c-.11,0-.22-.01-.33-.04-.67-.18-1.06-.87-.88-1.54l1.87-6.84c.18-.67,.87-1.06,1.54-.88,.67,.18,1.06,.87,.88,1.54l-1.87,6.84c-.15,.56-.66,.92-1.21,.92Z"/>
            </g>
          </g>
          <g id="g3187">
            <g id="path3189">
              <path class="cls-1" d="M22.51,37.87h-.94c-6.2,0-11.24-5.04-11.24-11.24v-9.52c0-4.29,2.5-8.26,6.36-10.13,1.13-.55,2.3,.3,4.43,1.84,2.79,2.02,7.01,5.06,11.38,5.06,.69,0,1.25,.56,1.25,1.25v11.5c0,6.2-5.04,11.24-11.24,11.24Zm-5.03-28.49c-2.84,1.5-4.66,4.5-4.66,7.73v9.52c0,4.82,3.92,8.74,8.74,8.74h.94c4.82,0,8.74-3.92,8.74-8.74v-10.31c-4.67-.47-8.79-3.45-11.59-5.47-.77-.56-1.71-1.24-2.17-1.46Z"/>
            </g>
          </g>
          <g id="g3191">
            <g id="path3193">
              <path class="cls-1" d="M11.58,28h-3.73c-2.23,0-4.05-1.82-4.05-4.05v-6.02c0-2.23,1.82-4.05,4.05-4.05h3.93c.69,0,1.25,.56,1.25,1.25s-.56,1.25-1.25,1.25h-3.93c-.86,0-1.55,.7-1.55,1.55v6.02c0,.85,.7,1.55,1.55,1.55h3.73c.69,0,1.25,.56,1.25,1.25s-.56,1.25-1.25,1.25Z"/>
            </g>
          </g>
          <g id="g3195">
            <g id="path3197">
              <path class="cls-1" d="M36.23,28h-3.73c-.69,0-1.25-.56-1.25-1.25V15.13c0-.69,.56-1.25,1.25-1.25h3.73c2.23,0,4.05,1.82,4.05,4.05v6.02c0,2.23-1.82,4.05-4.05,4.05Zm-2.48-2.5h2.48c.86,0,1.55-.7,1.55-1.55v-6.02c0-.85-.7-1.55-1.55-1.55h-2.48v9.12Z"/>
            </g>
          </g>
          <g id="g3199">
            <g id="path3201">
              <path class="cls-1" d="M25.59,31.29h-2.37c-.69,0-1.25-.56-1.25-1.25s.56-1.25,1.25-1.25h2.37c1.05,0,2.06-.31,2.93-.89l3.29-2.19c.57-.38,1.35-.23,1.73,.35,.38,.57,.23,1.35-.35,1.73l-3.29,2.19c-1.28,.86-2.78,1.31-4.32,1.31Z"/>
            </g>
          </g>
          <g id="g3203">
            <g id="path3205">
              <path class="cls-1" d="M8.65,43.8c-.69,0-1.25-.56-1.25-1.25v-15.8c0-.69,.56-1.25,1.25-1.25s1.25,.56,1.25,1.25v15.8c0,.69-.56,1.25-1.25,1.25Z"/>
            </g>
          </g>
          <g id="g3207">
            <g id="path3209">
              <path class="cls-1" d="M35.43,43.8c-.69,0-1.25-.56-1.25-1.25v-15.8c0-.69,.56-1.25,1.25-1.25s1.25,.56,1.25,1.25v15.8c0,.69-.56,1.25-1.25,1.25Z"/>
            </g>
          </g>
          <g id="g3211">
            <g id="path3213">
              <path class="cls-1" d="M35.43,16.38c-.69,0-1.25-.56-1.25-1.25v-.48c0-6.7-5.45-12.14-12.14-12.14S9.9,7.95,9.9,14.64v.48c0,.69-.56,1.25-1.25,1.25s-1.25-.56-1.25-1.25v-.48C7.4,6.57,13.97,0,22.04,0s14.64,6.57,14.64,14.64v.48c0,.69-.56,1.25-1.25,1.25Z"/>
            </g>
          </g>
        </g>
      </g>
    </g>
  </g>
</svg>