<?xml version="1.0" encoding="UTF-8"?>
<svg id="Layer_2" data-name="Layer 2" xmlns="http://www.w3.org/2000/svg" xmlns:xlink="http://www.w3.org/1999/xlink" viewBox="0 0 49.6 47.5">
  <defs>
    <style>
      .cls-1 {
        mask: url(#mask);
      }

      .cls-2 {
        fill: #fff;
      }
    </style>
    <mask id="mask" x="-.75" y="-.75" width="51.09" height="51.09" maskUnits="userSpaceOnUse"/>
  </defs>
  <g id="C-ONLINE_DETALIU" data-name="C-ONLINE DETALIU">
    <g class="cls-1">
      <g id="video_icon">
        <g id="g1716">
          <g id="g1718">
            <g id="g1720">
              <g id="g1726">
                <g id="path1728">
                  <path class="cls-2" d="M21.81,26.85c-.54,0-1.08-.14-1.57-.42-.99-.57-1.58-1.6-1.58-2.74V13.74c0-1.15,.59-2.17,1.58-2.74,.99-.57,2.16-.57,3.15,0l8.57,4.97c.99,.57,1.57,1.59,1.57,2.74s-.59,2.16-1.57,2.74l-8.57,4.97c-.49,.29-1.04,.43-1.58,.43Zm0-13.77c-.15,0-.27,.05-.33,.09-.1,.06-.33,.23-.33,.57v9.94c0,.35,.23,.52,.33,.57,.1,.06,.36,.17,.65,0h0l8.57-4.97c.3-.17,.33-.46,.33-.57s-.03-.4-.33-.57l-8.57-4.97c-.12-.07-.23-.09-.32-.09Z"/>
                </g>
              </g>
              <g id="g1730">
                <g id="path1732">
                  <path class="cls-2" d="M42.36,37.42H7.24c-3.99,0-7.24-3.25-7.24-7.24V7.24C0,3.25,3.25,0,7.24,0H42.36c3.99,0,7.24,3.25,7.24,7.24v12.87c0,.69-.56,1.25-1.25,1.25s-1.25-.56-1.25-1.25V7.24c0-2.61-2.12-4.74-4.74-4.74H7.24c-2.61,0-4.74,2.12-4.74,4.74V30.19c0,2.61,2.12,4.74,4.74,4.74H42.36c2.61,0,4.74-2.12,4.74-4.74,0-.69,.56-1.25,1.25-1.25s1.25,.56,1.25,1.25c0,3.99-3.25,7.24-7.24,7.24Z"/>
                </g>
              </g>
              <g id="g1734">
                <g id="path1736">
                  <path class="cls-2" d="M12.72,47.5H1.25c-.69,0-1.25-.56-1.25-1.25s.56-1.25,1.25-1.25H12.72c.69,0,1.25,.56,1.25,1.25s-.56,1.25-1.25,1.25Z"/>
                </g>
              </g>
              <g id="g1738">
                <g id="path1740">
                  <path class="cls-2" d="M48.35,47.5H22.7c-.69,0-1.25-.56-1.25-1.25s.56-1.25,1.25-1.25h25.64c.69,0,1.25,.56,1.25,1.25s-.56,1.25-1.25,1.25Z"/>
                </g>
              </g>
            </g>
          </g>
        </g>
      </g>
    </g>
  </g>
</svg>